%TF.GenerationSoftware,KiCad,Pcbnew,10.0.0*%
%TF.CreationDate,2026-04-06T22:01:44-07:00*%
%TF.ProjectId,TPS922055 Module,54505339-3232-4303-9535-204d6f64756c,rev?*%
%TF.SameCoordinates,Original*%
%TF.FileFunction,Legend,Bot*%
%TF.FilePolarity,Positive*%
%FSLAX46Y46*%
G04 Gerber Fmt 4.6, Leading zero omitted, Abs format (unit mm)*
G04 Created by KiCad (PCBNEW 10.0.0) date 2026-04-06 22:01:44*
%MOMM*%
%LPD*%
G01*
G04 APERTURE LIST*
%ADD10C,0.150000*%
%ADD11C,0.120000*%
G04 APERTURE END LIST*
D10*
X152364580Y-82682142D02*
X152412200Y-82634523D01*
X152412200Y-82634523D02*
X152459819Y-82491666D01*
X152459819Y-82491666D02*
X152459819Y-82396428D01*
X152459819Y-82396428D02*
X152412200Y-82253571D01*
X152412200Y-82253571D02*
X152316961Y-82158333D01*
X152316961Y-82158333D02*
X152221723Y-82110714D01*
X152221723Y-82110714D02*
X152031247Y-82063095D01*
X152031247Y-82063095D02*
X151888390Y-82063095D01*
X151888390Y-82063095D02*
X151697914Y-82110714D01*
X151697914Y-82110714D02*
X151602676Y-82158333D01*
X151602676Y-82158333D02*
X151507438Y-82253571D01*
X151507438Y-82253571D02*
X151459819Y-82396428D01*
X151459819Y-82396428D02*
X151459819Y-82491666D01*
X151459819Y-82491666D02*
X151507438Y-82634523D01*
X151507438Y-82634523D02*
X151555057Y-82682142D01*
X152459819Y-83634523D02*
X152459819Y-83063095D01*
X152459819Y-83348809D02*
X151459819Y-83348809D01*
X151459819Y-83348809D02*
X151602676Y-83253571D01*
X151602676Y-83253571D02*
X151697914Y-83158333D01*
X151697914Y-83158333D02*
X151745533Y-83063095D01*
X151459819Y-83967857D02*
X151459819Y-84586904D01*
X151459819Y-84586904D02*
X151840771Y-84253571D01*
X151840771Y-84253571D02*
X151840771Y-84396428D01*
X151840771Y-84396428D02*
X151888390Y-84491666D01*
X151888390Y-84491666D02*
X151936009Y-84539285D01*
X151936009Y-84539285D02*
X152031247Y-84586904D01*
X152031247Y-84586904D02*
X152269342Y-84586904D01*
X152269342Y-84586904D02*
X152364580Y-84539285D01*
X152364580Y-84539285D02*
X152412200Y-84491666D01*
X152412200Y-84491666D02*
X152459819Y-84396428D01*
X152459819Y-84396428D02*
X152459819Y-84110714D01*
X152459819Y-84110714D02*
X152412200Y-84015476D01*
X152412200Y-84015476D02*
X152364580Y-83967857D01*
X187309580Y-85807142D02*
X187357200Y-85759523D01*
X187357200Y-85759523D02*
X187404819Y-85616666D01*
X187404819Y-85616666D02*
X187404819Y-85521428D01*
X187404819Y-85521428D02*
X187357200Y-85378571D01*
X187357200Y-85378571D02*
X187261961Y-85283333D01*
X187261961Y-85283333D02*
X187166723Y-85235714D01*
X187166723Y-85235714D02*
X186976247Y-85188095D01*
X186976247Y-85188095D02*
X186833390Y-85188095D01*
X186833390Y-85188095D02*
X186642914Y-85235714D01*
X186642914Y-85235714D02*
X186547676Y-85283333D01*
X186547676Y-85283333D02*
X186452438Y-85378571D01*
X186452438Y-85378571D02*
X186404819Y-85521428D01*
X186404819Y-85521428D02*
X186404819Y-85616666D01*
X186404819Y-85616666D02*
X186452438Y-85759523D01*
X186452438Y-85759523D02*
X186500057Y-85807142D01*
X186404819Y-86140476D02*
X186404819Y-86759523D01*
X186404819Y-86759523D02*
X186785771Y-86426190D01*
X186785771Y-86426190D02*
X186785771Y-86569047D01*
X186785771Y-86569047D02*
X186833390Y-86664285D01*
X186833390Y-86664285D02*
X186881009Y-86711904D01*
X186881009Y-86711904D02*
X186976247Y-86759523D01*
X186976247Y-86759523D02*
X187214342Y-86759523D01*
X187214342Y-86759523D02*
X187309580Y-86711904D01*
X187309580Y-86711904D02*
X187357200Y-86664285D01*
X187357200Y-86664285D02*
X187404819Y-86569047D01*
X187404819Y-86569047D02*
X187404819Y-86283333D01*
X187404819Y-86283333D02*
X187357200Y-86188095D01*
X187357200Y-86188095D02*
X187309580Y-86140476D01*
X186833390Y-87330952D02*
X186785771Y-87235714D01*
X186785771Y-87235714D02*
X186738152Y-87188095D01*
X186738152Y-87188095D02*
X186642914Y-87140476D01*
X186642914Y-87140476D02*
X186595295Y-87140476D01*
X186595295Y-87140476D02*
X186500057Y-87188095D01*
X186500057Y-87188095D02*
X186452438Y-87235714D01*
X186452438Y-87235714D02*
X186404819Y-87330952D01*
X186404819Y-87330952D02*
X186404819Y-87521428D01*
X186404819Y-87521428D02*
X186452438Y-87616666D01*
X186452438Y-87616666D02*
X186500057Y-87664285D01*
X186500057Y-87664285D02*
X186595295Y-87711904D01*
X186595295Y-87711904D02*
X186642914Y-87711904D01*
X186642914Y-87711904D02*
X186738152Y-87664285D01*
X186738152Y-87664285D02*
X186785771Y-87616666D01*
X186785771Y-87616666D02*
X186833390Y-87521428D01*
X186833390Y-87521428D02*
X186833390Y-87330952D01*
X186833390Y-87330952D02*
X186881009Y-87235714D01*
X186881009Y-87235714D02*
X186928628Y-87188095D01*
X186928628Y-87188095D02*
X187023866Y-87140476D01*
X187023866Y-87140476D02*
X187214342Y-87140476D01*
X187214342Y-87140476D02*
X187309580Y-87188095D01*
X187309580Y-87188095D02*
X187357200Y-87235714D01*
X187357200Y-87235714D02*
X187404819Y-87330952D01*
X187404819Y-87330952D02*
X187404819Y-87521428D01*
X187404819Y-87521428D02*
X187357200Y-87616666D01*
X187357200Y-87616666D02*
X187309580Y-87664285D01*
X187309580Y-87664285D02*
X187214342Y-87711904D01*
X187214342Y-87711904D02*
X187023866Y-87711904D01*
X187023866Y-87711904D02*
X186928628Y-87664285D01*
X186928628Y-87664285D02*
X186881009Y-87616666D01*
X186881009Y-87616666D02*
X186833390Y-87521428D01*
%TO.C,C13*%
D11*
X151265000Y-80461252D02*
X151265000Y-79938748D01*
X152735000Y-80461252D02*
X152735000Y-79938748D01*
%TO.C,C38*%
X180840000Y-82911252D02*
X180840000Y-81488748D01*
X183560000Y-82911252D02*
X183560000Y-81488748D01*
%TD*%
M02*
