M48
; DRILL file KiCad 10.0.0 date 2026-04-06T22:01:46
; FORMAT={-:-/ absolute / metric / decimal}
; #@! TF.CreationDate,2026-04-06T22:01:46-07:00
; #@! TF.GenerationSoftware,Kicad,Pcbnew,10.0.0
; #@! TF.FileFunction,Plated,1,4,PTH
FMAT,2
METRIC
; #@! TA.AperFunction,Plated,PTH,ViaDrill
T1C0.300
; #@! TA.AperFunction,Plated,PTH,ComponentDrill
T2C0.300
; #@! TA.AperFunction,Plated,PTH,ComponentDrill
T3C1.000
%
G90
G05
T1
X149.0Y-84.2
X149.4Y-82.4
X150.2Y-84.2
X150.9Y-92.4
X151.2Y-88.7
X151.2Y-89.5
X151.25Y-95.0
X152.0Y-81.9
X152.25Y-95.0
X153.25Y-95.0
X153.6Y-90.8
X153.7Y-85.1
X154.2Y-93.2
X154.2Y-95.0
X154.6Y-86.4
X154.6Y-87.2
X154.6Y-88.8
X154.6Y-89.7
X154.8Y-90.6
X154.8Y-91.5
X155.0Y-81.0
X155.0Y-85.1
X155.25Y-95.0
X155.6Y-87.2
X155.7Y-94.25
X156.25Y-95.0
X156.3Y-85.1
X156.3Y-87.8
X156.75Y-94.25
X156.9Y-87.2
X157.0Y-90.7
X157.0Y-91.9
X157.25Y-95.0
X157.4Y-85.1
X157.6Y-83.5
X157.75Y-94.25
X157.8Y-90.7
X157.8Y-91.9
X158.1Y-87.2
X158.1Y-88.75
X158.1Y-89.6
X158.25Y-78.0
X158.25Y-81.75
X158.25Y-95.0
X158.5Y-85.1
X158.5Y-86.1
X158.75Y-94.25
X159.25Y-95.0
X159.6Y-85.1
X159.6Y-86.1
X159.75Y-94.25
X160.1Y-79.995
X160.7Y-85.1
X160.7Y-86.1
X160.7Y-87.1
X160.7Y-88.0
X160.8Y-93.0
X160.9Y-94.6
X161.7Y-85.1
X161.7Y-86.1
X161.7Y-87.1
X161.7Y-88.0
X161.75Y-78.0
X161.75Y-81.75
X161.8Y-93.6
X161.8Y-94.6
X162.65Y-85.1
X162.7Y-93.6
X162.7Y-94.6
X162.75Y-86.1
X162.75Y-87.1
X162.75Y-88.0
X163.5Y-94.6
X163.6Y-93.6
X164.5Y-93.6
X164.5Y-94.6
X165.5Y-79.0
X165.6Y-94.6
X166.9Y-87.7
X167.0Y-95.0
X167.8Y-79.0
X167.9Y-87.7
X168.6Y-95.0
X168.9Y-87.7
X169.8Y-87.7
X170.0Y-95.0
X170.4Y-79.0
X170.8Y-87.7
X171.25Y-95.0
X172.2Y-88.4
X172.2Y-91.2
X172.5Y-95.0
X173.0Y-92.2
X174.0Y-95.0
X174.5Y-91.75
X174.7Y-94.0
X175.25Y-95.0
X175.5Y-91.0
X175.5Y-92.5
X175.9Y-79.3
X175.9Y-81.1
X176.5Y-84.9
X176.5Y-93.62
X176.75Y-95.0
X177.0Y-90.75
X177.0Y-92.5
X177.75Y-85.0
X178.25Y-95.0
X178.5Y-90.75
X178.5Y-92.5
X179.9Y-90.7
X179.9Y-92.5
X180.0Y-95.0
X181.25Y-92.5
X181.75Y-95.0
X182.1Y-78.0
X182.1Y-79.7
X182.25Y-82.25
X183.5Y-82.25
T2
X162.0Y-89.925
X162.0Y-91.305
X162.05Y-88.815
X162.05Y-92.415
X163.05Y-88.815
X163.05Y-92.415
X163.1Y-89.915
X163.1Y-91.305
T3
X149.395Y-78.595
X149.395Y-81.135
X149.5Y-86.0
X149.5Y-88.54
X149.5Y-91.08
X149.5Y-93.62
X183.4Y-86.0
X183.4Y-88.54
X183.4Y-91.08
X183.4Y-93.62
M30
