%TF.GenerationSoftware,KiCad,Pcbnew,10.0.0*%
%TF.CreationDate,2026-04-06T22:01:44-07:00*%
%TF.ProjectId,TPS922055 Module,54505339-3232-4303-9535-204d6f64756c,rev?*%
%TF.SameCoordinates,Original*%
%TF.FileFunction,Copper,L2,Inr*%
%TF.FilePolarity,Positive*%
%FSLAX46Y46*%
G04 Gerber Fmt 4.6, Leading zero omitted, Abs format (unit mm)*
G04 Created by KiCad (PCBNEW 10.0.0) date 2026-04-06 22:01:44*
%MOMM*%
%LPD*%
G01*
G04 APERTURE LIST*
%TA.AperFunction,ComponentPad*%
%ADD10R,1.700000X1.700000*%
%TD*%
%TA.AperFunction,ComponentPad*%
%ADD11C,1.700000*%
%TD*%
%TA.AperFunction,HeatsinkPad*%
%ADD12C,0.400000*%
%TD*%
%TA.AperFunction,ViaPad*%
%ADD13C,0.600000*%
%TD*%
G04 APERTURE END LIST*
D10*
%TO.N,GND*%
%TO.C,J1*%
X149500000Y-86000000D03*
D11*
%TO.N,VCC*%
X149500000Y-88540000D03*
%TO.N,PWM_ADIM*%
X149500000Y-91080000D03*
%TO.N,PWM_EN*%
X149500000Y-93620000D03*
%TD*%
D12*
%TO.N,GND*%
%TO.C,U1*%
X162000000Y-89925000D03*
X162000000Y-91305000D03*
X162050000Y-88815000D03*
X162050000Y-92415000D03*
X163050000Y-88815000D03*
X163050000Y-92415000D03*
X163100000Y-89915000D03*
X163100000Y-91305000D03*
%TD*%
D10*
%TO.N,LED-*%
%TO.C,J2*%
X183400000Y-86000000D03*
D11*
X183400000Y-88540000D03*
%TO.N,VCC*%
X183400000Y-91080000D03*
%TO.N,/LED_FAULT*%
X183400000Y-93620000D03*
%TD*%
D10*
%TO.N,VCC*%
%TO.C,J3*%
X149395000Y-78595000D03*
D11*
%TO.N,GND*%
X149395000Y-81135000D03*
%TD*%
D13*
%TO.N,VCC*%
X154600000Y-89700000D03*
%TO.N,GND*%
X153700000Y-85100000D03*
X155000000Y-85100000D03*
X156300000Y-85100000D03*
%TO.N,/LED_FAULT*%
X176500000Y-93620000D03*
%TO.N,GND*%
X154200000Y-93200000D03*
X157800000Y-90700000D03*
X181750000Y-95000000D03*
X178250000Y-95000000D03*
X175250000Y-95000000D03*
X172500000Y-95000000D03*
X171250000Y-95000000D03*
X151250000Y-95000000D03*
X153250000Y-95000000D03*
X155250000Y-95000000D03*
X159250000Y-95000000D03*
X158250000Y-95000000D03*
X157250000Y-95000000D03*
X156250000Y-95000000D03*
X177750000Y-85000000D03*
X174500000Y-91750000D03*
X175500000Y-91000000D03*
X175500000Y-92500000D03*
X181250000Y-92500000D03*
X178500000Y-92500000D03*
X178500000Y-90750000D03*
X169800000Y-87700000D03*
X167900000Y-87700000D03*
X157600000Y-83500000D03*
X157400000Y-85100000D03*
X155700000Y-94250000D03*
X164500000Y-93600000D03*
X173000000Y-92200000D03*
X156750000Y-94250000D03*
X163500000Y-94600000D03*
X167000000Y-95000000D03*
X150900000Y-92400000D03*
X154200000Y-95000000D03*
X174000000Y-95000000D03*
X183500000Y-82250000D03*
X162700000Y-93600000D03*
X161800000Y-93600000D03*
X158500000Y-85100000D03*
X177000000Y-90750000D03*
X168900000Y-87700000D03*
X162700000Y-94600000D03*
X160700000Y-86100000D03*
X163600000Y-93600000D03*
X165600000Y-94600000D03*
X154600000Y-87200000D03*
X161700000Y-86100000D03*
X165500000Y-79000000D03*
X161700000Y-87100000D03*
X182250000Y-82250000D03*
X161700000Y-88000000D03*
X179900000Y-92500000D03*
X176750000Y-95000000D03*
X158500000Y-86100000D03*
X166900000Y-87700000D03*
X161800000Y-94600000D03*
X167800000Y-79000000D03*
X159750000Y-94250000D03*
X154600000Y-86400000D03*
X168600000Y-95000000D03*
X159600000Y-86100000D03*
X160900000Y-94600000D03*
X162750000Y-87100000D03*
X170400000Y-79000000D03*
X176500000Y-84900000D03*
X149400000Y-82400000D03*
X157000000Y-90700000D03*
X158100000Y-87200000D03*
X152250000Y-95000000D03*
X156300000Y-87800000D03*
X170000000Y-95000000D03*
X155600000Y-87200000D03*
X155000000Y-81000000D03*
X149000000Y-84200000D03*
X159600000Y-85100000D03*
X179900000Y-90700000D03*
X172200000Y-91200000D03*
X160700000Y-87100000D03*
X161700000Y-85100000D03*
X150200000Y-84200000D03*
X170800000Y-87700000D03*
X157750000Y-94250000D03*
X160700000Y-85100000D03*
X160700000Y-88000000D03*
X180000000Y-95000000D03*
X152000000Y-81900000D03*
X154800000Y-91500000D03*
X177000000Y-92500000D03*
X172200000Y-88400000D03*
X162650000Y-85100000D03*
X154800000Y-90600000D03*
X164500000Y-94600000D03*
X158750000Y-94250000D03*
X162750000Y-86100000D03*
X156900000Y-87200000D03*
X162750000Y-88000000D03*
X153600000Y-90800000D03*
X157000000Y-91900000D03*
%TO.N,VCC*%
X158100000Y-89600000D03*
X182100000Y-79700000D03*
X161750000Y-78000000D03*
X151200000Y-89500000D03*
X158250000Y-81750000D03*
X151200000Y-88700000D03*
X158250000Y-78000000D03*
X175900000Y-79300000D03*
X182100000Y-78000000D03*
X161750000Y-81750000D03*
X160099998Y-79995000D03*
X175900000Y-81100000D03*
X158100000Y-88750000D03*
%TO.N,/LED_FAULT*%
X160800000Y-93000000D03*
%TO.N,GND*%
X157800000Y-91900000D03*
X174700000Y-94000000D03*
%TO.N,VCC*%
X154600000Y-88800000D03*
%TD*%
%TA.AperFunction,Conductor*%
%TO.N,GND*%
G36*
X183806061Y-77051097D02*
G01*
X183924317Y-77062744D01*
X183948145Y-77067483D01*
X184056005Y-77100202D01*
X184078454Y-77109501D01*
X184175068Y-77161142D01*
X184177850Y-77162629D01*
X184198061Y-77176134D01*
X184285180Y-77247631D01*
X184302368Y-77264819D01*
X184373865Y-77351938D01*
X184387370Y-77372149D01*
X184414835Y-77423533D01*
X184440495Y-77471538D01*
X184449798Y-77493997D01*
X184482514Y-77601848D01*
X184487256Y-77625688D01*
X184498903Y-77743937D01*
X184499500Y-77756092D01*
X184499500Y-84687630D01*
X184479815Y-84754669D01*
X184427011Y-84800424D01*
X184357853Y-84810368D01*
X184357623Y-84810335D01*
X184351393Y-84809427D01*
X184283260Y-84799500D01*
X182516740Y-84799500D01*
X182516739Y-84799500D01*
X182448608Y-84809426D01*
X182343514Y-84860803D01*
X182260803Y-84943514D01*
X182209426Y-85048608D01*
X182199500Y-85116739D01*
X182199500Y-86883260D01*
X182209426Y-86951391D01*
X182260803Y-87056485D01*
X182343514Y-87139196D01*
X182343515Y-87139196D01*
X182343517Y-87139198D01*
X182448607Y-87190573D01*
X182482673Y-87195536D01*
X182516739Y-87200500D01*
X182868090Y-87200500D01*
X182935129Y-87220185D01*
X182980884Y-87272989D01*
X182990828Y-87342147D01*
X182961803Y-87405703D01*
X182924385Y-87434985D01*
X182770800Y-87513240D01*
X182683579Y-87576610D01*
X182617927Y-87624310D01*
X182617925Y-87624312D01*
X182617924Y-87624312D01*
X182484312Y-87757924D01*
X182484312Y-87757925D01*
X182484310Y-87757927D01*
X182436610Y-87823579D01*
X182373240Y-87910800D01*
X182287454Y-88079163D01*
X182229059Y-88258881D01*
X182199500Y-88445513D01*
X182199500Y-88634486D01*
X182229059Y-88821118D01*
X182287454Y-89000836D01*
X182370932Y-89164669D01*
X182373240Y-89169199D01*
X182484310Y-89322073D01*
X182617927Y-89455690D01*
X182770801Y-89566760D01*
X182850347Y-89607290D01*
X182939163Y-89652545D01*
X182939165Y-89652545D01*
X182939168Y-89652547D01*
X183028734Y-89681649D01*
X183060803Y-89692069D01*
X183118478Y-89731507D01*
X183145676Y-89795866D01*
X183133761Y-89864712D01*
X183086516Y-89916188D01*
X183060803Y-89927931D01*
X182939163Y-89967454D01*
X182770800Y-90053240D01*
X182683579Y-90116610D01*
X182617927Y-90164310D01*
X182617925Y-90164312D01*
X182617924Y-90164312D01*
X182484312Y-90297924D01*
X182484312Y-90297925D01*
X182484310Y-90297927D01*
X182446113Y-90350500D01*
X182373240Y-90450800D01*
X182287454Y-90619163D01*
X182229059Y-90798881D01*
X182199500Y-90985513D01*
X182199500Y-91174486D01*
X182229059Y-91361118D01*
X182287454Y-91540836D01*
X182373240Y-91709199D01*
X182484310Y-91862073D01*
X182617927Y-91995690D01*
X182770801Y-92106760D01*
X182850347Y-92147290D01*
X182939163Y-92192545D01*
X182939165Y-92192545D01*
X182939168Y-92192547D01*
X183028734Y-92221649D01*
X183060803Y-92232069D01*
X183118478Y-92271507D01*
X183145676Y-92335866D01*
X183133761Y-92404712D01*
X183086516Y-92456188D01*
X183060803Y-92467931D01*
X182939163Y-92507454D01*
X182770800Y-92593240D01*
X182683579Y-92656610D01*
X182617927Y-92704310D01*
X182617925Y-92704312D01*
X182617924Y-92704312D01*
X182484312Y-92837924D01*
X182484312Y-92837925D01*
X182484310Y-92837927D01*
X182436610Y-92903579D01*
X182373240Y-92990800D01*
X182287454Y-93159163D01*
X182229059Y-93338881D01*
X182199500Y-93525513D01*
X182199500Y-93714486D01*
X182229059Y-93901118D01*
X182287454Y-94080836D01*
X182346371Y-94196466D01*
X182373240Y-94249199D01*
X182484310Y-94402073D01*
X182617927Y-94535690D01*
X182770801Y-94646760D01*
X182850347Y-94687290D01*
X182939163Y-94732545D01*
X182939165Y-94732545D01*
X182939168Y-94732547D01*
X183035497Y-94763846D01*
X183118881Y-94790940D01*
X183305514Y-94820500D01*
X183305519Y-94820500D01*
X183494486Y-94820500D01*
X183681118Y-94790940D01*
X183860832Y-94732547D01*
X184029199Y-94646760D01*
X184182073Y-94535690D01*
X184287819Y-94429944D01*
X184349142Y-94396459D01*
X184418834Y-94401443D01*
X184474767Y-94443315D01*
X184499184Y-94508779D01*
X184499500Y-94517625D01*
X184499500Y-94743907D01*
X184498903Y-94756062D01*
X184487256Y-94874311D01*
X184482514Y-94898151D01*
X184449798Y-95006002D01*
X184440495Y-95028461D01*
X184387370Y-95127850D01*
X184373865Y-95148061D01*
X184302368Y-95235180D01*
X184285180Y-95252368D01*
X184198061Y-95323865D01*
X184177850Y-95337370D01*
X184078461Y-95390495D01*
X184056002Y-95399798D01*
X183948151Y-95432514D01*
X183924311Y-95437256D01*
X183837215Y-95445834D01*
X183806060Y-95448903D01*
X183793907Y-95449500D01*
X149106093Y-95449500D01*
X149093939Y-95448903D01*
X149043081Y-95443893D01*
X148975688Y-95437256D01*
X148951848Y-95432514D01*
X148843997Y-95399798D01*
X148821540Y-95390496D01*
X148722149Y-95337370D01*
X148701938Y-95323865D01*
X148614819Y-95252368D01*
X148597631Y-95235180D01*
X148526134Y-95148061D01*
X148512629Y-95127850D01*
X148459501Y-95028454D01*
X148450201Y-95006002D01*
X148417483Y-94898145D01*
X148412744Y-94874317D01*
X148401097Y-94756061D01*
X148400500Y-94743907D01*
X148400500Y-94517625D01*
X148420185Y-94450586D01*
X148472989Y-94404831D01*
X148542147Y-94394887D01*
X148605703Y-94423912D01*
X148612181Y-94429944D01*
X148717927Y-94535690D01*
X148870801Y-94646760D01*
X148950347Y-94687290D01*
X149039163Y-94732545D01*
X149039165Y-94732545D01*
X149039168Y-94732547D01*
X149135497Y-94763846D01*
X149218881Y-94790940D01*
X149405514Y-94820500D01*
X149405519Y-94820500D01*
X149594486Y-94820500D01*
X149781118Y-94790940D01*
X149960832Y-94732547D01*
X150129199Y-94646760D01*
X150282073Y-94535690D01*
X150415690Y-94402073D01*
X150526760Y-94249199D01*
X150612547Y-94080832D01*
X150670940Y-93901118D01*
X150685413Y-93809738D01*
X150700500Y-93714486D01*
X150700500Y-93684071D01*
X175849499Y-93684071D01*
X175874497Y-93809738D01*
X175874499Y-93809744D01*
X175923533Y-93928124D01*
X175923538Y-93928133D01*
X175994723Y-94034668D01*
X175994726Y-94034672D01*
X176085327Y-94125273D01*
X176085331Y-94125276D01*
X176191866Y-94196461D01*
X176191872Y-94196464D01*
X176191873Y-94196465D01*
X176310256Y-94245501D01*
X176310260Y-94245501D01*
X176310261Y-94245502D01*
X176435928Y-94270500D01*
X176435931Y-94270500D01*
X176564071Y-94270500D01*
X176671153Y-94249199D01*
X176689744Y-94245501D01*
X176808127Y-94196465D01*
X176914669Y-94125276D01*
X177005276Y-94034669D01*
X177076465Y-93928127D01*
X177125501Y-93809744D01*
X177150500Y-93684069D01*
X177150500Y-93555931D01*
X177150500Y-93555928D01*
X177125502Y-93430261D01*
X177125501Y-93430260D01*
X177125501Y-93430256D01*
X177076465Y-93311873D01*
X177076464Y-93311872D01*
X177076461Y-93311866D01*
X177005276Y-93205331D01*
X177005273Y-93205327D01*
X176914672Y-93114726D01*
X176914668Y-93114723D01*
X176808133Y-93043538D01*
X176808124Y-93043533D01*
X176689744Y-92994499D01*
X176689738Y-92994497D01*
X176564071Y-92969500D01*
X176564069Y-92969500D01*
X176435931Y-92969500D01*
X176435929Y-92969500D01*
X176310261Y-92994497D01*
X176310255Y-92994499D01*
X176191875Y-93043533D01*
X176191866Y-93043538D01*
X176085331Y-93114723D01*
X176085327Y-93114726D01*
X175994726Y-93205327D01*
X175994723Y-93205331D01*
X175923538Y-93311866D01*
X175923533Y-93311875D01*
X175874499Y-93430255D01*
X175874497Y-93430261D01*
X175849500Y-93555928D01*
X175849500Y-93555931D01*
X175849500Y-93684069D01*
X175849500Y-93684071D01*
X175849499Y-93684071D01*
X150700500Y-93684071D01*
X150700500Y-93525513D01*
X150670940Y-93338881D01*
X150612545Y-93159163D01*
X150582189Y-93099588D01*
X150564092Y-93064071D01*
X160149499Y-93064071D01*
X160174497Y-93189738D01*
X160174499Y-93189744D01*
X160223533Y-93308124D01*
X160223538Y-93308133D01*
X160294723Y-93414668D01*
X160294726Y-93414672D01*
X160385327Y-93505273D01*
X160385331Y-93505276D01*
X160491866Y-93576461D01*
X160491872Y-93576464D01*
X160491873Y-93576465D01*
X160610256Y-93625501D01*
X160610260Y-93625501D01*
X160610261Y-93625502D01*
X160735928Y-93650500D01*
X160735931Y-93650500D01*
X160864071Y-93650500D01*
X160948615Y-93633682D01*
X160989744Y-93625501D01*
X161108127Y-93576465D01*
X161214669Y-93505276D01*
X161214672Y-93505273D01*
X161257788Y-93462158D01*
X161305273Y-93414672D01*
X161305276Y-93414669D01*
X161376465Y-93308127D01*
X161425501Y-93189744D01*
X161436677Y-93133561D01*
X161450500Y-93064071D01*
X161450500Y-92935928D01*
X161425502Y-92810261D01*
X161425501Y-92810260D01*
X161425501Y-92810256D01*
X161387574Y-92718692D01*
X161376466Y-92691875D01*
X161376461Y-92691866D01*
X161305276Y-92585331D01*
X161305273Y-92585327D01*
X161214672Y-92494726D01*
X161214668Y-92494723D01*
X161108133Y-92423538D01*
X161108124Y-92423533D01*
X160989744Y-92374499D01*
X160989738Y-92374497D01*
X160864071Y-92349500D01*
X160864069Y-92349500D01*
X160735931Y-92349500D01*
X160735929Y-92349500D01*
X160610261Y-92374497D01*
X160610255Y-92374499D01*
X160491875Y-92423533D01*
X160491866Y-92423538D01*
X160385331Y-92494723D01*
X160385327Y-92494726D01*
X160294726Y-92585327D01*
X160294723Y-92585331D01*
X160223538Y-92691866D01*
X160223533Y-92691875D01*
X160174499Y-92810255D01*
X160174497Y-92810261D01*
X160149500Y-92935928D01*
X160149500Y-92935931D01*
X160149500Y-93064069D01*
X160149500Y-93064071D01*
X160149499Y-93064071D01*
X150564092Y-93064071D01*
X150526760Y-92990801D01*
X150415690Y-92837927D01*
X150282073Y-92704310D01*
X150129199Y-92593240D01*
X150113669Y-92585327D01*
X149960836Y-92507454D01*
X149886472Y-92483291D01*
X149839195Y-92467930D01*
X149781521Y-92428493D01*
X149754323Y-92364134D01*
X149766238Y-92295288D01*
X149813482Y-92243812D01*
X149839194Y-92232069D01*
X149960832Y-92192547D01*
X150129199Y-92106760D01*
X150282073Y-91995690D01*
X150415690Y-91862073D01*
X150526760Y-91709199D01*
X150612547Y-91540832D01*
X150670940Y-91361118D01*
X150700500Y-91174486D01*
X150700500Y-90985513D01*
X150670940Y-90798881D01*
X150612545Y-90619163D01*
X150526759Y-90450800D01*
X150415690Y-90297927D01*
X150282073Y-90164310D01*
X150129199Y-90053240D01*
X149960836Y-89967454D01*
X149886472Y-89943291D01*
X149839195Y-89927930D01*
X149781521Y-89888493D01*
X149754323Y-89824134D01*
X149766238Y-89755288D01*
X149813482Y-89703812D01*
X149839194Y-89692069D01*
X149960832Y-89652547D01*
X150129199Y-89566760D01*
X150282073Y-89455690D01*
X150337819Y-89399944D01*
X150399142Y-89366459D01*
X150468834Y-89371443D01*
X150524767Y-89413315D01*
X150549184Y-89478779D01*
X150549500Y-89487625D01*
X150549500Y-89564069D01*
X150549500Y-89564071D01*
X150549499Y-89564071D01*
X150574497Y-89689738D01*
X150574499Y-89689744D01*
X150623533Y-89808124D01*
X150623538Y-89808133D01*
X150694723Y-89914668D01*
X150694726Y-89914672D01*
X150785327Y-90005273D01*
X150785331Y-90005276D01*
X150891866Y-90076461D01*
X150891872Y-90076464D01*
X150891873Y-90076465D01*
X151010256Y-90125501D01*
X151010260Y-90125501D01*
X151010261Y-90125502D01*
X151135928Y-90150500D01*
X151135931Y-90150500D01*
X151264071Y-90150500D01*
X151348615Y-90133682D01*
X151389744Y-90125501D01*
X151508127Y-90076465D01*
X151614669Y-90005276D01*
X151705276Y-89914669D01*
X151776465Y-89808127D01*
X151825501Y-89689744D01*
X151850500Y-89564069D01*
X151850500Y-89435931D01*
X151850500Y-89435928D01*
X151825502Y-89310261D01*
X151825501Y-89310260D01*
X151825501Y-89310256D01*
X151776465Y-89191873D01*
X151761108Y-89168890D01*
X151740230Y-89102215D01*
X151758714Y-89034835D01*
X151761109Y-89031108D01*
X151776465Y-89008127D01*
X151825501Y-88889744D01*
X151830608Y-88864071D01*
X153949499Y-88864071D01*
X153974497Y-88989738D01*
X153974499Y-88989744D01*
X154023533Y-89108124D01*
X154023541Y-89108138D01*
X154072299Y-89181110D01*
X154093177Y-89247787D01*
X154074692Y-89315167D01*
X154072299Y-89318890D01*
X154023541Y-89391861D01*
X154023533Y-89391875D01*
X153974499Y-89510255D01*
X153974497Y-89510261D01*
X153949500Y-89635928D01*
X153949500Y-89635931D01*
X153949500Y-89764069D01*
X153949500Y-89764071D01*
X153949499Y-89764071D01*
X153974497Y-89889738D01*
X153974499Y-89889744D01*
X154023533Y-90008124D01*
X154023538Y-90008133D01*
X154094723Y-90114668D01*
X154094726Y-90114672D01*
X154185327Y-90205273D01*
X154185331Y-90205276D01*
X154291866Y-90276461D01*
X154291872Y-90276464D01*
X154291873Y-90276465D01*
X154410256Y-90325501D01*
X154410260Y-90325501D01*
X154410261Y-90325502D01*
X154535928Y-90350500D01*
X154535931Y-90350500D01*
X154664071Y-90350500D01*
X154748615Y-90333682D01*
X154789744Y-90325501D01*
X154908127Y-90276465D01*
X155014669Y-90205276D01*
X155105276Y-90114669D01*
X155176465Y-90008127D01*
X155225501Y-89889744D01*
X155250500Y-89764069D01*
X155250500Y-89635931D01*
X155250500Y-89635928D01*
X155225502Y-89510261D01*
X155225501Y-89510260D01*
X155225501Y-89510256D01*
X155176465Y-89391873D01*
X155127699Y-89318890D01*
X155106822Y-89252214D01*
X155125306Y-89184834D01*
X155127700Y-89181109D01*
X155138685Y-89164669D01*
X155176465Y-89108127D01*
X155225501Y-88989744D01*
X155250500Y-88864069D01*
X155250500Y-88814071D01*
X157449499Y-88814071D01*
X157474497Y-88939738D01*
X157474499Y-88939744D01*
X157523533Y-89058124D01*
X157523537Y-89058131D01*
X157555595Y-89106110D01*
X157576472Y-89172788D01*
X157557987Y-89240168D01*
X157555595Y-89243890D01*
X157523537Y-89291868D01*
X157523533Y-89291875D01*
X157474499Y-89410255D01*
X157474497Y-89410261D01*
X157449500Y-89535928D01*
X157449500Y-89535931D01*
X157449500Y-89664069D01*
X157449500Y-89664071D01*
X157449499Y-89664071D01*
X157474497Y-89789738D01*
X157474499Y-89789744D01*
X157523533Y-89908124D01*
X157523538Y-89908133D01*
X157594723Y-90014668D01*
X157594726Y-90014672D01*
X157685327Y-90105273D01*
X157685331Y-90105276D01*
X157791866Y-90176461D01*
X157791872Y-90176464D01*
X157791873Y-90176465D01*
X157910256Y-90225501D01*
X157910260Y-90225501D01*
X157910261Y-90225502D01*
X158035928Y-90250500D01*
X158035931Y-90250500D01*
X158164071Y-90250500D01*
X158248615Y-90233682D01*
X158289744Y-90225501D01*
X158408127Y-90176465D01*
X158514669Y-90105276D01*
X158605276Y-90014669D01*
X158676465Y-89908127D01*
X158725501Y-89789744D01*
X158741177Y-89710940D01*
X158750500Y-89664071D01*
X158750500Y-89535928D01*
X158725502Y-89410261D01*
X158725501Y-89410260D01*
X158725501Y-89410256D01*
X158676465Y-89291873D01*
X158676462Y-89291868D01*
X158676461Y-89291866D01*
X158644405Y-89243891D01*
X158623527Y-89177213D01*
X158642011Y-89109833D01*
X158644405Y-89106109D01*
X158676461Y-89058133D01*
X158676462Y-89058131D01*
X158676465Y-89058127D01*
X158725501Y-88939744D01*
X158750500Y-88814069D01*
X158750500Y-88685931D01*
X158750500Y-88685928D01*
X158725502Y-88560261D01*
X158725501Y-88560260D01*
X158725501Y-88560256D01*
X158676465Y-88441873D01*
X158676464Y-88441872D01*
X158676461Y-88441866D01*
X158605276Y-88335331D01*
X158605273Y-88335327D01*
X158514672Y-88244726D01*
X158514668Y-88244723D01*
X158408133Y-88173538D01*
X158408124Y-88173533D01*
X158289744Y-88124499D01*
X158289738Y-88124497D01*
X158164071Y-88099500D01*
X158164069Y-88099500D01*
X158035931Y-88099500D01*
X158035929Y-88099500D01*
X157910261Y-88124497D01*
X157910255Y-88124499D01*
X157791875Y-88173533D01*
X157791866Y-88173538D01*
X157685331Y-88244723D01*
X157685327Y-88244726D01*
X157594726Y-88335327D01*
X157594723Y-88335331D01*
X157523538Y-88441866D01*
X157523533Y-88441875D01*
X157474499Y-88560255D01*
X157474497Y-88560261D01*
X157449500Y-88685928D01*
X157449500Y-88685931D01*
X157449500Y-88814069D01*
X157449500Y-88814071D01*
X157449499Y-88814071D01*
X155250500Y-88814071D01*
X155250500Y-88735931D01*
X155250500Y-88735928D01*
X155244155Y-88704031D01*
X155225502Y-88610261D01*
X155225501Y-88610260D01*
X155225501Y-88610256D01*
X155176465Y-88491873D01*
X155176464Y-88491872D01*
X155176461Y-88491866D01*
X155105276Y-88385331D01*
X155105273Y-88385327D01*
X155014672Y-88294726D01*
X155014668Y-88294723D01*
X154908133Y-88223538D01*
X154908124Y-88223533D01*
X154789744Y-88174499D01*
X154789738Y-88174497D01*
X154664071Y-88149500D01*
X154664069Y-88149500D01*
X154535931Y-88149500D01*
X154535929Y-88149500D01*
X154410261Y-88174497D01*
X154410255Y-88174499D01*
X154291875Y-88223533D01*
X154291866Y-88223538D01*
X154185331Y-88294723D01*
X154185327Y-88294726D01*
X154094726Y-88385327D01*
X154094723Y-88385331D01*
X154023538Y-88491866D01*
X154023533Y-88491875D01*
X153974499Y-88610255D01*
X153974497Y-88610261D01*
X153949500Y-88735928D01*
X153949500Y-88735931D01*
X153949500Y-88864069D01*
X153949500Y-88864071D01*
X153949499Y-88864071D01*
X151830608Y-88864071D01*
X151850500Y-88764069D01*
X151850500Y-88635931D01*
X151850500Y-88635928D01*
X151825502Y-88510261D01*
X151825501Y-88510260D01*
X151825501Y-88510256D01*
X151776465Y-88391873D01*
X151776464Y-88391872D01*
X151776461Y-88391866D01*
X151705276Y-88285331D01*
X151705273Y-88285327D01*
X151614672Y-88194726D01*
X151614668Y-88194723D01*
X151508133Y-88123538D01*
X151508124Y-88123533D01*
X151389744Y-88074499D01*
X151389738Y-88074497D01*
X151264071Y-88049500D01*
X151264069Y-88049500D01*
X151135931Y-88049500D01*
X151135929Y-88049500D01*
X151010261Y-88074497D01*
X151010255Y-88074499D01*
X150891875Y-88123533D01*
X150891868Y-88123537D01*
X150810417Y-88177961D01*
X150743739Y-88198838D01*
X150676359Y-88180353D01*
X150629670Y-88128374D01*
X150623599Y-88113183D01*
X150612547Y-88079168D01*
X150526760Y-87910801D01*
X150415690Y-87757927D01*
X150282073Y-87624310D01*
X150129199Y-87513240D01*
X149960836Y-87427454D01*
X149781118Y-87369059D01*
X149594486Y-87339500D01*
X149594481Y-87339500D01*
X149405519Y-87339500D01*
X149405514Y-87339500D01*
X149218881Y-87369059D01*
X149039163Y-87427454D01*
X148870800Y-87513240D01*
X148783579Y-87576610D01*
X148717927Y-87624310D01*
X148717925Y-87624312D01*
X148717924Y-87624312D01*
X148612181Y-87730056D01*
X148550858Y-87763541D01*
X148481166Y-87758557D01*
X148425233Y-87716685D01*
X148400816Y-87651221D01*
X148400500Y-87642375D01*
X148400500Y-81814071D01*
X157599499Y-81814071D01*
X157624497Y-81939738D01*
X157624499Y-81939744D01*
X157673533Y-82058124D01*
X157673538Y-82058133D01*
X157744723Y-82164668D01*
X157744726Y-82164672D01*
X157835327Y-82255273D01*
X157835331Y-82255276D01*
X157941866Y-82326461D01*
X157941872Y-82326464D01*
X157941873Y-82326465D01*
X158060256Y-82375501D01*
X158060260Y-82375501D01*
X158060261Y-82375502D01*
X158185928Y-82400500D01*
X158185931Y-82400500D01*
X158314071Y-82400500D01*
X158398615Y-82383682D01*
X158439744Y-82375501D01*
X158558127Y-82326465D01*
X158664669Y-82255276D01*
X158755276Y-82164669D01*
X158826465Y-82058127D01*
X158875501Y-81939744D01*
X158900500Y-81814071D01*
X161099499Y-81814071D01*
X161124497Y-81939738D01*
X161124499Y-81939744D01*
X161173533Y-82058124D01*
X161173538Y-82058133D01*
X161244723Y-82164668D01*
X161244726Y-82164672D01*
X161335327Y-82255273D01*
X161335331Y-82255276D01*
X161441866Y-82326461D01*
X161441872Y-82326464D01*
X161441873Y-82326465D01*
X161560256Y-82375501D01*
X161560260Y-82375501D01*
X161560261Y-82375502D01*
X161685928Y-82400500D01*
X161685931Y-82400500D01*
X161814071Y-82400500D01*
X161898615Y-82383682D01*
X161939744Y-82375501D01*
X162058127Y-82326465D01*
X162164669Y-82255276D01*
X162255276Y-82164669D01*
X162326465Y-82058127D01*
X162375501Y-81939744D01*
X162400500Y-81814069D01*
X162400500Y-81685931D01*
X162400500Y-81685928D01*
X162375502Y-81560261D01*
X162375501Y-81560260D01*
X162375501Y-81560256D01*
X162326465Y-81441873D01*
X162326464Y-81441872D01*
X162326461Y-81441866D01*
X162255276Y-81335331D01*
X162255273Y-81335327D01*
X162164672Y-81244726D01*
X162164668Y-81244723D01*
X162058133Y-81173538D01*
X162058124Y-81173533D01*
X162035280Y-81164071D01*
X175249499Y-81164071D01*
X175274497Y-81289738D01*
X175274499Y-81289744D01*
X175323533Y-81408124D01*
X175323538Y-81408133D01*
X175394723Y-81514668D01*
X175394726Y-81514672D01*
X175485327Y-81605273D01*
X175485331Y-81605276D01*
X175591866Y-81676461D01*
X175591872Y-81676464D01*
X175591873Y-81676465D01*
X175710256Y-81725501D01*
X175710260Y-81725501D01*
X175710261Y-81725502D01*
X175835928Y-81750500D01*
X175835931Y-81750500D01*
X175964071Y-81750500D01*
X176048615Y-81733682D01*
X176089744Y-81725501D01*
X176208127Y-81676465D01*
X176314669Y-81605276D01*
X176405276Y-81514669D01*
X176476465Y-81408127D01*
X176525501Y-81289744D01*
X176534456Y-81244723D01*
X176550500Y-81164071D01*
X176550500Y-81035928D01*
X176525502Y-80910261D01*
X176525501Y-80910260D01*
X176525501Y-80910256D01*
X176476465Y-80791873D01*
X176476464Y-80791872D01*
X176476461Y-80791866D01*
X176405276Y-80685331D01*
X176405273Y-80685327D01*
X176314672Y-80594726D01*
X176314668Y-80594723D01*
X176208133Y-80523538D01*
X176208124Y-80523533D01*
X176089744Y-80474499D01*
X176089738Y-80474497D01*
X175964071Y-80449500D01*
X175964069Y-80449500D01*
X175835931Y-80449500D01*
X175835929Y-80449500D01*
X175710261Y-80474497D01*
X175710255Y-80474499D01*
X175591875Y-80523533D01*
X175591866Y-80523538D01*
X175485331Y-80594723D01*
X175485327Y-80594726D01*
X175394726Y-80685327D01*
X175394723Y-80685331D01*
X175323538Y-80791866D01*
X175323533Y-80791875D01*
X175274499Y-80910255D01*
X175274497Y-80910261D01*
X175249500Y-81035928D01*
X175249500Y-81035931D01*
X175249500Y-81164069D01*
X175249500Y-81164071D01*
X175249499Y-81164071D01*
X162035280Y-81164071D01*
X161987789Y-81144400D01*
X161939744Y-81124499D01*
X161939738Y-81124497D01*
X161814071Y-81099500D01*
X161814069Y-81099500D01*
X161685931Y-81099500D01*
X161685929Y-81099500D01*
X161560261Y-81124497D01*
X161560255Y-81124499D01*
X161441875Y-81173533D01*
X161441866Y-81173538D01*
X161335331Y-81244723D01*
X161335327Y-81244726D01*
X161244726Y-81335327D01*
X161244723Y-81335331D01*
X161173538Y-81441866D01*
X161173533Y-81441875D01*
X161124499Y-81560255D01*
X161124497Y-81560261D01*
X161099500Y-81685928D01*
X161099500Y-81685931D01*
X161099500Y-81814069D01*
X161099500Y-81814071D01*
X161099499Y-81814071D01*
X158900500Y-81814071D01*
X158900500Y-81814069D01*
X158900500Y-81685931D01*
X158900500Y-81685928D01*
X158875502Y-81560261D01*
X158875501Y-81560260D01*
X158875501Y-81560256D01*
X158826465Y-81441873D01*
X158826464Y-81441872D01*
X158826461Y-81441866D01*
X158755276Y-81335331D01*
X158755273Y-81335327D01*
X158664672Y-81244726D01*
X158664668Y-81244723D01*
X158558133Y-81173538D01*
X158558124Y-81173533D01*
X158439744Y-81124499D01*
X158439738Y-81124497D01*
X158314071Y-81099500D01*
X158314069Y-81099500D01*
X158185931Y-81099500D01*
X158185929Y-81099500D01*
X158060261Y-81124497D01*
X158060255Y-81124499D01*
X157941875Y-81173533D01*
X157941866Y-81173538D01*
X157835331Y-81244723D01*
X157835327Y-81244726D01*
X157744726Y-81335327D01*
X157744723Y-81335331D01*
X157673538Y-81441866D01*
X157673533Y-81441875D01*
X157624499Y-81560255D01*
X157624497Y-81560261D01*
X157599500Y-81685928D01*
X157599500Y-81685931D01*
X157599500Y-81814069D01*
X157599500Y-81814071D01*
X157599499Y-81814071D01*
X148400500Y-81814071D01*
X148400500Y-80059071D01*
X159449497Y-80059071D01*
X159474495Y-80184738D01*
X159474497Y-80184744D01*
X159523531Y-80303124D01*
X159523536Y-80303133D01*
X159594721Y-80409668D01*
X159594724Y-80409672D01*
X159685325Y-80500273D01*
X159685329Y-80500276D01*
X159791864Y-80571461D01*
X159791870Y-80571464D01*
X159791871Y-80571465D01*
X159910254Y-80620501D01*
X159910258Y-80620501D01*
X159910259Y-80620502D01*
X160035926Y-80645500D01*
X160035929Y-80645500D01*
X160164069Y-80645500D01*
X160248613Y-80628682D01*
X160289742Y-80620501D01*
X160408125Y-80571465D01*
X160514667Y-80500276D01*
X160605274Y-80409669D01*
X160676463Y-80303127D01*
X160725499Y-80184744D01*
X160739438Y-80114669D01*
X160750498Y-80059071D01*
X160750498Y-79930928D01*
X160725500Y-79805261D01*
X160725499Y-79805260D01*
X160725499Y-79805256D01*
X160676463Y-79686873D01*
X160676462Y-79686872D01*
X160676459Y-79686866D01*
X160605274Y-79580331D01*
X160605271Y-79580327D01*
X160514670Y-79489726D01*
X160514666Y-79489723D01*
X160408131Y-79418538D01*
X160408122Y-79418533D01*
X160289742Y-79369499D01*
X160289736Y-79369497D01*
X160262458Y-79364071D01*
X175249499Y-79364071D01*
X175274497Y-79489738D01*
X175274499Y-79489744D01*
X175323533Y-79608124D01*
X175323538Y-79608133D01*
X175394723Y-79714668D01*
X175394726Y-79714672D01*
X175485327Y-79805273D01*
X175485331Y-79805276D01*
X175591866Y-79876461D01*
X175591872Y-79876464D01*
X175591873Y-79876465D01*
X175710256Y-79925501D01*
X175710260Y-79925501D01*
X175710261Y-79925502D01*
X175835928Y-79950500D01*
X175835931Y-79950500D01*
X175964071Y-79950500D01*
X176062461Y-79930928D01*
X176089744Y-79925501D01*
X176208127Y-79876465D01*
X176314669Y-79805276D01*
X176355874Y-79764071D01*
X181449499Y-79764071D01*
X181474497Y-79889738D01*
X181474499Y-79889744D01*
X181523533Y-80008124D01*
X181523538Y-80008133D01*
X181594723Y-80114668D01*
X181594726Y-80114672D01*
X181685327Y-80205273D01*
X181685331Y-80205276D01*
X181791866Y-80276461D01*
X181791872Y-80276464D01*
X181791873Y-80276465D01*
X181910256Y-80325501D01*
X181910260Y-80325501D01*
X181910261Y-80325502D01*
X182035928Y-80350500D01*
X182035931Y-80350500D01*
X182164071Y-80350500D01*
X182248615Y-80333682D01*
X182289744Y-80325501D01*
X182408127Y-80276465D01*
X182514669Y-80205276D01*
X182605276Y-80114669D01*
X182676465Y-80008127D01*
X182725501Y-79889744D01*
X182742307Y-79805256D01*
X182750500Y-79764071D01*
X182750500Y-79635928D01*
X182725502Y-79510261D01*
X182725501Y-79510260D01*
X182725501Y-79510256D01*
X182676465Y-79391873D01*
X182676464Y-79391872D01*
X182676461Y-79391866D01*
X182605276Y-79285331D01*
X182605273Y-79285327D01*
X182514672Y-79194726D01*
X182514668Y-79194723D01*
X182408133Y-79123538D01*
X182408124Y-79123533D01*
X182289744Y-79074499D01*
X182289738Y-79074497D01*
X182164071Y-79049500D01*
X182164069Y-79049500D01*
X182035931Y-79049500D01*
X182035929Y-79049500D01*
X181910261Y-79074497D01*
X181910255Y-79074499D01*
X181791875Y-79123533D01*
X181791866Y-79123538D01*
X181685331Y-79194723D01*
X181685327Y-79194726D01*
X181594726Y-79285327D01*
X181594723Y-79285331D01*
X181523538Y-79391866D01*
X181523533Y-79391875D01*
X181474499Y-79510255D01*
X181474497Y-79510261D01*
X181449500Y-79635928D01*
X181449500Y-79635931D01*
X181449500Y-79764069D01*
X181449500Y-79764071D01*
X181449499Y-79764071D01*
X176355874Y-79764071D01*
X176405276Y-79714669D01*
X176476465Y-79608127D01*
X176525501Y-79489744D01*
X176544969Y-79391875D01*
X176550500Y-79364071D01*
X176550500Y-79235928D01*
X176525502Y-79110261D01*
X176525501Y-79110260D01*
X176525501Y-79110256D01*
X176476465Y-78991873D01*
X176476464Y-78991872D01*
X176476461Y-78991866D01*
X176405276Y-78885331D01*
X176405273Y-78885327D01*
X176314672Y-78794726D01*
X176314668Y-78794723D01*
X176208133Y-78723538D01*
X176208124Y-78723533D01*
X176089744Y-78674499D01*
X176089738Y-78674497D01*
X175964071Y-78649500D01*
X175964069Y-78649500D01*
X175835931Y-78649500D01*
X175835929Y-78649500D01*
X175710261Y-78674497D01*
X175710255Y-78674499D01*
X175591875Y-78723533D01*
X175591866Y-78723538D01*
X175485331Y-78794723D01*
X175485327Y-78794726D01*
X175394726Y-78885327D01*
X175394723Y-78885331D01*
X175323538Y-78991866D01*
X175323533Y-78991875D01*
X175274499Y-79110255D01*
X175274497Y-79110261D01*
X175249500Y-79235928D01*
X175249500Y-79235931D01*
X175249500Y-79364069D01*
X175249500Y-79364071D01*
X175249499Y-79364071D01*
X160262458Y-79364071D01*
X160199038Y-79351456D01*
X160164069Y-79344500D01*
X160164067Y-79344500D01*
X160035929Y-79344500D01*
X160035927Y-79344500D01*
X159910259Y-79369497D01*
X159910253Y-79369499D01*
X159791873Y-79418533D01*
X159791864Y-79418538D01*
X159685329Y-79489723D01*
X159685325Y-79489726D01*
X159594724Y-79580327D01*
X159594721Y-79580331D01*
X159523536Y-79686866D01*
X159523531Y-79686875D01*
X159474497Y-79805255D01*
X159474495Y-79805261D01*
X159449498Y-79930928D01*
X159449498Y-79930931D01*
X159449498Y-80059069D01*
X159449498Y-80059071D01*
X159449497Y-80059071D01*
X148400500Y-80059071D01*
X148400500Y-79919500D01*
X148420185Y-79852461D01*
X148472989Y-79806706D01*
X148524500Y-79795500D01*
X150278261Y-79795500D01*
X150300971Y-79792191D01*
X150346393Y-79785573D01*
X150451483Y-79734198D01*
X150534198Y-79651483D01*
X150585573Y-79546393D01*
X150595500Y-79478260D01*
X150595500Y-78064071D01*
X157599499Y-78064071D01*
X157624497Y-78189738D01*
X157624499Y-78189744D01*
X157673533Y-78308124D01*
X157673538Y-78308133D01*
X157744723Y-78414668D01*
X157744726Y-78414672D01*
X157835327Y-78505273D01*
X157835331Y-78505276D01*
X157941866Y-78576461D01*
X157941872Y-78576464D01*
X157941873Y-78576465D01*
X158060256Y-78625501D01*
X158060260Y-78625501D01*
X158060261Y-78625502D01*
X158185928Y-78650500D01*
X158185931Y-78650500D01*
X158314071Y-78650500D01*
X158398615Y-78633682D01*
X158439744Y-78625501D01*
X158558127Y-78576465D01*
X158664669Y-78505276D01*
X158755276Y-78414669D01*
X158826465Y-78308127D01*
X158875501Y-78189744D01*
X158900500Y-78064071D01*
X161099499Y-78064071D01*
X161124497Y-78189738D01*
X161124499Y-78189744D01*
X161173533Y-78308124D01*
X161173538Y-78308133D01*
X161244723Y-78414668D01*
X161244726Y-78414672D01*
X161335327Y-78505273D01*
X161335331Y-78505276D01*
X161441866Y-78576461D01*
X161441872Y-78576464D01*
X161441873Y-78576465D01*
X161560256Y-78625501D01*
X161560260Y-78625501D01*
X161560261Y-78625502D01*
X161685928Y-78650500D01*
X161685931Y-78650500D01*
X161814071Y-78650500D01*
X161898615Y-78633682D01*
X161939744Y-78625501D01*
X162058127Y-78576465D01*
X162164669Y-78505276D01*
X162255276Y-78414669D01*
X162326465Y-78308127D01*
X162375501Y-78189744D01*
X162400500Y-78064071D01*
X181449499Y-78064071D01*
X181474497Y-78189738D01*
X181474499Y-78189744D01*
X181523533Y-78308124D01*
X181523538Y-78308133D01*
X181594723Y-78414668D01*
X181594726Y-78414672D01*
X181685327Y-78505273D01*
X181685331Y-78505276D01*
X181791866Y-78576461D01*
X181791872Y-78576464D01*
X181791873Y-78576465D01*
X181910256Y-78625501D01*
X181910260Y-78625501D01*
X181910261Y-78625502D01*
X182035928Y-78650500D01*
X182035931Y-78650500D01*
X182164071Y-78650500D01*
X182248615Y-78633682D01*
X182289744Y-78625501D01*
X182408127Y-78576465D01*
X182514669Y-78505276D01*
X182605276Y-78414669D01*
X182676465Y-78308127D01*
X182725501Y-78189744D01*
X182750500Y-78064069D01*
X182750500Y-77935931D01*
X182750500Y-77935928D01*
X182725502Y-77810261D01*
X182725501Y-77810260D01*
X182725501Y-77810256D01*
X182676465Y-77691873D01*
X182676464Y-77691872D01*
X182676461Y-77691866D01*
X182605276Y-77585331D01*
X182605273Y-77585327D01*
X182514672Y-77494726D01*
X182514668Y-77494723D01*
X182408133Y-77423538D01*
X182408124Y-77423533D01*
X182289744Y-77374499D01*
X182289738Y-77374497D01*
X182164071Y-77349500D01*
X182164069Y-77349500D01*
X182035931Y-77349500D01*
X182035929Y-77349500D01*
X181910261Y-77374497D01*
X181910255Y-77374499D01*
X181791875Y-77423533D01*
X181791866Y-77423538D01*
X181685331Y-77494723D01*
X181685327Y-77494726D01*
X181594726Y-77585327D01*
X181594723Y-77585331D01*
X181523538Y-77691866D01*
X181523533Y-77691875D01*
X181474499Y-77810255D01*
X181474497Y-77810261D01*
X181449500Y-77935928D01*
X181449500Y-77935931D01*
X181449500Y-78064069D01*
X181449500Y-78064071D01*
X181449499Y-78064071D01*
X162400500Y-78064071D01*
X162400500Y-78064069D01*
X162400500Y-77935931D01*
X162400500Y-77935928D01*
X162375502Y-77810261D01*
X162375501Y-77810260D01*
X162375501Y-77810256D01*
X162326465Y-77691873D01*
X162326464Y-77691872D01*
X162326461Y-77691866D01*
X162255276Y-77585331D01*
X162255273Y-77585327D01*
X162164672Y-77494726D01*
X162164668Y-77494723D01*
X162058133Y-77423538D01*
X162058124Y-77423533D01*
X161939744Y-77374499D01*
X161939738Y-77374497D01*
X161814071Y-77349500D01*
X161814069Y-77349500D01*
X161685931Y-77349500D01*
X161685929Y-77349500D01*
X161560261Y-77374497D01*
X161560255Y-77374499D01*
X161441875Y-77423533D01*
X161441866Y-77423538D01*
X161335331Y-77494723D01*
X161335327Y-77494726D01*
X161244726Y-77585327D01*
X161244723Y-77585331D01*
X161173538Y-77691866D01*
X161173533Y-77691875D01*
X161124499Y-77810255D01*
X161124497Y-77810261D01*
X161099500Y-77935928D01*
X161099500Y-77935931D01*
X161099500Y-78064069D01*
X161099500Y-78064071D01*
X161099499Y-78064071D01*
X158900500Y-78064071D01*
X158900500Y-78064069D01*
X158900500Y-77935931D01*
X158900500Y-77935928D01*
X158875502Y-77810261D01*
X158875501Y-77810260D01*
X158875501Y-77810256D01*
X158826465Y-77691873D01*
X158826464Y-77691872D01*
X158826461Y-77691866D01*
X158755276Y-77585331D01*
X158755273Y-77585327D01*
X158664672Y-77494726D01*
X158664668Y-77494723D01*
X158558133Y-77423538D01*
X158558124Y-77423533D01*
X158439744Y-77374499D01*
X158439738Y-77374497D01*
X158314071Y-77349500D01*
X158314069Y-77349500D01*
X158185931Y-77349500D01*
X158185929Y-77349500D01*
X158060261Y-77374497D01*
X158060255Y-77374499D01*
X157941875Y-77423533D01*
X157941866Y-77423538D01*
X157835331Y-77494723D01*
X157835327Y-77494726D01*
X157744726Y-77585327D01*
X157744723Y-77585331D01*
X157673538Y-77691866D01*
X157673533Y-77691875D01*
X157624499Y-77810255D01*
X157624497Y-77810261D01*
X157599500Y-77935928D01*
X157599500Y-77935931D01*
X157599500Y-78064069D01*
X157599500Y-78064071D01*
X157599499Y-78064071D01*
X150595500Y-78064071D01*
X150595500Y-77711740D01*
X150585573Y-77643607D01*
X150534198Y-77538517D01*
X150534196Y-77538515D01*
X150534196Y-77538514D01*
X150451485Y-77455803D01*
X150346391Y-77404426D01*
X150278261Y-77394500D01*
X150278260Y-77394500D01*
X148783385Y-77394500D01*
X148716346Y-77374815D01*
X148670591Y-77322011D01*
X148660647Y-77252853D01*
X148689672Y-77189297D01*
X148724928Y-77161144D01*
X148821549Y-77109499D01*
X148843990Y-77100203D01*
X148951856Y-77067483D01*
X148975682Y-77062744D01*
X149075730Y-77052890D01*
X149093940Y-77051097D01*
X149106093Y-77050500D01*
X149147594Y-77050500D01*
X183752406Y-77050500D01*
X183793907Y-77050500D01*
X183806061Y-77051097D01*
G37*
%TD.AperFunction*%
%TD*%
M02*
