%TF.GenerationSoftware,KiCad,Pcbnew,10.0.0*%
%TF.CreationDate,2026-04-06T22:01:44-07:00*%
%TF.ProjectId,TPS922055 Module,54505339-3232-4303-9535-204d6f64756c,rev?*%
%TF.SameCoordinates,Original*%
%TF.FileFunction,Copper,L1,Top*%
%TF.FilePolarity,Positive*%
%FSLAX46Y46*%
G04 Gerber Fmt 4.6, Leading zero omitted, Abs format (unit mm)*
G04 Created by KiCad (PCBNEW 10.0.0) date 2026-04-06 22:01:44*
%MOMM*%
%LPD*%
G01*
G04 APERTURE LIST*
G04 Aperture macros list*
%AMRoundRect*
0 Rectangle with rounded corners*
0 $1 Rounding radius*
0 $2 $3 $4 $5 $6 $7 $8 $9 X,Y pos of 4 corners*
0 Add a 4 corners polygon primitive as box body*
4,1,4,$2,$3,$4,$5,$6,$7,$8,$9,$2,$3,0*
0 Add four circle primitives for the rounded corners*
1,1,$1+$1,$2,$3*
1,1,$1+$1,$4,$5*
1,1,$1+$1,$6,$7*
1,1,$1+$1,$8,$9*
0 Add four rect primitives between the rounded corners*
20,1,$1+$1,$2,$3,$4,$5,0*
20,1,$1+$1,$4,$5,$6,$7,0*
20,1,$1+$1,$6,$7,$8,$9,0*
20,1,$1+$1,$8,$9,$2,$3,0*%
%AMFreePoly0*
4,1,5,0.800000,-2.100000,-0.800000,-2.100000,-0.800000,2.100000,0.800000,2.100000,0.800000,-2.100000,0.800000,-2.100000,$1*%
G04 Aperture macros list end*
%TA.AperFunction,SMDPad,CuDef*%
%ADD10RoundRect,0.249998X-1.550002X-1.550002X1.550002X-1.550002X1.550002X1.550002X-1.550002X1.550002X0*%
%TD*%
%TA.AperFunction,SMDPad,CuDef*%
%ADD11RoundRect,0.250000X-1.100000X0.325000X-1.100000X-0.325000X1.100000X-0.325000X1.100000X0.325000X0*%
%TD*%
%TA.AperFunction,SMDPad,CuDef*%
%ADD12RoundRect,0.250000X-0.475000X0.250000X-0.475000X-0.250000X0.475000X-0.250000X0.475000X0.250000X0*%
%TD*%
%TA.AperFunction,SMDPad,CuDef*%
%ADD13RoundRect,0.200000X-0.200000X-0.275000X0.200000X-0.275000X0.200000X0.275000X-0.200000X0.275000X0*%
%TD*%
%TA.AperFunction,ComponentPad*%
%ADD14R,1.700000X1.700000*%
%TD*%
%TA.AperFunction,ComponentPad*%
%ADD15C,1.700000*%
%TD*%
%TA.AperFunction,SMDPad,CuDef*%
%ADD16RoundRect,0.250000X-0.325000X-1.100000X0.325000X-1.100000X0.325000X1.100000X-0.325000X1.100000X0*%
%TD*%
%TA.AperFunction,SMDPad,CuDef*%
%ADD17RoundRect,0.060000X-0.240000X-0.090000X0.240000X-0.090000X0.240000X0.090000X-0.240000X0.090000X0*%
%TD*%
%TA.AperFunction,SMDPad,CuDef*%
%ADD18RoundRect,0.050000X-0.250000X-0.075000X0.250000X-0.075000X0.250000X0.075000X-0.250000X0.075000X0*%
%TD*%
%TA.AperFunction,HeatsinkPad*%
%ADD19C,0.400000*%
%TD*%
%TA.AperFunction,HeatsinkPad*%
%ADD20FreePoly0,0.000000*%
%TD*%
%TA.AperFunction,SMDPad,CuDef*%
%ADD21RoundRect,0.250000X0.325000X1.100000X-0.325000X1.100000X-0.325000X-1.100000X0.325000X-1.100000X0*%
%TD*%
%TA.AperFunction,SMDPad,CuDef*%
%ADD22RoundRect,0.250000X-0.325000X-0.650000X0.325000X-0.650000X0.325000X0.650000X-0.325000X0.650000X0*%
%TD*%
%TA.AperFunction,SMDPad,CuDef*%
%ADD23RoundRect,0.250000X0.250000X0.475000X-0.250000X0.475000X-0.250000X-0.475000X0.250000X-0.475000X0*%
%TD*%
%TA.AperFunction,SMDPad,CuDef*%
%ADD24RoundRect,0.200000X0.200000X0.275000X-0.200000X0.275000X-0.200000X-0.275000X0.200000X-0.275000X0*%
%TD*%
%TA.AperFunction,SMDPad,CuDef*%
%ADD25RoundRect,0.317500X0.382500X0.317500X-0.382500X0.317500X-0.382500X-0.317500X0.382500X-0.317500X0*%
%TD*%
%TA.AperFunction,SMDPad,CuDef*%
%ADD26R,4.800000X4.720000*%
%TD*%
%TA.AperFunction,SMDPad,CuDef*%
%ADD27RoundRect,0.140000X0.170000X-0.140000X0.170000X0.140000X-0.170000X0.140000X-0.170000X-0.140000X0*%
%TD*%
%TA.AperFunction,SMDPad,CuDef*%
%ADD28RoundRect,0.250000X0.362500X1.425000X-0.362500X1.425000X-0.362500X-1.425000X0.362500X-1.425000X0*%
%TD*%
%TA.AperFunction,SMDPad,CuDef*%
%ADD29RoundRect,0.250000X2.450000X-0.650000X2.450000X0.650000X-2.450000X0.650000X-2.450000X-0.650000X0*%
%TD*%
%TA.AperFunction,ViaPad*%
%ADD30C,0.600000*%
%TD*%
%TA.AperFunction,Conductor*%
%ADD31C,0.300000*%
%TD*%
%TA.AperFunction,Conductor*%
%ADD32C,0.500000*%
%TD*%
%TA.AperFunction,Conductor*%
%ADD33C,1.000000*%
%TD*%
%TA.AperFunction,Conductor*%
%ADD34C,0.600000*%
%TD*%
%TA.AperFunction,Conductor*%
%ADD35C,0.250000*%
%TD*%
G04 APERTURE END LIST*
D10*
%TO.P,L2,1*%
%TO.N,Net-(D3-A)*%
X165100000Y-83000000D03*
%TO.P,L2,2*%
%TO.N,Net-(L2-Pad2)*%
X171500000Y-83000000D03*
%TD*%
D11*
%TO.P,C40,1*%
%TO.N,GND*%
X156200000Y-86250000D03*
%TO.P,C40,2*%
%TO.N,VCC*%
X156200000Y-89200000D03*
%TD*%
D12*
%TO.P,C12,1*%
%TO.N,GND*%
X159400000Y-87300000D03*
%TO.P,C12,2*%
%TO.N,VCC*%
X159400000Y-89200000D03*
%TD*%
D13*
%TO.P,R21,1*%
%TO.N,Net-(C23-Pad1)*%
X170425000Y-93800000D03*
%TO.P,R21,2*%
%TO.N,GND*%
X172075000Y-93800000D03*
%TD*%
%TO.P,R19,1*%
%TO.N,Net-(U1-FSET)*%
X170575000Y-92200000D03*
%TO.P,R19,2*%
%TO.N,GND*%
X172225000Y-92200000D03*
%TD*%
D14*
%TO.P,J1,1,Pin_1_1*%
%TO.N,GND*%
X149500000Y-86000000D03*
D15*
%TO.P,J1,2,Pin_2_2*%
%TO.N,VCC*%
X149500000Y-88540000D03*
%TO.P,J1,3,Pin_3_3*%
%TO.N,PWM_ADIM*%
X149500000Y-91080000D03*
%TO.P,J1,4,Pin_4_4*%
%TO.N,PWM_EN*%
X149500000Y-93620000D03*
%TD*%
D16*
%TO.P,C7,1*%
%TO.N,LED-*%
X180125000Y-80100000D03*
%TO.P,C7,2*%
%TO.N,VCC*%
X183075000Y-80100000D03*
%TD*%
D13*
%TO.P,R20,1*%
%TO.N,Net-(U1-COMP)*%
X167375000Y-92200000D03*
%TO.P,R20,2*%
%TO.N,Net-(C23-Pad1)*%
X169025000Y-92200000D03*
%TD*%
D17*
%TO.P,U1,1,GND_1*%
%TO.N,GND*%
X161150000Y-88665000D03*
%TO.P,U1,2,AGND_2*%
X161150000Y-89315000D03*
%TO.P,U1,3,VIN_3*%
%TO.N,VCC*%
X161150000Y-89965000D03*
%TO.P,U1,4,VCC_4*%
%TO.N,Net-(U1-VCC)*%
X161150000Y-90615000D03*
%TO.P,U1,5,ADIM/HD_5*%
%TO.N,PWM_ADIM*%
X161150000Y-91265000D03*
%TO.P,U1,6,EN/PWM_6*%
%TO.N,PWM_EN*%
X161150000Y-91915000D03*
%TO.P,U1,7,FAULT_7*%
%TO.N,/LED_FAULT*%
X161150000Y-92565000D03*
%TO.P,U1,8,TEMP_8*%
%TO.N,Net-(U1-TEMP)*%
X163950000Y-92565000D03*
%TO.P,U1,9,FSET_9*%
%TO.N,Net-(U1-FSET)*%
X163950000Y-91915000D03*
%TO.P,U1,10,COMP_10*%
%TO.N,Net-(U1-COMP)*%
X163950000Y-91265000D03*
D18*
%TO.P,U1,11,UVP_11*%
%TO.N,unconnected-(U1-UVP-Pad11)*%
X163950000Y-90615000D03*
D17*
%TO.P,U1,12,CSP_12*%
%TO.N,Net-(U1-CSP)*%
X163950000Y-89965000D03*
%TO.P,U1,13,CSN_13*%
%TO.N,Net-(U1-CSN)*%
X163950000Y-89315000D03*
%TO.P,U1,14,SW_14*%
%TO.N,Net-(D3-A)*%
X163950000Y-88665000D03*
D19*
%TO.P,U1,15,THERM_15*%
%TO.N,GND*%
X162000000Y-89925000D03*
X162000000Y-91305000D03*
X162050000Y-88815000D03*
X162050000Y-92415000D03*
D20*
X162550000Y-90615000D03*
D19*
X163050000Y-88815000D03*
X163050000Y-92415000D03*
X163100000Y-89915000D03*
X163100000Y-91305000D03*
%TD*%
D21*
%TO.P,C37,1*%
%TO.N,LED-*%
X178275000Y-80100000D03*
%TO.P,C37,2*%
%TO.N,VCC*%
X175325000Y-80100000D03*
%TD*%
D22*
%TO.P,C22,1*%
%TO.N,GND*%
X156025000Y-91500000D03*
%TO.P,C22,2*%
%TO.N,Net-(U1-VCC)*%
X158975000Y-91500000D03*
%TD*%
D23*
%TO.P,C19,1*%
%TO.N,LED-*%
X178550000Y-82900000D03*
%TO.P,C19,2*%
%TO.N,VCC*%
X176650000Y-82900000D03*
%TD*%
D11*
%TO.P,C42,1*%
%TO.N,GND*%
X153000000Y-86250000D03*
%TO.P,C42,2*%
%TO.N,VCC*%
X153000000Y-89200000D03*
%TD*%
D24*
%TO.P,R22,1*%
%TO.N,LED-*%
X168825000Y-90525000D03*
%TO.P,R22,2*%
%TO.N,Net-(U1-CSP)*%
X167175000Y-90525000D03*
%TD*%
%TO.P,R35,1*%
%TO.N,Net-(L2-Pad2)*%
X168825000Y-88925000D03*
%TO.P,R35,2*%
%TO.N,Net-(U1-CSN)*%
X167175000Y-88925000D03*
%TD*%
D13*
%TO.P,R5,1*%
%TO.N,PWM_ADIM*%
X151975000Y-91500000D03*
%TO.P,R5,2*%
%TO.N,GND*%
X153625000Y-91500000D03*
%TD*%
D14*
%TO.P,J2,1,Pin_1_1*%
%TO.N,LED-*%
X183400000Y-86000000D03*
D15*
%TO.P,J2,2,Pin_2_2*%
X183400000Y-88540000D03*
%TO.P,J2,3,Pin_3_3*%
%TO.N,VCC*%
X183400000Y-91080000D03*
%TO.P,J2,4,Pin_4_4*%
%TO.N,/LED_FAULT*%
X183400000Y-93620000D03*
%TD*%
D25*
%TO.P,D3,1,rA_1*%
%TO.N,Net-(D3-A)*%
X161140000Y-83800000D03*
%TO.P,D3,2,A_2*%
X159060000Y-83800000D03*
D26*
%TO.P,D3,3,K_3*%
%TO.N,VCC*%
X160100000Y-79995000D03*
%TD*%
D13*
%TO.P,R18,1*%
%TO.N,Net-(U1-TEMP)*%
X167375000Y-93800000D03*
%TO.P,R18,2*%
%TO.N,GND*%
X169025000Y-93800000D03*
%TD*%
D27*
%TO.P,C20,1*%
%TO.N,Net-(U1-CSP)*%
X165800000Y-90280000D03*
%TO.P,C20,2*%
%TO.N,Net-(U1-CSN)*%
X165800000Y-89320000D03*
%TD*%
D14*
%TO.P,J3,1,Pin_1_1*%
%TO.N,VCC*%
X149395000Y-78595000D03*
D15*
%TO.P,J3,2,Pin_2_2*%
%TO.N,GND*%
X149395000Y-81135000D03*
%TD*%
D28*
%TO.P,R16,1*%
%TO.N,LED-*%
X180562500Y-86000000D03*
%TO.P,R16,2*%
%TO.N,Net-(L2-Pad2)*%
X174637500Y-86000000D03*
%TD*%
D29*
%TO.P,C39,1*%
%TO.N,GND*%
X154400000Y-83550000D03*
%TO.P,C39,2*%
%TO.N,VCC*%
X154400000Y-78450000D03*
%TD*%
D27*
%TO.P,C23,1*%
%TO.N,Net-(C23-Pad1)*%
X173500000Y-93955000D03*
%TO.P,C23,2*%
%TO.N,GND*%
X173500000Y-92995000D03*
%TD*%
D13*
%TO.P,R10,1*%
%TO.N,PWM_EN*%
X151975000Y-93250000D03*
%TO.P,R10,2*%
%TO.N,GND*%
X153625000Y-93250000D03*
%TD*%
D30*
%TO.N,VCC*%
X154600000Y-89700000D03*
%TO.N,GND*%
X153700000Y-85100000D03*
X155000000Y-85100000D03*
X156300000Y-85100000D03*
%TO.N,/LED_FAULT*%
X176500000Y-93620000D03*
%TO.N,GND*%
X154200000Y-93200000D03*
X157800000Y-90700000D03*
X181750000Y-95000000D03*
X178250000Y-95000000D03*
X175250000Y-95000000D03*
X172500000Y-95000000D03*
X171250000Y-95000000D03*
X151250000Y-95000000D03*
X153250000Y-95000000D03*
X155250000Y-95000000D03*
X159250000Y-95000000D03*
X158250000Y-95000000D03*
X157250000Y-95000000D03*
X156250000Y-95000000D03*
X177750000Y-85000000D03*
X174500000Y-91750000D03*
X175500000Y-91000000D03*
X175500000Y-92500000D03*
X181250000Y-92500000D03*
X178500000Y-92500000D03*
X178500000Y-90750000D03*
X169800000Y-87700000D03*
X167900000Y-87700000D03*
X157600000Y-83500000D03*
X157400000Y-85100000D03*
X155700000Y-94250000D03*
X164500000Y-93600000D03*
X173000000Y-92200000D03*
X156750000Y-94250000D03*
X163500000Y-94600000D03*
X167000000Y-95000000D03*
X150900000Y-92400000D03*
X154200000Y-95000000D03*
X174000000Y-95000000D03*
X183500000Y-82250000D03*
X162700000Y-93600000D03*
X161800000Y-93600000D03*
X158500000Y-85100000D03*
X177000000Y-90750000D03*
X168900000Y-87700000D03*
X162700000Y-94600000D03*
X160700000Y-86100000D03*
X163600000Y-93600000D03*
X165600000Y-94600000D03*
X154600000Y-87200000D03*
X161700000Y-86100000D03*
X165500000Y-79000000D03*
X161700000Y-87100000D03*
X182250000Y-82250000D03*
X161700000Y-88000000D03*
X179900000Y-92500000D03*
X176750000Y-95000000D03*
X158500000Y-86100000D03*
X166900000Y-87700000D03*
X161800000Y-94600000D03*
X167800000Y-79000000D03*
X159750000Y-94250000D03*
X154600000Y-86400000D03*
X168600000Y-95000000D03*
X159600000Y-86100000D03*
X160900000Y-94600000D03*
X162750000Y-87100000D03*
X170400000Y-79000000D03*
X176500000Y-84900000D03*
X149400000Y-82400000D03*
X157000000Y-90700000D03*
X158100000Y-87200000D03*
X152250000Y-95000000D03*
X156300000Y-87800000D03*
X170000000Y-95000000D03*
X155600000Y-87200000D03*
X155000000Y-81000000D03*
X149000000Y-84200000D03*
X159600000Y-85100000D03*
X179900000Y-90700000D03*
X172200000Y-91200000D03*
X160700000Y-87100000D03*
X161700000Y-85100000D03*
X150200000Y-84200000D03*
X170800000Y-87700000D03*
X157750000Y-94250000D03*
X160700000Y-85100000D03*
X160700000Y-88000000D03*
X180000000Y-95000000D03*
X152000000Y-81900000D03*
X154800000Y-91500000D03*
X177000000Y-92500000D03*
X172200000Y-88400000D03*
X162650000Y-85100000D03*
X154800000Y-90600000D03*
X164500000Y-94600000D03*
X158750000Y-94250000D03*
X162750000Y-86100000D03*
X156900000Y-87200000D03*
X162750000Y-88000000D03*
X153600000Y-90800000D03*
X157000000Y-91900000D03*
%TO.N,VCC*%
X158100000Y-89600000D03*
X182100000Y-79700000D03*
X161750000Y-78000000D03*
X151200000Y-89500000D03*
X158250000Y-81750000D03*
X151200000Y-88700000D03*
X158250000Y-78000000D03*
X175900000Y-79300000D03*
X182100000Y-78000000D03*
X161750000Y-81750000D03*
X160099998Y-79995000D03*
X175900000Y-81100000D03*
X158100000Y-88750000D03*
%TO.N,/LED_FAULT*%
X160800000Y-93000000D03*
%TO.N,GND*%
X157800000Y-91900000D03*
X174700000Y-94000000D03*
%TO.N,VCC*%
X154600000Y-88800000D03*
%TD*%
%TO.N,Net-(C23-Pad1)*%
D31*
X173500000Y-93902850D02*
X173500000Y-93955000D01*
X172567150Y-92970000D02*
X173500000Y-93902850D01*
X171255000Y-92970000D02*
X172567150Y-92970000D01*
%TO.N,Net-(L2-Pad2)*%
D32*
X169757000Y-88925000D02*
X168825000Y-88925000D01*
X174637500Y-86000000D02*
X176500000Y-86000000D01*
X177200000Y-86700000D02*
X177200000Y-87800000D01*
X177200000Y-87800000D02*
X175632000Y-89368000D01*
X170200000Y-89368000D02*
X169757000Y-88925000D01*
X175632000Y-89368000D02*
X170200000Y-89368000D01*
X176500000Y-86000000D02*
X177200000Y-86700000D01*
%TO.N,VCC*%
D31*
X161150000Y-89965000D02*
X160300000Y-89965000D01*
D32*
X160300000Y-89965000D02*
X160090000Y-89965000D01*
D33*
X153275000Y-89275000D02*
X153200000Y-89200000D01*
X149395000Y-78595000D02*
X149750000Y-78950000D01*
D32*
X160090000Y-89965000D02*
X159400000Y-89275000D01*
%TO.N,Net-(C23-Pad1)*%
D31*
X171255000Y-91720636D02*
X171255000Y-92970000D01*
X171255000Y-92970000D02*
X170425000Y-93800000D01*
X170979364Y-91445000D02*
X171255000Y-91720636D01*
X169780000Y-91445000D02*
X170979364Y-91445000D01*
X169025000Y-92200000D02*
X169780000Y-91445000D01*
%TO.N,Net-(U1-FSET)*%
X164915000Y-91915000D02*
X163950000Y-91915000D01*
X169820000Y-92955000D02*
X165955000Y-92955000D01*
X165955000Y-92955000D02*
X164915000Y-91915000D01*
X170575000Y-92200000D02*
X169820000Y-92955000D01*
%TO.N,PWM_ADIM*%
X151305000Y-91080000D02*
X151975000Y-91750000D01*
X149500000Y-91080000D02*
X151305000Y-91080000D01*
%TO.N,PWM_EN*%
X151550000Y-93250000D02*
X151975000Y-93250000D01*
X151180000Y-93620000D02*
X151550000Y-93250000D01*
X149500000Y-93620000D02*
X151180000Y-93620000D01*
%TO.N,LED-*%
D32*
X178000000Y-87900000D02*
X178000000Y-86700000D01*
X178700000Y-86000000D02*
X180562500Y-86000000D01*
X169707000Y-90525000D02*
X170200000Y-90032000D01*
X175868000Y-90032000D02*
X178000000Y-87900000D01*
X168825000Y-90525000D02*
X169707000Y-90525000D01*
X178000000Y-86700000D02*
X178700000Y-86000000D01*
X170200000Y-90032000D02*
X175868000Y-90032000D01*
%TO.N,Net-(U1-COMP)*%
X166200000Y-92200000D02*
X167375000Y-92200000D01*
X165265000Y-91265000D02*
X166200000Y-92200000D01*
X163950000Y-91265000D02*
X165265000Y-91265000D01*
%TO.N,Net-(U1-VCC)*%
D31*
X160635000Y-90615000D02*
X160250000Y-91000000D01*
D34*
X159750000Y-91500000D02*
X158975000Y-91500000D01*
D31*
X161150000Y-90615000D02*
X160635000Y-90615000D01*
D34*
X160250000Y-91000000D02*
X159750000Y-91500000D01*
%TO.N,/LED_FAULT*%
D35*
X160800000Y-92915000D02*
X160800000Y-93000000D01*
X161150000Y-92565000D02*
X160800000Y-92915000D01*
%TO.N,Net-(U1-TEMP)*%
D31*
X164765000Y-92565000D02*
X166000000Y-93800000D01*
X166000000Y-93800000D02*
X167375000Y-93800000D01*
X163950000Y-92565000D02*
X164765000Y-92565000D01*
%TO.N,Net-(U1-CSP)*%
X166400000Y-90525000D02*
X167175000Y-90525000D01*
X165800000Y-90205000D02*
X166080000Y-90205000D01*
X164680000Y-90205000D02*
X165800000Y-90205000D01*
X164440000Y-89965000D02*
X164680000Y-90205000D01*
X166080000Y-90205000D02*
X166400000Y-90525000D01*
X163950000Y-89965000D02*
X164440000Y-89965000D01*
%TO.N,Net-(U1-CSN)*%
X163950000Y-89315000D02*
X165795000Y-89315000D01*
X167175000Y-88925000D02*
X166400000Y-88925000D01*
X166400000Y-88925000D02*
X166080000Y-89245000D01*
D32*
X165795000Y-89315000D02*
X165800000Y-89320000D01*
%TO.N,/LED_FAULT*%
D35*
X176500000Y-93620000D02*
X183400000Y-93620000D01*
%TO.N,PWM_EN*%
D31*
X152800000Y-93584364D02*
X153220636Y-94005000D01*
X151975000Y-93250000D02*
X152800000Y-93250000D01*
X152800000Y-93250000D02*
X152800000Y-93584364D01*
X159702504Y-93200000D02*
X160987504Y-91915000D01*
X153220636Y-94005000D02*
X154243529Y-94005000D01*
X155048529Y-93200000D02*
X159702504Y-93200000D01*
X154243529Y-94005000D02*
X155048529Y-93200000D01*
X160987504Y-91915000D02*
X161150000Y-91915000D01*
%TO.N,PWM_ADIM*%
X154950000Y-92700000D02*
X159550000Y-92700000D01*
X151975000Y-91500000D02*
X152730000Y-92255000D01*
X152730000Y-92255000D02*
X154505000Y-92255000D01*
X154505000Y-92255000D02*
X154950000Y-92700000D01*
X159550000Y-92700000D02*
X160985000Y-91265000D01*
X160985000Y-91265000D02*
X161150000Y-91265000D01*
%TD*%
%TA.AperFunction,Conductor*%
%TO.N,Net-(D3-A)*%
G36*
X166643106Y-81505023D02*
G01*
X166658104Y-81509427D01*
X166716855Y-81547172D01*
X166718042Y-81548541D01*
X166737907Y-81592004D01*
X166741363Y-81590908D01*
X166744195Y-81599835D01*
X166745582Y-81608794D01*
X166747087Y-81612087D01*
X166746608Y-81615423D01*
X166750000Y-81637331D01*
X166750004Y-86576800D01*
X166744981Y-86611734D01*
X166736817Y-86639539D01*
X166713811Y-86683126D01*
X165030320Y-88740726D01*
X165004311Y-88764583D01*
X164984373Y-88778208D01*
X164933750Y-88798313D01*
X164932648Y-88798487D01*
X164913309Y-88800004D01*
X163847329Y-88800000D01*
X163812388Y-88794975D01*
X163797389Y-88790570D01*
X163738643Y-88752827D01*
X163737456Y-88751458D01*
X163709976Y-88696580D01*
X163708331Y-88689016D01*
X163705500Y-88662671D01*
X163705500Y-88515005D01*
X163705500Y-88515000D01*
X163694622Y-88427730D01*
X163683656Y-88402730D01*
X163647616Y-88320565D01*
X163647614Y-88320562D01*
X163647613Y-88320560D01*
X163639980Y-88312268D01*
X163635757Y-88306456D01*
X163634157Y-88301974D01*
X163624879Y-88288448D01*
X163612802Y-88263977D01*
X163600000Y-88209103D01*
X163600000Y-84400000D01*
X158441830Y-84400000D01*
X158406889Y-84394975D01*
X158391890Y-84390570D01*
X158333144Y-84352827D01*
X158331957Y-84351458D01*
X158304477Y-84296583D01*
X158302832Y-84289021D01*
X158300000Y-84262668D01*
X158300000Y-83141829D01*
X158305023Y-83106893D01*
X158309427Y-83091895D01*
X158347172Y-83033144D01*
X158348541Y-83031957D01*
X158403420Y-83004477D01*
X158410979Y-83002833D01*
X158437332Y-83000000D01*
X163750000Y-83000000D01*
X163750000Y-81641829D01*
X163755023Y-81606893D01*
X163759427Y-81591895D01*
X163797172Y-81533144D01*
X163798541Y-81531957D01*
X163853420Y-81504477D01*
X163860979Y-81502833D01*
X163887332Y-81500000D01*
X166608170Y-81500000D01*
X166643106Y-81505023D01*
G37*
%TD.AperFunction*%
%TD*%
%TA.AperFunction,Conductor*%
%TO.N,VCC*%
G36*
X150415677Y-87419685D02*
G01*
X150436319Y-87436319D01*
X151600000Y-88600000D01*
X157970728Y-88600000D01*
X158026181Y-88613090D01*
X158400000Y-88800000D01*
X160076000Y-88800000D01*
X160143039Y-88819685D01*
X160188794Y-88872489D01*
X160200000Y-88924000D01*
X160200000Y-89685894D01*
X160180315Y-89752933D01*
X160127511Y-89798688D01*
X160075895Y-89809894D01*
X148524395Y-89800105D01*
X148457372Y-89780364D01*
X148411662Y-89727521D01*
X148400500Y-89676105D01*
X148400500Y-87524000D01*
X148420185Y-87456961D01*
X148472989Y-87411206D01*
X148524500Y-87400000D01*
X150348638Y-87400000D01*
X150415677Y-87419685D01*
G37*
%TD.AperFunction*%
%TD*%
%TA.AperFunction,Conductor*%
%TO.N,VCC*%
G36*
X183644849Y-77219685D02*
G01*
X183690604Y-77272489D01*
X183701809Y-77324107D01*
X183699994Y-79407109D01*
X183698278Y-81376108D01*
X183678535Y-81443130D01*
X183625691Y-81488839D01*
X183574278Y-81500000D01*
X181824000Y-81500000D01*
X181756961Y-81480315D01*
X181711206Y-81427511D01*
X181700000Y-81376000D01*
X181700000Y-78297750D01*
X181700000Y-78297749D01*
X181699747Y-78297748D01*
X177100148Y-78297496D01*
X177099860Y-83527231D01*
X177080172Y-83594269D01*
X177027365Y-83640021D01*
X176975206Y-83651222D01*
X175763947Y-83644838D01*
X175697013Y-83624801D01*
X175663196Y-83592206D01*
X174072595Y-81332105D01*
X174050110Y-81265952D01*
X174050000Y-81260739D01*
X174050000Y-79600000D01*
X171013430Y-79600000D01*
X170946391Y-79580315D01*
X170900636Y-79527511D01*
X170890692Y-79458353D01*
X170910328Y-79407109D01*
X170976461Y-79308133D01*
X170976461Y-79308132D01*
X170976465Y-79308127D01*
X171025501Y-79189744D01*
X171050500Y-79064069D01*
X171050500Y-78935931D01*
X171050500Y-78935928D01*
X171025502Y-78810261D01*
X171025501Y-78810260D01*
X171025501Y-78810256D01*
X170976465Y-78691873D01*
X170976464Y-78691872D01*
X170976461Y-78691866D01*
X170905276Y-78585331D01*
X170905273Y-78585327D01*
X170814672Y-78494726D01*
X170814668Y-78494723D01*
X170708133Y-78423538D01*
X170708124Y-78423533D01*
X170589744Y-78374499D01*
X170589738Y-78374497D01*
X170464071Y-78349500D01*
X170464069Y-78349500D01*
X170335931Y-78349500D01*
X170335929Y-78349500D01*
X170210261Y-78374497D01*
X170210255Y-78374499D01*
X170091875Y-78423533D01*
X170091866Y-78423538D01*
X169985331Y-78494723D01*
X169985327Y-78494726D01*
X169894726Y-78585327D01*
X169894723Y-78585331D01*
X169823538Y-78691866D01*
X169823533Y-78691875D01*
X169774499Y-78810255D01*
X169774497Y-78810261D01*
X169749500Y-78935928D01*
X169749500Y-78935931D01*
X169749500Y-79064069D01*
X169749500Y-79064071D01*
X169749499Y-79064071D01*
X169774497Y-79189738D01*
X169774499Y-79189744D01*
X169823533Y-79308124D01*
X169823538Y-79308133D01*
X169889672Y-79407109D01*
X169910550Y-79473787D01*
X169892065Y-79541167D01*
X169840087Y-79587857D01*
X169786570Y-79600000D01*
X168413430Y-79600000D01*
X168346391Y-79580315D01*
X168300636Y-79527511D01*
X168290692Y-79458353D01*
X168310328Y-79407109D01*
X168376461Y-79308133D01*
X168376461Y-79308132D01*
X168376465Y-79308127D01*
X168425501Y-79189744D01*
X168450500Y-79064069D01*
X168450500Y-78935931D01*
X168450500Y-78935928D01*
X168425502Y-78810261D01*
X168425501Y-78810260D01*
X168425501Y-78810256D01*
X168376465Y-78691873D01*
X168376464Y-78691872D01*
X168376461Y-78691866D01*
X168305276Y-78585331D01*
X168305273Y-78585327D01*
X168214672Y-78494726D01*
X168214668Y-78494723D01*
X168108133Y-78423538D01*
X168108124Y-78423533D01*
X167989744Y-78374499D01*
X167989738Y-78374497D01*
X167864071Y-78349500D01*
X167864069Y-78349500D01*
X167735931Y-78349500D01*
X167735929Y-78349500D01*
X167610261Y-78374497D01*
X167610255Y-78374499D01*
X167491875Y-78423533D01*
X167491866Y-78423538D01*
X167385331Y-78494723D01*
X167385327Y-78494726D01*
X167294726Y-78585327D01*
X167294723Y-78585331D01*
X167223538Y-78691866D01*
X167223533Y-78691875D01*
X167174499Y-78810255D01*
X167174497Y-78810261D01*
X167149500Y-78935928D01*
X167149500Y-78935931D01*
X167149500Y-79064069D01*
X167149500Y-79064071D01*
X167149499Y-79064071D01*
X167174497Y-79189738D01*
X167174499Y-79189744D01*
X167223533Y-79308124D01*
X167223538Y-79308133D01*
X167289672Y-79407109D01*
X167310550Y-79473787D01*
X167292065Y-79541167D01*
X167240087Y-79587857D01*
X167186570Y-79600000D01*
X166113430Y-79600000D01*
X166046391Y-79580315D01*
X166000636Y-79527511D01*
X165990692Y-79458353D01*
X166010328Y-79407109D01*
X166076461Y-79308133D01*
X166076461Y-79308132D01*
X166076465Y-79308127D01*
X166125501Y-79189744D01*
X166150500Y-79064069D01*
X166150500Y-78935931D01*
X166150500Y-78935928D01*
X166125502Y-78810261D01*
X166125501Y-78810260D01*
X166125501Y-78810256D01*
X166076465Y-78691873D01*
X166076464Y-78691872D01*
X166076461Y-78691866D01*
X166005276Y-78585331D01*
X166005273Y-78585327D01*
X165914672Y-78494726D01*
X165914668Y-78494723D01*
X165808133Y-78423538D01*
X165808124Y-78423533D01*
X165689744Y-78374499D01*
X165689738Y-78374497D01*
X165564071Y-78349500D01*
X165564069Y-78349500D01*
X165435931Y-78349500D01*
X165435929Y-78349500D01*
X165310261Y-78374497D01*
X165310255Y-78374499D01*
X165191875Y-78423533D01*
X165191866Y-78423538D01*
X165085331Y-78494723D01*
X165085327Y-78494726D01*
X164994726Y-78585327D01*
X164994723Y-78585331D01*
X164923538Y-78691866D01*
X164923533Y-78691875D01*
X164874499Y-78810255D01*
X164874497Y-78810261D01*
X164849500Y-78935928D01*
X164849500Y-78935931D01*
X164849500Y-79064069D01*
X164849500Y-79064071D01*
X164849499Y-79064071D01*
X164874497Y-79189738D01*
X164874499Y-79189744D01*
X164923533Y-79308124D01*
X164923538Y-79308133D01*
X164989672Y-79407109D01*
X165010550Y-79473787D01*
X164992065Y-79541167D01*
X164940087Y-79587857D01*
X164886570Y-79600000D01*
X162750000Y-79600000D01*
X162750000Y-82276000D01*
X162730315Y-82343039D01*
X162677511Y-82388794D01*
X162626000Y-82400000D01*
X157624000Y-82400000D01*
X157556961Y-82380315D01*
X157511206Y-82327511D01*
X157500000Y-82276000D01*
X157500000Y-79650000D01*
X148524500Y-79650000D01*
X148457461Y-79630315D01*
X148411706Y-79577511D01*
X148400500Y-79526000D01*
X148400500Y-77756092D01*
X148401097Y-77743938D01*
X148412744Y-77625680D01*
X148417483Y-77601856D01*
X148450203Y-77493990D01*
X148459499Y-77471549D01*
X148512632Y-77372143D01*
X148526134Y-77351938D01*
X148597634Y-77264815D01*
X148614821Y-77247630D01*
X148638563Y-77228146D01*
X148702873Y-77200833D01*
X148717226Y-77200000D01*
X183577810Y-77200000D01*
X183644849Y-77219685D01*
G37*
%TD.AperFunction*%
%TD*%
%TA.AperFunction,Conductor*%
%TO.N,LED-*%
G36*
X181220507Y-78653221D02*
G01*
X181287545Y-78672909D01*
X181333297Y-78725716D01*
X181344500Y-78777221D01*
X181344500Y-81376008D01*
X181352625Y-81451570D01*
X181363831Y-81503082D01*
X181381502Y-81560463D01*
X181381503Y-81560465D01*
X181410675Y-81608189D01*
X181442537Y-81660314D01*
X181442538Y-81660315D01*
X181469757Y-81691727D01*
X181498782Y-81755283D01*
X181500044Y-81772974D01*
X181499272Y-83962657D01*
X181499267Y-83975993D01*
X181498870Y-85100015D01*
X184021522Y-85102735D01*
X184056443Y-85107795D01*
X184071443Y-85112217D01*
X184130163Y-85150040D01*
X184131347Y-85151409D01*
X184158752Y-85206292D01*
X184160389Y-85213855D01*
X184163195Y-85240221D01*
X184158773Y-89340862D01*
X184153711Y-89375796D01*
X184149291Y-89390787D01*
X184111468Y-89449508D01*
X184109877Y-89450884D01*
X184055529Y-89478172D01*
X184048468Y-89479733D01*
X184022669Y-89482652D01*
X180262998Y-89511993D01*
X180228026Y-89507244D01*
X180212992Y-89502957D01*
X180153921Y-89465643D01*
X180153910Y-89465631D01*
X180152714Y-89464272D01*
X180124846Y-89409664D01*
X180123142Y-89402118D01*
X180120101Y-89375781D01*
X180086909Y-85122512D01*
X180078930Y-84100000D01*
X177741837Y-84100000D01*
X177706896Y-84094975D01*
X177691897Y-84090570D01*
X177633176Y-84052856D01*
X177631990Y-84051489D01*
X177604485Y-83996581D01*
X177602838Y-83989010D01*
X177600007Y-83962663D01*
X177600256Y-79469362D01*
X177600294Y-78777021D01*
X177619982Y-78709984D01*
X177672789Y-78664232D01*
X177724298Y-78653029D01*
X181220507Y-78653221D01*
G37*
%TD.AperFunction*%
%TD*%
%TA.AperFunction,Conductor*%
%TO.N,Net-(L2-Pad2)*%
G36*
X173051874Y-81105021D02*
G01*
X173072427Y-81111057D01*
X173123798Y-81140998D01*
X173128081Y-81145150D01*
X173137276Y-81161385D01*
X173139652Y-81159752D01*
X175268058Y-84253538D01*
X175283733Y-84285204D01*
X175293834Y-84316026D01*
X175300000Y-84354642D01*
X175300000Y-87558170D01*
X175294975Y-87593114D01*
X175290570Y-87608112D01*
X175252827Y-87666855D01*
X175251458Y-87668042D01*
X175196597Y-87695518D01*
X175189039Y-87697163D01*
X175162668Y-87700000D01*
X172217164Y-87700000D01*
X172182223Y-87694975D01*
X172167224Y-87690570D01*
X172108456Y-87652802D01*
X172099466Y-87642428D01*
X172078714Y-87608914D01*
X172065000Y-87576001D01*
X172065000Y-87576000D01*
X172057571Y-87558170D01*
X171200000Y-85500000D01*
X171199999Y-85499999D01*
X171199997Y-85499998D01*
X169737945Y-85454309D01*
X169703192Y-85448200D01*
X169688334Y-85443329D01*
X169630766Y-85403741D01*
X169630755Y-85403727D01*
X169628963Y-85401523D01*
X169603610Y-85347755D01*
X169602434Y-85341912D01*
X169600000Y-85317461D01*
X169600000Y-81241829D01*
X169605023Y-81206893D01*
X169609427Y-81191895D01*
X169647172Y-81133144D01*
X169648541Y-81131957D01*
X169703420Y-81104477D01*
X169710979Y-81102833D01*
X169737332Y-81100000D01*
X173016942Y-81100000D01*
X173051874Y-81105021D01*
G37*
%TD.AperFunction*%
%TD*%
%TA.AperFunction,Conductor*%
%TO.N,GND*%
G36*
X157087539Y-80025185D02*
G01*
X157133294Y-80077989D01*
X157144500Y-80129500D01*
X157144500Y-82276008D01*
X157152625Y-82351570D01*
X157163831Y-82403082D01*
X157181502Y-82460463D01*
X157181503Y-82460465D01*
X157210675Y-82508189D01*
X157242537Y-82560314D01*
X157242542Y-82560320D01*
X157242543Y-82560321D01*
X157288279Y-82613104D01*
X157288285Y-82613110D01*
X157288292Y-82613118D01*
X157351475Y-82670411D01*
X157456802Y-82721414D01*
X157523841Y-82741099D01*
X157523842Y-82741099D01*
X157523845Y-82741100D01*
X157553709Y-82745393D01*
X157624000Y-82755500D01*
X157883261Y-82755500D01*
X157950300Y-82775185D01*
X157996055Y-82827989D01*
X158005999Y-82897147D01*
X157996057Y-82931005D01*
X157968328Y-82991735D01*
X157963924Y-83006733D01*
X157959504Y-83027048D01*
X157953140Y-83056300D01*
X157948119Y-83091223D01*
X157948118Y-83091236D01*
X157944500Y-83141829D01*
X157944500Y-84262668D01*
X157946535Y-84300653D01*
X157948000Y-84314286D01*
X157949366Y-84327002D01*
X157955455Y-84364582D01*
X157955456Y-84364587D01*
X157957101Y-84372149D01*
X157986607Y-84455764D01*
X157996333Y-84475185D01*
X158014086Y-84510638D01*
X158014092Y-84510647D01*
X158030793Y-84535629D01*
X158063361Y-84584346D01*
X158064548Y-84585715D01*
X158140985Y-84651918D01*
X158199731Y-84689661D01*
X158291713Y-84731663D01*
X158291712Y-84731663D01*
X158306706Y-84736067D01*
X158306710Y-84736067D01*
X158306714Y-84736069D01*
X158356284Y-84746855D01*
X158391225Y-84751880D01*
X158441830Y-84755500D01*
X158460688Y-84755500D01*
X158497578Y-84761114D01*
X158556205Y-84779384D01*
X158623510Y-84785500D01*
X158623513Y-84785500D01*
X159496487Y-84785500D01*
X159496490Y-84785500D01*
X159563795Y-84779384D01*
X159604172Y-84766802D01*
X159622423Y-84761115D01*
X159659313Y-84755500D01*
X160540688Y-84755500D01*
X160577578Y-84761114D01*
X160636205Y-84779384D01*
X160703510Y-84785500D01*
X160703513Y-84785500D01*
X161576487Y-84785500D01*
X161576490Y-84785500D01*
X161643795Y-84779384D01*
X161684172Y-84766802D01*
X161702423Y-84761115D01*
X161739313Y-84755500D01*
X162902289Y-84755500D01*
X162969328Y-84775185D01*
X163015083Y-84827989D01*
X163016849Y-84832045D01*
X163025462Y-84852839D01*
X163025463Y-84852841D01*
X163025464Y-84852842D01*
X163121718Y-84978282D01*
X163195987Y-85035270D01*
X163237189Y-85091697D01*
X163244500Y-85133645D01*
X163244500Y-88209103D01*
X163248601Y-88244730D01*
X163253798Y-88289882D01*
X163266596Y-88344739D01*
X163266598Y-88344745D01*
X163294009Y-88421304D01*
X163295274Y-88423866D01*
X163307293Y-88492694D01*
X163306554Y-88498142D01*
X163299500Y-88542685D01*
X163299500Y-88787311D01*
X163299499Y-88787311D01*
X163314721Y-88883418D01*
X163314724Y-88883434D01*
X163332244Y-88917818D01*
X163343629Y-88951228D01*
X163347740Y-88973120D01*
X163344846Y-89030944D01*
X163343590Y-89035221D01*
X163335100Y-89056575D01*
X163314722Y-89096568D01*
X163314722Y-89096570D01*
X163299500Y-89192681D01*
X163299500Y-89437311D01*
X163299499Y-89437311D01*
X163314721Y-89533418D01*
X163314724Y-89533434D01*
X163332244Y-89567818D01*
X163343629Y-89601228D01*
X163347740Y-89623120D01*
X163344846Y-89680944D01*
X163343590Y-89685221D01*
X163335100Y-89706575D01*
X163314722Y-89746568D01*
X163314722Y-89746570D01*
X163299500Y-89842681D01*
X163299500Y-90087315D01*
X163311553Y-90163411D01*
X163314723Y-90183428D01*
X163314723Y-90183429D01*
X163314724Y-90183432D01*
X163314725Y-90183433D01*
X163321860Y-90197437D01*
X163321861Y-90197439D01*
X163322903Y-90199483D01*
X163334975Y-90223177D01*
X163336679Y-90226520D01*
X163348064Y-90259929D01*
X163352174Y-90281815D01*
X163349286Y-90339620D01*
X163348029Y-90343903D01*
X163339533Y-90365277D01*
X163323590Y-90396567D01*
X163321477Y-90400716D01*
X163317645Y-90408236D01*
X163315335Y-90412181D01*
X163314352Y-90414696D01*
X163299500Y-90508475D01*
X163299500Y-90721521D01*
X163314352Y-90815300D01*
X163314353Y-90815301D01*
X163314353Y-90815302D01*
X163314354Y-90815304D01*
X163322900Y-90832076D01*
X163336679Y-90859120D01*
X163348063Y-90892528D01*
X163352174Y-90914420D01*
X163349281Y-90972241D01*
X163348026Y-90976515D01*
X163339535Y-90997872D01*
X163314723Y-91046568D01*
X163314721Y-91046574D01*
X163299500Y-91142682D01*
X163299500Y-91387311D01*
X163299499Y-91387311D01*
X163314721Y-91483418D01*
X163314724Y-91483434D01*
X163326675Y-91506890D01*
X163332174Y-91517682D01*
X163332244Y-91517818D01*
X163343629Y-91551228D01*
X163347740Y-91573120D01*
X163344846Y-91630944D01*
X163343590Y-91635221D01*
X163335100Y-91656575D01*
X163314722Y-91696568D01*
X163314722Y-91696570D01*
X163299500Y-91792681D01*
X163299500Y-92037311D01*
X163299499Y-92037311D01*
X163314721Y-92133418D01*
X163314724Y-92133434D01*
X163321783Y-92147287D01*
X163332120Y-92167576D01*
X163332244Y-92167818D01*
X163343629Y-92201228D01*
X163347740Y-92223120D01*
X163344846Y-92280944D01*
X163343590Y-92285221D01*
X163335100Y-92306575D01*
X163314722Y-92346568D01*
X163314722Y-92346570D01*
X163299500Y-92442681D01*
X163299500Y-92687315D01*
X163305053Y-92722375D01*
X163314723Y-92783428D01*
X163314723Y-92783429D01*
X163314724Y-92783432D01*
X163314725Y-92783433D01*
X163321860Y-92797437D01*
X163321862Y-92797442D01*
X163366042Y-92884151D01*
X163366043Y-92884151D01*
X163373760Y-92899295D01*
X163373767Y-92899304D01*
X163455494Y-92981031D01*
X163455496Y-92981032D01*
X163465700Y-92991236D01*
X163465704Y-92991239D01*
X163465706Y-92991241D01*
X163581567Y-93050275D01*
X163581569Y-93050275D01*
X163581571Y-93050276D01*
X163589757Y-93051572D01*
X163590013Y-93051707D01*
X163591197Y-93051800D01*
X163677473Y-93065465D01*
X163677683Y-93065499D01*
X163677687Y-93065499D01*
X163677693Y-93065500D01*
X163865800Y-93065499D01*
X163865832Y-93065500D01*
X163869673Y-93065500D01*
X163884108Y-93065500D01*
X164488494Y-93065500D01*
X164523426Y-93070521D01*
X164548670Y-93077934D01*
X164601416Y-93109230D01*
X165599500Y-94107314D01*
X165692686Y-94200500D01*
X165806814Y-94266392D01*
X165934108Y-94300500D01*
X166575698Y-94300500D01*
X166610630Y-94305522D01*
X166617706Y-94307599D01*
X166632644Y-94311986D01*
X166681942Y-94339962D01*
X166684348Y-94342189D01*
X166698921Y-94358265D01*
X166782076Y-94467922D01*
X166866575Y-94531999D01*
X166902656Y-94559360D01*
X166902657Y-94559360D01*
X166902876Y-94559526D01*
X166905596Y-94560519D01*
X167043436Y-94614877D01*
X167131898Y-94625500D01*
X167131903Y-94625500D01*
X167618097Y-94625500D01*
X167618102Y-94625500D01*
X167706564Y-94614877D01*
X167847342Y-94559361D01*
X167967922Y-94467922D01*
X168059361Y-94347342D01*
X168114877Y-94206564D01*
X168125500Y-94118102D01*
X168125500Y-93597329D01*
X168130523Y-93562393D01*
X168132421Y-93555931D01*
X168134927Y-93547394D01*
X168172672Y-93488644D01*
X168174041Y-93487457D01*
X168228920Y-93459977D01*
X168236479Y-93458333D01*
X168262832Y-93455500D01*
X169532670Y-93455500D01*
X169567606Y-93460523D01*
X169582604Y-93464927D01*
X169641355Y-93502672D01*
X169642542Y-93504041D01*
X169670018Y-93558902D01*
X169671663Y-93566460D01*
X169674500Y-93592831D01*
X169674500Y-94118103D01*
X169677359Y-94141911D01*
X169677359Y-94141914D01*
X169677360Y-94141914D01*
X169685121Y-94206558D01*
X169685121Y-94206560D01*
X169685122Y-94206561D01*
X169737728Y-94339962D01*
X169740640Y-94347345D01*
X169832076Y-94467922D01*
X169916575Y-94531999D01*
X169952656Y-94559360D01*
X169952657Y-94559360D01*
X169952876Y-94559526D01*
X169955596Y-94560519D01*
X170093436Y-94614877D01*
X170181898Y-94625500D01*
X170181903Y-94625500D01*
X170668097Y-94625500D01*
X170668102Y-94625500D01*
X170756564Y-94614877D01*
X170897342Y-94559361D01*
X171017922Y-94467922D01*
X171109361Y-94347342D01*
X171164877Y-94206564D01*
X171175500Y-94118102D01*
X171175500Y-93826504D01*
X171180522Y-93791571D01*
X171187934Y-93766326D01*
X171219228Y-93713584D01*
X171413389Y-93519423D01*
X171441639Y-93498275D01*
X171464731Y-93485667D01*
X171524156Y-93470500D01*
X172290644Y-93470500D01*
X172325576Y-93475521D01*
X172350820Y-93482934D01*
X172403566Y-93514230D01*
X172790573Y-93901237D01*
X172811723Y-93929489D01*
X172824331Y-93952578D01*
X172839500Y-94012007D01*
X172839500Y-94141909D01*
X172839550Y-94142616D01*
X172839731Y-94144061D01*
X172845780Y-94200335D01*
X172845780Y-94200336D01*
X172871950Y-94270500D01*
X172895069Y-94332485D01*
X172895073Y-94332492D01*
X172906190Y-94347343D01*
X172907860Y-94349573D01*
X172907861Y-94349575D01*
X172968024Y-94429944D01*
X172979597Y-94445403D01*
X173092511Y-94529929D01*
X173224665Y-94579219D01*
X173283085Y-94585500D01*
X173716914Y-94585499D01*
X173775335Y-94579219D01*
X173907489Y-94529929D01*
X174020403Y-94445403D01*
X174104929Y-94332489D01*
X174154219Y-94200335D01*
X174160500Y-94141915D01*
X174160499Y-93768086D01*
X174154219Y-93709665D01*
X174150800Y-93700499D01*
X174122827Y-93625500D01*
X174105695Y-93579565D01*
X174105054Y-93577751D01*
X174104930Y-93577514D01*
X174104929Y-93577511D01*
X174020403Y-93464597D01*
X174020401Y-93464596D01*
X174020401Y-93464595D01*
X173907490Y-93380072D01*
X173907491Y-93380072D01*
X173907489Y-93380071D01*
X173907487Y-93380070D01*
X173907485Y-93380069D01*
X173907484Y-93380068D01*
X173907483Y-93380068D01*
X173785498Y-93334571D01*
X173785495Y-93334570D01*
X173775338Y-93330782D01*
X173775337Y-93330781D01*
X173775335Y-93330781D01*
X173716915Y-93324500D01*
X173716906Y-93324500D01*
X173716905Y-93324500D01*
X173698656Y-93324500D01*
X173663720Y-93319477D01*
X173638478Y-93312065D01*
X173585733Y-93280769D01*
X172874466Y-92569502D01*
X172874464Y-92569500D01*
X172817400Y-92536554D01*
X172760337Y-92503608D01*
X172690598Y-92484922D01*
X172633042Y-92469500D01*
X172633041Y-92469500D01*
X171897330Y-92469500D01*
X171862389Y-92464475D01*
X171847390Y-92460070D01*
X171788644Y-92422327D01*
X171787457Y-92420958D01*
X171759977Y-92366083D01*
X171758332Y-92358521D01*
X171755500Y-92332168D01*
X171755500Y-91654743D01*
X171750582Y-91636392D01*
X171750582Y-91636391D01*
X171750581Y-91636388D01*
X171721392Y-91527450D01*
X171655500Y-91413322D01*
X171286678Y-91044500D01*
X171245069Y-91020477D01*
X171212968Y-91001943D01*
X171212966Y-91001942D01*
X171203185Y-90996295D01*
X171172551Y-90978608D01*
X171075702Y-90952658D01*
X171070899Y-90951371D01*
X171070885Y-90951366D01*
X171045257Y-90944500D01*
X171045256Y-90944500D01*
X171045255Y-90944500D01*
X170453927Y-90944500D01*
X170418992Y-90939477D01*
X170408138Y-90936290D01*
X170349360Y-90898516D01*
X170320335Y-90834960D01*
X170330275Y-90765811D01*
X170333465Y-90758824D01*
X170358574Y-90722660D01*
X170399811Y-90681423D01*
X170428061Y-90660275D01*
X170451153Y-90647667D01*
X170510578Y-90632500D01*
X175779380Y-90632500D01*
X175779443Y-90632501D01*
X175781347Y-90632501D01*
X175788943Y-90632501D01*
X175947054Y-90632501D01*
X175947057Y-90632501D01*
X176099785Y-90591577D01*
X176173343Y-90549108D01*
X176236716Y-90512520D01*
X176348520Y-90400716D01*
X176348520Y-90400715D01*
X176365958Y-90383277D01*
X176365960Y-90383274D01*
X178351274Y-88397960D01*
X178351277Y-88397958D01*
X178368715Y-88380520D01*
X178368716Y-88380520D01*
X178480520Y-88268716D01*
X178535472Y-88173535D01*
X178559577Y-88131785D01*
X178600500Y-87979058D01*
X178600500Y-87820943D01*
X178600500Y-87017926D01*
X178605522Y-86982993D01*
X178612934Y-86957748D01*
X178644228Y-86905006D01*
X178899811Y-86649423D01*
X178928061Y-86628275D01*
X178951153Y-86615667D01*
X179010578Y-86600500D01*
X179457671Y-86600500D01*
X179492607Y-86605523D01*
X179507605Y-86609927D01*
X179566356Y-86647672D01*
X179567543Y-86649041D01*
X179595019Y-86703902D01*
X179596664Y-86711460D01*
X179599501Y-86737831D01*
X179599501Y-87464363D01*
X179614953Y-87581752D01*
X179614958Y-87581769D01*
X179667367Y-87708293D01*
X179675464Y-87727841D01*
X179727218Y-87795288D01*
X179752411Y-87860456D01*
X179752837Y-87869805D01*
X179764611Y-89378529D01*
X179764612Y-89378555D01*
X179766947Y-89416558D01*
X179769988Y-89442895D01*
X179769990Y-89442912D01*
X179776370Y-89480410D01*
X179776371Y-89480417D01*
X179778077Y-89487970D01*
X179808195Y-89571258D01*
X179836063Y-89625866D01*
X179836066Y-89625872D01*
X179853618Y-89651699D01*
X179885886Y-89699182D01*
X179885889Y-89699185D01*
X179885889Y-89699186D01*
X179887092Y-89700552D01*
X179887095Y-89700555D01*
X179964055Y-89766193D01*
X179964060Y-89766196D01*
X179964065Y-89766201D01*
X180023136Y-89803515D01*
X180115506Y-89844829D01*
X180130540Y-89849116D01*
X180180190Y-89859511D01*
X180215162Y-89864260D01*
X180265772Y-89867482D01*
X182669701Y-89848721D01*
X182736892Y-89867882D01*
X182783058Y-89920327D01*
X182793541Y-89989406D01*
X182765013Y-90053186D01*
X182743555Y-90073035D01*
X182710276Y-90097214D01*
X182629798Y-90155685D01*
X182622417Y-90159818D01*
X182479818Y-90302417D01*
X182475686Y-90309796D01*
X182466101Y-90322989D01*
X182449171Y-90346292D01*
X182446114Y-90350499D01*
X182446113Y-90350499D01*
X182373831Y-90449986D01*
X182373240Y-90450800D01*
X182287454Y-90619163D01*
X182229059Y-90798881D01*
X182229058Y-90798884D01*
X182229058Y-90798886D01*
X182199500Y-90985507D01*
X182199500Y-91174491D01*
X182223858Y-91328282D01*
X182229059Y-91361118D01*
X182287454Y-91540836D01*
X182337057Y-91638186D01*
X182373240Y-91709199D01*
X182484310Y-91862073D01*
X182617927Y-91995690D01*
X182689021Y-92047343D01*
X182770796Y-92106757D01*
X182770797Y-92106757D01*
X182770801Y-92106760D01*
X182850347Y-92147290D01*
X182932718Y-92189261D01*
X182934310Y-92190193D01*
X182938034Y-92191997D01*
X182940024Y-92192986D01*
X182943777Y-92194044D01*
X183028734Y-92221649D01*
X183043852Y-92226561D01*
X183043860Y-92226566D01*
X183075521Y-92242133D01*
X183084857Y-92248517D01*
X183096142Y-92262318D01*
X183101524Y-92265999D01*
X183104061Y-92272003D01*
X183129084Y-92302606D01*
X183137048Y-92372021D01*
X183106219Y-92434721D01*
X183106208Y-92434733D01*
X183104113Y-92437015D01*
X183051087Y-92471087D01*
X182939166Y-92507452D01*
X182770799Y-92593240D01*
X182683579Y-92656610D01*
X182683578Y-92656610D01*
X182629794Y-92695686D01*
X182622419Y-92699816D01*
X182479817Y-92842418D01*
X182475686Y-92849795D01*
X182458392Y-92873599D01*
X182458391Y-92873601D01*
X182373242Y-92990795D01*
X182373241Y-92990798D01*
X182337518Y-93060909D01*
X182317181Y-93089757D01*
X182305460Y-93102167D01*
X182247698Y-93136720D01*
X182237889Y-93139373D01*
X182234849Y-93140196D01*
X182202465Y-93144500D01*
X177013150Y-93144500D01*
X176978214Y-93139477D01*
X176949129Y-93130936D01*
X176915176Y-93115062D01*
X176808127Y-93043534D01*
X176808128Y-93043534D01*
X176808118Y-93043529D01*
X176689753Y-92994502D01*
X176689733Y-92994495D01*
X176689725Y-92994493D01*
X176564074Y-92969500D01*
X176564071Y-92969500D01*
X176564069Y-92969500D01*
X176435931Y-92969500D01*
X176435929Y-92969500D01*
X176435926Y-92969500D01*
X176310273Y-92994493D01*
X176310265Y-92994495D01*
X176310245Y-92994502D01*
X176191880Y-93043529D01*
X176191870Y-93043534D01*
X176085328Y-93114724D01*
X176085327Y-93114725D01*
X176085321Y-93114730D01*
X175994730Y-93205321D01*
X175994725Y-93205327D01*
X175994724Y-93205328D01*
X175923534Y-93311870D01*
X175923529Y-93311880D01*
X175874502Y-93430245D01*
X175874495Y-93430265D01*
X175874493Y-93430273D01*
X175849500Y-93555923D01*
X175849500Y-93639702D01*
X175844237Y-93657622D01*
X175874494Y-93809726D01*
X175874495Y-93809732D01*
X175874502Y-93809753D01*
X175923529Y-93928118D01*
X175923534Y-93928128D01*
X175994724Y-94034670D01*
X175994725Y-94034671D01*
X175994730Y-94034677D01*
X176085321Y-94125268D01*
X176085327Y-94125273D01*
X176085328Y-94125274D01*
X176085331Y-94125276D01*
X176191866Y-94196461D01*
X176191872Y-94196464D01*
X176191873Y-94196465D01*
X176305362Y-94243473D01*
X176305947Y-94243724D01*
X176306141Y-94243884D01*
X176309053Y-94245261D01*
X176310252Y-94245499D01*
X176310256Y-94245501D01*
X176310259Y-94245501D01*
X176310260Y-94245501D01*
X176310261Y-94245502D01*
X176407899Y-94264924D01*
X176435927Y-94270500D01*
X176564071Y-94270500D01*
X176564072Y-94270500D01*
X176617612Y-94259849D01*
X176671153Y-94249199D01*
X176689744Y-94245501D01*
X176808127Y-94196465D01*
X176808132Y-94196461D01*
X176808135Y-94196460D01*
X176858462Y-94162832D01*
X176908216Y-94129587D01*
X176928621Y-94118563D01*
X176959706Y-94105362D01*
X177008170Y-94095500D01*
X182201109Y-94095500D01*
X182236041Y-94100521D01*
X182252422Y-94105331D01*
X182309442Y-94141120D01*
X182318373Y-94150992D01*
X182336904Y-94177886D01*
X182371355Y-94245500D01*
X182373240Y-94249199D01*
X182484310Y-94402073D01*
X182617927Y-94535690D01*
X182686483Y-94585499D01*
X182770796Y-94646757D01*
X182770797Y-94646757D01*
X182770801Y-94646760D01*
X182850347Y-94687290D01*
X182932722Y-94729263D01*
X182934320Y-94730199D01*
X182938037Y-94731999D01*
X182940021Y-94732985D01*
X182943775Y-94734043D01*
X183035497Y-94763846D01*
X183118881Y-94790940D01*
X183305514Y-94820500D01*
X183305519Y-94820500D01*
X183494485Y-94820500D01*
X183494486Y-94820500D01*
X183681118Y-94790940D01*
X183860832Y-94732547D01*
X184029199Y-94646760D01*
X184182073Y-94535690D01*
X184275217Y-94442545D01*
X184303457Y-94421404D01*
X184313391Y-94415980D01*
X184381661Y-94401127D01*
X184447126Y-94425541D01*
X184488999Y-94481473D01*
X184489001Y-94481477D01*
X184491682Y-94488665D01*
X184499500Y-94531999D01*
X184499500Y-94740857D01*
X184499350Y-94746945D01*
X184499051Y-94753028D01*
X184498604Y-94759095D01*
X184487852Y-94868255D01*
X184486066Y-94880294D01*
X184483703Y-94892172D01*
X184480747Y-94903973D01*
X184451566Y-95000170D01*
X184447469Y-95011622D01*
X184442828Y-95022828D01*
X184437622Y-95033835D01*
X184390239Y-95122481D01*
X184383983Y-95132918D01*
X184377251Y-95142993D01*
X184370002Y-95152767D01*
X184306230Y-95230473D01*
X184298058Y-95239489D01*
X184289489Y-95248058D01*
X184280473Y-95256230D01*
X184202767Y-95320002D01*
X184192993Y-95327251D01*
X184182918Y-95333983D01*
X184172481Y-95340239D01*
X184083835Y-95387622D01*
X184072828Y-95392828D01*
X184061622Y-95397469D01*
X184050170Y-95401566D01*
X183953973Y-95430747D01*
X183942170Y-95433703D01*
X183930291Y-95436066D01*
X183918254Y-95437852D01*
X183837215Y-95445834D01*
X183837214Y-95445834D01*
X183809089Y-95448604D01*
X183803027Y-95449051D01*
X183796948Y-95449350D01*
X183790856Y-95449500D01*
X149109143Y-95449500D01*
X149103052Y-95449350D01*
X149096972Y-95449051D01*
X149090908Y-95448604D01*
X149043081Y-95443893D01*
X149043081Y-95443892D01*
X148981745Y-95437852D01*
X148969707Y-95436066D01*
X148957828Y-95433703D01*
X148946025Y-95430747D01*
X148849824Y-95401565D01*
X148838366Y-95397465D01*
X148827169Y-95392827D01*
X148816169Y-95387624D01*
X148727518Y-95340239D01*
X148717080Y-95333983D01*
X148707005Y-95327251D01*
X148697231Y-95320002D01*
X148619525Y-95256230D01*
X148610509Y-95248058D01*
X148601940Y-95239489D01*
X148593768Y-95230473D01*
X148529996Y-95152767D01*
X148522752Y-95143001D01*
X148516009Y-95132908D01*
X148509757Y-95122476D01*
X148462374Y-95033829D01*
X148457171Y-95022829D01*
X148452533Y-95011632D01*
X148448434Y-95000175D01*
X148419251Y-94903973D01*
X148416292Y-94892159D01*
X148413931Y-94880285D01*
X148412147Y-94868258D01*
X148412147Y-94868255D01*
X148401392Y-94759058D01*
X148400948Y-94753028D01*
X148400647Y-94746917D01*
X148400500Y-94740857D01*
X148400500Y-94535454D01*
X148405521Y-94500527D01*
X148408707Y-94489674D01*
X148446477Y-94430893D01*
X148510031Y-94401864D01*
X148579186Y-94411802D01*
X148586172Y-94414992D01*
X148622342Y-94440105D01*
X148717927Y-94535690D01*
X148786483Y-94585499D01*
X148870796Y-94646757D01*
X148870797Y-94646757D01*
X148870801Y-94646760D01*
X148950347Y-94687290D01*
X149032722Y-94729263D01*
X149034320Y-94730199D01*
X149038037Y-94731999D01*
X149040021Y-94732985D01*
X149043775Y-94734043D01*
X149135497Y-94763846D01*
X149218881Y-94790940D01*
X149405514Y-94820500D01*
X149405519Y-94820500D01*
X149594485Y-94820500D01*
X149594486Y-94820500D01*
X149781118Y-94790940D01*
X149960832Y-94732547D01*
X150129199Y-94646760D01*
X150282073Y-94535690D01*
X150415690Y-94402073D01*
X150526760Y-94249199D01*
X150528645Y-94245501D01*
X150543216Y-94216900D01*
X150549744Y-94204089D01*
X150570077Y-94175245D01*
X150581803Y-94162830D01*
X150639572Y-94128277D01*
X150652423Y-94124800D01*
X150684797Y-94120500D01*
X151245890Y-94120500D01*
X151245892Y-94120500D01*
X151373186Y-94086392D01*
X151437744Y-94049118D01*
X151470506Y-94036002D01*
X151493525Y-94030417D01*
X151548782Y-94029685D01*
X151550692Y-94030095D01*
X151570149Y-94035976D01*
X151643436Y-94064877D01*
X151731898Y-94075500D01*
X151731903Y-94075500D01*
X152218097Y-94075500D01*
X152218102Y-94075500D01*
X152306564Y-94064877D01*
X152405187Y-94025984D01*
X152439524Y-94017841D01*
X152455096Y-94016436D01*
X152523630Y-94030014D01*
X152536505Y-94036736D01*
X152566797Y-94058975D01*
X152913322Y-94405500D01*
X153027450Y-94471392D01*
X153154743Y-94505500D01*
X153154744Y-94505500D01*
X153154745Y-94505500D01*
X154309419Y-94505500D01*
X154309421Y-94505500D01*
X154436715Y-94471392D01*
X154550843Y-94405500D01*
X155206919Y-93749423D01*
X155235169Y-93728275D01*
X155258261Y-93715667D01*
X155317686Y-93700500D01*
X159768394Y-93700500D01*
X159768396Y-93700500D01*
X159895690Y-93666392D01*
X160009818Y-93600500D01*
X160144906Y-93465410D01*
X160173155Y-93444264D01*
X160186876Y-93436772D01*
X160255130Y-93421923D01*
X160256940Y-93422052D01*
X160315149Y-93441426D01*
X160321657Y-93445609D01*
X160342292Y-93462239D01*
X160385321Y-93505268D01*
X160385327Y-93505273D01*
X160385331Y-93505276D01*
X160491866Y-93576461D01*
X160491875Y-93576466D01*
X160499200Y-93579500D01*
X160499202Y-93579501D01*
X160604639Y-93623175D01*
X160604640Y-93623175D01*
X160610256Y-93625501D01*
X160735927Y-93650500D01*
X160864071Y-93650500D01*
X160864073Y-93650500D01*
X160948615Y-93633682D01*
X160989744Y-93625501D01*
X161108127Y-93576465D01*
X161214669Y-93505276D01*
X161305276Y-93414669D01*
X161376465Y-93308127D01*
X161425501Y-93189744D01*
X161431082Y-93161681D01*
X161442823Y-93128400D01*
X161451342Y-93112115D01*
X161495487Y-93064448D01*
X161496191Y-93064008D01*
X161510059Y-93055339D01*
X161510058Y-93055338D01*
X161512354Y-93053904D01*
X161521778Y-93048570D01*
X161634294Y-92991241D01*
X161726241Y-92899294D01*
X161785275Y-92783433D01*
X161786582Y-92775185D01*
X161797807Y-92704310D01*
X161800500Y-92687307D01*
X161800499Y-92442694D01*
X161800499Y-92442693D01*
X161800499Y-92442688D01*
X161786663Y-92355328D01*
X161786537Y-92354452D01*
X161786619Y-92353880D01*
X161786418Y-92351334D01*
X161786415Y-92351319D01*
X161785594Y-92347195D01*
X161785275Y-92346568D01*
X161785275Y-92346567D01*
X161767751Y-92312176D01*
X161756367Y-92278769D01*
X161755096Y-92272003D01*
X161752257Y-92256881D01*
X161755153Y-92199052D01*
X161756411Y-92194769D01*
X161764901Y-92173418D01*
X161785275Y-92133433D01*
X161785278Y-92133418D01*
X161800499Y-92037312D01*
X161800499Y-92037311D01*
X161800500Y-92037307D01*
X161800499Y-91792694D01*
X161800499Y-91792693D01*
X161800499Y-91792688D01*
X161786663Y-91705328D01*
X161786537Y-91704452D01*
X161786619Y-91703880D01*
X161786418Y-91701334D01*
X161786415Y-91701319D01*
X161785594Y-91697195D01*
X161785275Y-91696568D01*
X161785275Y-91696567D01*
X161767751Y-91662176D01*
X161756367Y-91628769D01*
X161752257Y-91606882D01*
X161755151Y-91549060D01*
X161756409Y-91544776D01*
X161764896Y-91523426D01*
X161785275Y-91483433D01*
X161785278Y-91483418D01*
X161800499Y-91387312D01*
X161800499Y-91387311D01*
X161800500Y-91387307D01*
X161800499Y-91142694D01*
X161800499Y-91142693D01*
X161800499Y-91142688D01*
X161786663Y-91055328D01*
X161786537Y-91054452D01*
X161786619Y-91053880D01*
X161786418Y-91051334D01*
X161786415Y-91051319D01*
X161785594Y-91047195D01*
X161785275Y-91046568D01*
X161785275Y-91046567D01*
X161767751Y-91012176D01*
X161756367Y-90978769D01*
X161755723Y-90975342D01*
X161752257Y-90956881D01*
X161755147Y-90899070D01*
X161756410Y-90894771D01*
X161764895Y-90873429D01*
X161785275Y-90833433D01*
X161788147Y-90815304D01*
X161797091Y-90758832D01*
X161800111Y-90739766D01*
X161800437Y-90737941D01*
X161800499Y-90737311D01*
X161800500Y-90737307D01*
X161800499Y-90492694D01*
X161800499Y-90492688D01*
X161786663Y-90405328D01*
X161786537Y-90404452D01*
X161786619Y-90403880D01*
X161786418Y-90401334D01*
X161786415Y-90401319D01*
X161785594Y-90397195D01*
X161785275Y-90396568D01*
X161785275Y-90396567D01*
X161767751Y-90362176D01*
X161756367Y-90328769D01*
X161755753Y-90325501D01*
X161752257Y-90306881D01*
X161755151Y-90249060D01*
X161756409Y-90244776D01*
X161764896Y-90223426D01*
X161785275Y-90183433D01*
X161786379Y-90176466D01*
X161800499Y-90087312D01*
X161800499Y-90087311D01*
X161800500Y-90087307D01*
X161800499Y-89842694D01*
X161800499Y-89842693D01*
X161800499Y-89842688D01*
X161786659Y-89755309D01*
X161786538Y-89754461D01*
X161786620Y-89753889D01*
X161786419Y-89751334D01*
X161785352Y-89746891D01*
X161785278Y-89746586D01*
X161785276Y-89746571D01*
X161785276Y-89746570D01*
X161785275Y-89746568D01*
X161785275Y-89746567D01*
X161726241Y-89630706D01*
X161726239Y-89630704D01*
X161726236Y-89630700D01*
X161634299Y-89538763D01*
X161634295Y-89538760D01*
X161634294Y-89538759D01*
X161518433Y-89479725D01*
X161518432Y-89479724D01*
X161518425Y-89479722D01*
X161422307Y-89464500D01*
X161215893Y-89464500D01*
X161215892Y-89464500D01*
X160683660Y-89464500D01*
X160651558Y-89460272D01*
X160647398Y-89459157D01*
X160587740Y-89422788D01*
X160557215Y-89359939D01*
X160555500Y-89339385D01*
X160555500Y-88924008D01*
X160555499Y-88923991D01*
X160554835Y-88917818D01*
X160547375Y-88848430D01*
X160536169Y-88796919D01*
X160518497Y-88739536D01*
X160457463Y-88639686D01*
X160437815Y-88617011D01*
X160411720Y-88586895D01*
X160411712Y-88586887D01*
X160411708Y-88586882D01*
X160348525Y-88529589D01*
X160348523Y-88529588D01*
X160348516Y-88529583D01*
X160265090Y-88489185D01*
X160248640Y-88479595D01*
X160246091Y-88477834D01*
X160177841Y-88425464D01*
X160171216Y-88422720D01*
X160157284Y-88416949D01*
X160035826Y-88366639D01*
X160032899Y-88365303D01*
X160031761Y-88364954D01*
X159916240Y-88349747D01*
X159914558Y-88349500D01*
X159914367Y-88349500D01*
X159914361Y-88349500D01*
X159914354Y-88349500D01*
X158885636Y-88349500D01*
X158885633Y-88349500D01*
X158768252Y-88364951D01*
X158768241Y-88364954D01*
X158768235Y-88364956D01*
X158768223Y-88364961D01*
X158766180Y-88365807D01*
X158731992Y-88374529D01*
X158716451Y-88376199D01*
X158647693Y-88363790D01*
X158647691Y-88363789D01*
X158637708Y-88358791D01*
X158605539Y-88335592D01*
X158514677Y-88244730D01*
X158514671Y-88244725D01*
X158514670Y-88244724D01*
X158408127Y-88173534D01*
X158408128Y-88173534D01*
X158408118Y-88173529D01*
X158289753Y-88124502D01*
X158289733Y-88124495D01*
X158289725Y-88124493D01*
X158164074Y-88099500D01*
X158164071Y-88099500D01*
X158164069Y-88099500D01*
X158035931Y-88099500D01*
X158035929Y-88099500D01*
X158035926Y-88099500D01*
X157910273Y-88124493D01*
X157910265Y-88124495D01*
X157910245Y-88124502D01*
X157791880Y-88173529D01*
X157791870Y-88173534D01*
X157725847Y-88217650D01*
X157717049Y-88223530D01*
X157716941Y-88223602D01*
X157650264Y-88244480D01*
X157648050Y-88244500D01*
X154977119Y-88244500D01*
X154911617Y-88225266D01*
X154911489Y-88225488D01*
X154910586Y-88224963D01*
X154910080Y-88224815D01*
X154908229Y-88223603D01*
X154908128Y-88223535D01*
X154789753Y-88174502D01*
X154789733Y-88174495D01*
X154789725Y-88174493D01*
X154664074Y-88149500D01*
X154664071Y-88149500D01*
X154664069Y-88149500D01*
X154535931Y-88149500D01*
X154535929Y-88149500D01*
X154535926Y-88149500D01*
X154410273Y-88174493D01*
X154410265Y-88174495D01*
X154410245Y-88174502D01*
X154291879Y-88223530D01*
X154291870Y-88223535D01*
X154291869Y-88223536D01*
X154291766Y-88223604D01*
X154291706Y-88223623D01*
X154286498Y-88226407D01*
X154285970Y-88225419D01*
X154225090Y-88244480D01*
X154222879Y-88244500D01*
X151798614Y-88244500D01*
X151731575Y-88224815D01*
X151710933Y-88208181D01*
X150687702Y-87184949D01*
X150659384Y-87159512D01*
X150659383Y-87159511D01*
X150638733Y-87142870D01*
X150631914Y-87137716D01*
X150621163Y-87129589D01*
X150515836Y-87078586D01*
X150515832Y-87078584D01*
X150448798Y-87058901D01*
X150448792Y-87058899D01*
X150358743Y-87045952D01*
X150348638Y-87044500D01*
X150348637Y-87044500D01*
X148524500Y-87044500D01*
X148457461Y-87024815D01*
X148411706Y-86972011D01*
X148400500Y-86920500D01*
X148400500Y-80129500D01*
X148420185Y-80062461D01*
X148472989Y-80016706D01*
X148524500Y-80005500D01*
X157020500Y-80005500D01*
X157087539Y-80025185D01*
G37*
%TD.AperFunction*%
%TA.AperFunction,Conductor*%
G36*
X154263426Y-92760521D02*
G01*
X154288670Y-92767934D01*
X154341416Y-92799230D01*
X154441161Y-92898975D01*
X154462313Y-92927231D01*
X154469805Y-92940952D01*
X154484657Y-93009212D01*
X154484528Y-93011018D01*
X154465160Y-93069220D01*
X154462167Y-93073879D01*
X154460979Y-93075727D01*
X154444343Y-93096370D01*
X154085141Y-93455573D01*
X154056890Y-93476722D01*
X154033802Y-93489330D01*
X153974372Y-93504500D01*
X153497142Y-93504500D01*
X153462206Y-93499477D01*
X153436964Y-93492065D01*
X153384219Y-93460769D01*
X153349426Y-93425976D01*
X153328274Y-93397720D01*
X153315667Y-93374631D01*
X153300500Y-93315206D01*
X153300500Y-93184110D01*
X153300500Y-93184108D01*
X153266392Y-93056814D01*
X153265540Y-93055339D01*
X153228279Y-92990801D01*
X153208726Y-92956934D01*
X153195613Y-92924181D01*
X153192338Y-92910682D01*
X153193186Y-92892879D01*
X153192254Y-92889036D01*
X153193547Y-92885298D01*
X153195663Y-92840897D01*
X153236153Y-92784012D01*
X153237439Y-92783002D01*
X153290669Y-92758686D01*
X153295596Y-92757737D01*
X153319043Y-92755500D01*
X154228494Y-92755500D01*
X154263426Y-92760521D01*
G37*
%TD.AperFunction*%
%TA.AperFunction,Conductor*%
G36*
X151063426Y-91585521D02*
G01*
X151088670Y-91592934D01*
X151141416Y-91624230D01*
X151175573Y-91658387D01*
X151196723Y-91686639D01*
X151209331Y-91709728D01*
X151224500Y-91769157D01*
X151224500Y-91818102D01*
X151228871Y-91854498D01*
X151228871Y-91854499D01*
X151228871Y-91854500D01*
X151235121Y-91906557D01*
X151235121Y-91906558D01*
X151235122Y-91906561D01*
X151290639Y-92047343D01*
X151290640Y-92047345D01*
X151382076Y-92167922D01*
X151507235Y-92262832D01*
X151507233Y-92262834D01*
X151509567Y-92264461D01*
X151526374Y-92277538D01*
X151567197Y-92334242D01*
X151570882Y-92404014D01*
X151536261Y-92464703D01*
X151536260Y-92464704D01*
X151530192Y-92470550D01*
X151507085Y-92486886D01*
X151507533Y-92487607D01*
X151502659Y-92490636D01*
X151382076Y-92582076D01*
X151290637Y-92702658D01*
X151290636Y-92702660D01*
X151240379Y-92830103D01*
X151228711Y-92852621D01*
X151215019Y-92873496D01*
X151199014Y-92893169D01*
X151021610Y-93070574D01*
X150993360Y-93091723D01*
X150970274Y-93104330D01*
X150910843Y-93119500D01*
X150686153Y-93119500D01*
X150651216Y-93114476D01*
X150634836Y-93109666D01*
X150577818Y-93073879D01*
X150568888Y-93064008D01*
X150550359Y-93037115D01*
X150526984Y-92991240D01*
X150526994Y-92991234D01*
X150526962Y-92991198D01*
X150526760Y-92990801D01*
X150415690Y-92837927D01*
X150282073Y-92704310D01*
X150129199Y-92593240D01*
X150082603Y-92569498D01*
X149960833Y-92507452D01*
X149856153Y-92473440D01*
X149799317Y-92435018D01*
X149798462Y-92433995D01*
X149789146Y-92427626D01*
X149761943Y-92363269D01*
X149773852Y-92294422D01*
X149793767Y-92265292D01*
X149795871Y-92263000D01*
X149848907Y-92228912D01*
X149960832Y-92192547D01*
X150129199Y-92106760D01*
X150282073Y-91995690D01*
X150415690Y-91862073D01*
X150526760Y-91709199D01*
X150549744Y-91664089D01*
X150570077Y-91635245D01*
X150581803Y-91622830D01*
X150639572Y-91588277D01*
X150652423Y-91584800D01*
X150684797Y-91580500D01*
X151028494Y-91580500D01*
X151063426Y-91585521D01*
G37*
%TD.AperFunction*%
%TA.AperFunction,Conductor*%
G36*
X154089120Y-90160320D02*
G01*
X154156141Y-90180061D01*
X154160796Y-90183210D01*
X154169306Y-90189251D01*
X154185327Y-90205273D01*
X154185331Y-90205276D01*
X154291866Y-90276461D01*
X154291872Y-90276464D01*
X154291873Y-90276465D01*
X154404651Y-90323179D01*
X154409053Y-90325261D01*
X154410252Y-90325499D01*
X154410256Y-90325501D01*
X154410259Y-90325501D01*
X154410260Y-90325501D01*
X154410261Y-90325502D01*
X154507899Y-90344924D01*
X154535927Y-90350500D01*
X154664071Y-90350500D01*
X154664073Y-90350500D01*
X154748615Y-90333682D01*
X154789744Y-90325501D01*
X154908127Y-90276465D01*
X155014669Y-90205276D01*
X155022438Y-90197506D01*
X155083758Y-90164021D01*
X155110225Y-90161186D01*
X157736578Y-90163411D01*
X157752618Y-90166701D01*
X157754401Y-90166380D01*
X157768103Y-90169877D01*
X157785185Y-90173381D01*
X157790928Y-90175834D01*
X157791866Y-90176461D01*
X157791875Y-90176466D01*
X157808693Y-90183432D01*
X157809321Y-90183692D01*
X157904644Y-90223177D01*
X157909050Y-90225261D01*
X157910260Y-90225501D01*
X157910261Y-90225502D01*
X157915379Y-90226520D01*
X158035927Y-90250500D01*
X158035928Y-90250500D01*
X158083821Y-90250500D01*
X158118752Y-90255522D01*
X158130721Y-90259036D01*
X158189500Y-90296808D01*
X158218527Y-90360363D01*
X158210068Y-90426145D01*
X158206218Y-90435286D01*
X158190315Y-90462642D01*
X158125464Y-90547155D01*
X158125462Y-90547159D01*
X158072007Y-90676210D01*
X158072005Y-90676217D01*
X158064956Y-90693237D01*
X158064955Y-90693239D01*
X158050525Y-90802853D01*
X158050230Y-90805090D01*
X158050229Y-90805099D01*
X158049500Y-90810639D01*
X158049500Y-92057670D01*
X158044477Y-92092604D01*
X158040073Y-92107603D01*
X158002299Y-92166381D01*
X158002289Y-92166390D01*
X158000920Y-92167576D01*
X157946098Y-92195018D01*
X157938540Y-92196663D01*
X157912169Y-92199500D01*
X155226506Y-92199500D01*
X155191570Y-92194477D01*
X155166328Y-92187065D01*
X155113583Y-92155769D01*
X154812316Y-91854502D01*
X154812314Y-91854500D01*
X154749261Y-91818096D01*
X154720624Y-91801562D01*
X154698188Y-91788608D01*
X154634539Y-91771554D01*
X154625593Y-91769157D01*
X154570892Y-91754500D01*
X154570891Y-91754500D01*
X153006505Y-91754500D01*
X152971568Y-91749476D01*
X152946327Y-91742064D01*
X152893583Y-91710769D01*
X152774425Y-91591611D01*
X152753272Y-91563353D01*
X152740666Y-91540265D01*
X152725500Y-91480842D01*
X152725500Y-91181903D01*
X152725500Y-91181898D01*
X152714877Y-91093436D01*
X152659361Y-90952658D01*
X152659360Y-90952657D01*
X152659360Y-90952656D01*
X152655630Y-90947737D01*
X152655318Y-90947140D01*
X152654240Y-90945904D01*
X152567922Y-90832076D01*
X152447345Y-90740640D01*
X152447339Y-90740637D01*
X152351192Y-90702721D01*
X152351191Y-90702721D01*
X152307543Y-90685508D01*
X152305583Y-90684716D01*
X152305311Y-90684603D01*
X152299199Y-90684238D01*
X152259739Y-90679500D01*
X152218102Y-90674500D01*
X152218097Y-90674500D01*
X151731900Y-90674500D01*
X151731898Y-90674500D01*
X151723595Y-90675496D01*
X151684441Y-90680197D01*
X151649162Y-90679375D01*
X151619030Y-90674324D01*
X151577531Y-90659418D01*
X151570686Y-90655466D01*
X151545457Y-90640900D01*
X151498187Y-90613608D01*
X151415957Y-90591575D01*
X151415957Y-90591574D01*
X151370893Y-90579500D01*
X151370892Y-90579500D01*
X151370891Y-90579500D01*
X150686153Y-90579500D01*
X150651216Y-90574476D01*
X150634836Y-90569666D01*
X150577823Y-90533884D01*
X150568891Y-90524012D01*
X150550359Y-90497118D01*
X150526759Y-90450800D01*
X150526168Y-90449986D01*
X150456583Y-90354211D01*
X150433104Y-90288406D01*
X150448929Y-90220352D01*
X150499035Y-90171658D01*
X150557005Y-90157327D01*
X154089120Y-90160320D01*
G37*
%TD.AperFunction*%
%TA.AperFunction,Conductor*%
G36*
X165541032Y-78707382D02*
G01*
X165549685Y-78709103D01*
X165574068Y-78713952D01*
X165597328Y-78721009D01*
X165628450Y-78733900D01*
X165649890Y-78745360D01*
X165677898Y-78764075D01*
X165696685Y-78779493D01*
X165720501Y-78803308D01*
X165735925Y-78822101D01*
X165754639Y-78850109D01*
X165766096Y-78871544D01*
X165778989Y-78902669D01*
X165786046Y-78925929D01*
X165792617Y-78958963D01*
X165795000Y-78983153D01*
X165795000Y-79016839D01*
X165792616Y-79041035D01*
X165786043Y-79074073D01*
X165778988Y-79097330D01*
X165766096Y-79128454D01*
X165754639Y-79149889D01*
X165714747Y-79209594D01*
X165714738Y-79209608D01*
X165678367Y-79279901D01*
X165678362Y-79279912D01*
X165658728Y-79331149D01*
X165658724Y-79331163D01*
X165641448Y-79391949D01*
X165641448Y-79391952D01*
X165638811Y-79508949D01*
X165648755Y-79578107D01*
X165670933Y-79660464D01*
X165731967Y-79760314D01*
X165731972Y-79760320D01*
X165731973Y-79760321D01*
X165777709Y-79813104D01*
X165777715Y-79813110D01*
X165777722Y-79813118D01*
X165840905Y-79870411D01*
X165946232Y-79921414D01*
X166013271Y-79941099D01*
X166013272Y-79941099D01*
X166013275Y-79941100D01*
X166043139Y-79945393D01*
X166113430Y-79955500D01*
X167186565Y-79955500D01*
X167186570Y-79955500D01*
X167265233Y-79946688D01*
X167318750Y-79934545D01*
X167378905Y-79915133D01*
X167477650Y-79852326D01*
X167529628Y-79805636D01*
X167585783Y-79741441D01*
X167634898Y-79635220D01*
X167653383Y-79567840D01*
X167665918Y-79483472D01*
X167649808Y-79367560D01*
X167628930Y-79300882D01*
X167585259Y-79209603D01*
X167545357Y-79149886D01*
X167533902Y-79128454D01*
X167521004Y-79097316D01*
X167513952Y-79074070D01*
X167507381Y-79041036D01*
X167505000Y-79016850D01*
X167505000Y-78983156D01*
X167507382Y-78958969D01*
X167513952Y-78925934D01*
X167521009Y-78902669D01*
X167533900Y-78871547D01*
X167545359Y-78850109D01*
X167564076Y-78822097D01*
X167579489Y-78803316D01*
X167603314Y-78779490D01*
X167622088Y-78764081D01*
X167650119Y-78745352D01*
X167671533Y-78733905D01*
X167702679Y-78721004D01*
X167725931Y-78713952D01*
X167732630Y-78712620D01*
X167758970Y-78707382D01*
X167783156Y-78705000D01*
X167816843Y-78705000D01*
X167841032Y-78707382D01*
X167849685Y-78709103D01*
X167874068Y-78713952D01*
X167897328Y-78721009D01*
X167928450Y-78733900D01*
X167949890Y-78745360D01*
X167977898Y-78764075D01*
X167996685Y-78779493D01*
X168020501Y-78803308D01*
X168035925Y-78822101D01*
X168054639Y-78850109D01*
X168066096Y-78871544D01*
X168078989Y-78902669D01*
X168086046Y-78925929D01*
X168092617Y-78958963D01*
X168095000Y-78983153D01*
X168095000Y-79016839D01*
X168092616Y-79041035D01*
X168086043Y-79074073D01*
X168078988Y-79097330D01*
X168066096Y-79128454D01*
X168054639Y-79149889D01*
X168014747Y-79209594D01*
X168014738Y-79209608D01*
X167978367Y-79279901D01*
X167978362Y-79279912D01*
X167958728Y-79331149D01*
X167958724Y-79331163D01*
X167941448Y-79391949D01*
X167941448Y-79391952D01*
X167938811Y-79508949D01*
X167948755Y-79578107D01*
X167970933Y-79660464D01*
X168031967Y-79760314D01*
X168031972Y-79760320D01*
X168031973Y-79760321D01*
X168077709Y-79813104D01*
X168077715Y-79813110D01*
X168077722Y-79813118D01*
X168140905Y-79870411D01*
X168246232Y-79921414D01*
X168313271Y-79941099D01*
X168313272Y-79941099D01*
X168313275Y-79941100D01*
X168343139Y-79945393D01*
X168413430Y-79955500D01*
X169786565Y-79955500D01*
X169786570Y-79955500D01*
X169865233Y-79946688D01*
X169918750Y-79934545D01*
X169978905Y-79915133D01*
X170077650Y-79852326D01*
X170129628Y-79805636D01*
X170185783Y-79741441D01*
X170234898Y-79635220D01*
X170253383Y-79567840D01*
X170265918Y-79483472D01*
X170249808Y-79367560D01*
X170228930Y-79300882D01*
X170185259Y-79209603D01*
X170145357Y-79149886D01*
X170133902Y-79128454D01*
X170121004Y-79097316D01*
X170113952Y-79074070D01*
X170107381Y-79041036D01*
X170105000Y-79016850D01*
X170105000Y-78983156D01*
X170107382Y-78958969D01*
X170113952Y-78925934D01*
X170121009Y-78902669D01*
X170133900Y-78871547D01*
X170145359Y-78850109D01*
X170164076Y-78822097D01*
X170179489Y-78803316D01*
X170203314Y-78779490D01*
X170222088Y-78764081D01*
X170250119Y-78745352D01*
X170271533Y-78733905D01*
X170302679Y-78721004D01*
X170325931Y-78713952D01*
X170332630Y-78712620D01*
X170358970Y-78707382D01*
X170383156Y-78705000D01*
X170416843Y-78705000D01*
X170441032Y-78707382D01*
X170449685Y-78709103D01*
X170474068Y-78713952D01*
X170497328Y-78721009D01*
X170528450Y-78733900D01*
X170549890Y-78745360D01*
X170577898Y-78764075D01*
X170596685Y-78779493D01*
X170620501Y-78803308D01*
X170635925Y-78822101D01*
X170654639Y-78850109D01*
X170666096Y-78871544D01*
X170678989Y-78902669D01*
X170686046Y-78925929D01*
X170692617Y-78958963D01*
X170695000Y-78983153D01*
X170695000Y-79016839D01*
X170692616Y-79041035D01*
X170686043Y-79074073D01*
X170678988Y-79097330D01*
X170666096Y-79128454D01*
X170654639Y-79149889D01*
X170614747Y-79209594D01*
X170614738Y-79209608D01*
X170578367Y-79279901D01*
X170578362Y-79279912D01*
X170558728Y-79331149D01*
X170558724Y-79331163D01*
X170541448Y-79391949D01*
X170541448Y-79391952D01*
X170538811Y-79508949D01*
X170548755Y-79578107D01*
X170570933Y-79660464D01*
X170631967Y-79760314D01*
X170631972Y-79760320D01*
X170631973Y-79760321D01*
X170677709Y-79813104D01*
X170677715Y-79813110D01*
X170677722Y-79813118D01*
X170740905Y-79870411D01*
X170846232Y-79921414D01*
X170913271Y-79941099D01*
X170913272Y-79941099D01*
X170913275Y-79941100D01*
X170943139Y-79945393D01*
X171013430Y-79955500D01*
X173570500Y-79955500D01*
X173637539Y-79975185D01*
X173683294Y-80027989D01*
X173694500Y-80079500D01*
X173694500Y-80938573D01*
X173674815Y-81005612D01*
X173622011Y-81051367D01*
X173552853Y-81061311D01*
X173489297Y-81032286D01*
X173482832Y-81026268D01*
X173479636Y-81023073D01*
X173465148Y-81005664D01*
X173432536Y-80958259D01*
X173403258Y-80925304D01*
X173397868Y-80918802D01*
X173375523Y-80889899D01*
X173371248Y-80885755D01*
X173371241Y-80885748D01*
X173371235Y-80885743D01*
X173371229Y-80885738D01*
X173302826Y-80833868D01*
X173302815Y-80833861D01*
X173302811Y-80833858D01*
X173294345Y-80828923D01*
X173251449Y-80803921D01*
X173251446Y-80803920D01*
X173251442Y-80803918D01*
X173251440Y-80803917D01*
X173172600Y-80769962D01*
X173172597Y-80769961D01*
X173172585Y-80769957D01*
X173152058Y-80763928D01*
X173102462Y-80753139D01*
X173102459Y-80753138D01*
X173102452Y-80753137D01*
X173067520Y-80748116D01*
X173067511Y-80748115D01*
X173067510Y-80748115D01*
X173016949Y-80744500D01*
X173016942Y-80744500D01*
X169737332Y-80744500D01*
X169737331Y-80744500D01*
X169699339Y-80746536D01*
X169687886Y-80747767D01*
X169672981Y-80749370D01*
X169672969Y-80749371D01*
X169672968Y-80749372D01*
X169635449Y-80755449D01*
X169635431Y-80755453D01*
X169627876Y-80757096D01*
X169627859Y-80757101D01*
X169544256Y-80786598D01*
X169544244Y-80786603D01*
X169489376Y-80814078D01*
X169489365Y-80814084D01*
X169415651Y-80863362D01*
X169414286Y-80864545D01*
X169348077Y-80940991D01*
X169310339Y-80999731D01*
X169310334Y-80999739D01*
X169268326Y-81091740D01*
X169265286Y-81102091D01*
X169263924Y-81106733D01*
X169259504Y-81127048D01*
X169253140Y-81156300D01*
X169248119Y-81191223D01*
X169248117Y-81191246D01*
X169244500Y-81241825D01*
X169244500Y-85317478D01*
X169246247Y-85352670D01*
X169246248Y-85352678D01*
X169248684Y-85377149D01*
X169253917Y-85412024D01*
X169253920Y-85412042D01*
X169253923Y-85412056D01*
X169255099Y-85417899D01*
X169257596Y-85425443D01*
X169282061Y-85499369D01*
X169307417Y-85553144D01*
X169307420Y-85553148D01*
X169353108Y-85625764D01*
X169353114Y-85625772D01*
X169353116Y-85625774D01*
X169354908Y-85627979D01*
X169354910Y-85627981D01*
X169354911Y-85627982D01*
X169429330Y-85696664D01*
X169486898Y-85736252D01*
X169577587Y-85781139D01*
X169592445Y-85786010D01*
X169641645Y-85798332D01*
X169665408Y-85802509D01*
X169676390Y-85804440D01*
X169676395Y-85804440D01*
X169676398Y-85804441D01*
X169726841Y-85809636D01*
X170880089Y-85845674D01*
X170946477Y-85867442D01*
X170990560Y-85921650D01*
X170990674Y-85921921D01*
X171750557Y-87745640D01*
X171750560Y-87745645D01*
X171776466Y-87796067D01*
X171779078Y-87800285D01*
X171797211Y-87829571D01*
X171797216Y-87829578D01*
X171797218Y-87829581D01*
X171818875Y-87859021D01*
X171830812Y-87875249D01*
X171830817Y-87875255D01*
X171839799Y-87885620D01*
X171916248Y-87951859D01*
X171916253Y-87951863D01*
X171916258Y-87951867D01*
X171916262Y-87951869D01*
X171916268Y-87951874D01*
X171958566Y-87979057D01*
X171975026Y-87989635D01*
X172067049Y-88031664D01*
X172082048Y-88036069D01*
X172131618Y-88046855D01*
X172166559Y-88051880D01*
X172217164Y-88055500D01*
X175162651Y-88055500D01*
X175162668Y-88055500D01*
X175200693Y-88053460D01*
X175227064Y-88050623D01*
X175264644Y-88044531D01*
X175272202Y-88042886D01*
X175355792Y-88013381D01*
X175410653Y-87985905D01*
X175484346Y-87936638D01*
X175485715Y-87935451D01*
X175551913Y-87859021D01*
X175589656Y-87800278D01*
X175631662Y-87708293D01*
X175636067Y-87693295D01*
X175646855Y-87643715D01*
X175651880Y-87608771D01*
X175655500Y-87558170D01*
X175655500Y-86724500D01*
X175675185Y-86657461D01*
X175727989Y-86611706D01*
X175779500Y-86600500D01*
X176182073Y-86600500D01*
X176217005Y-86605521D01*
X176242249Y-86612934D01*
X176294995Y-86644230D01*
X176550573Y-86899808D01*
X176571723Y-86928060D01*
X176584331Y-86951149D01*
X176599500Y-87010578D01*
X176599500Y-87482073D01*
X176594476Y-87517010D01*
X176587064Y-87542251D01*
X176555769Y-87594995D01*
X175432191Y-88718573D01*
X175403940Y-88739722D01*
X175380852Y-88752330D01*
X175321422Y-88767500D01*
X170517928Y-88767500D01*
X170482992Y-88762477D01*
X170457750Y-88755065D01*
X170405005Y-88723769D01*
X170125715Y-88444479D01*
X170072499Y-88413755D01*
X170023266Y-88385331D01*
X170023265Y-88385330D01*
X169988783Y-88365422D01*
X169929364Y-88349501D01*
X169922275Y-88347601D01*
X169922269Y-88347599D01*
X169869032Y-88333334D01*
X169836057Y-88324499D01*
X169836055Y-88324499D01*
X169668443Y-88324499D01*
X169668380Y-88324500D01*
X169548470Y-88324500D01*
X169513534Y-88319477D01*
X169491517Y-88313012D01*
X169442231Y-88285044D01*
X169439822Y-88282815D01*
X169425251Y-88266742D01*
X169417921Y-88257077D01*
X169417920Y-88257076D01*
X169297345Y-88165640D01*
X169297343Y-88165639D01*
X169211490Y-88131783D01*
X169156559Y-88110121D01*
X169117152Y-88105389D01*
X169110926Y-88104642D01*
X169110925Y-88104641D01*
X169083220Y-88101315D01*
X169068102Y-88099500D01*
X169068098Y-88099500D01*
X168581901Y-88099500D01*
X168581898Y-88099500D01*
X168571560Y-88100741D01*
X168542853Y-88104187D01*
X168542853Y-88104188D01*
X168536920Y-88104900D01*
X168493439Y-88110121D01*
X168352653Y-88165640D01*
X168232076Y-88257076D01*
X168140638Y-88377656D01*
X168140637Y-88377660D01*
X168121892Y-88425191D01*
X168104410Y-88455837D01*
X168097466Y-88464763D01*
X168040766Y-88505590D01*
X167970994Y-88509280D01*
X167910302Y-88474663D01*
X167910297Y-88474658D01*
X167905868Y-88470061D01*
X167879813Y-88429519D01*
X167859362Y-88377660D01*
X167859361Y-88377658D01*
X167857668Y-88375425D01*
X167767922Y-88257076D01*
X167647345Y-88165640D01*
X167647343Y-88165639D01*
X167561490Y-88131783D01*
X167506559Y-88110121D01*
X167467152Y-88105389D01*
X167460926Y-88104642D01*
X167460925Y-88104641D01*
X167433220Y-88101315D01*
X167418102Y-88099500D01*
X167418098Y-88099500D01*
X166931901Y-88099500D01*
X166931898Y-88099500D01*
X166921560Y-88100741D01*
X166892853Y-88104187D01*
X166892853Y-88104188D01*
X166886920Y-88104900D01*
X166843439Y-88110121D01*
X166702653Y-88165640D01*
X166582081Y-88257073D01*
X166582076Y-88257078D01*
X166503104Y-88361219D01*
X166477997Y-88386017D01*
X166458770Y-88400225D01*
X166393160Y-88424236D01*
X166385077Y-88424500D01*
X166334107Y-88424500D01*
X166215677Y-88456233D01*
X166215667Y-88456236D01*
X166212628Y-88457050D01*
X166212558Y-88457067D01*
X166206818Y-88458605D01*
X166192686Y-88466763D01*
X166192677Y-88466769D01*
X166100288Y-88520111D01*
X166092684Y-88524501D01*
X166090758Y-88526231D01*
X166088702Y-88528483D01*
X165976609Y-88640575D01*
X165948357Y-88661724D01*
X165925270Y-88674331D01*
X165865841Y-88689500D01*
X165793230Y-88689500D01*
X165726191Y-88669815D01*
X165680436Y-88617011D01*
X165670492Y-88547853D01*
X165697259Y-88486978D01*
X165754555Y-88416949D01*
X166988953Y-86908242D01*
X167028205Y-86849069D01*
X167051211Y-86805482D01*
X167077918Y-86739692D01*
X167086082Y-86711887D01*
X167096862Y-86662329D01*
X167101885Y-86627395D01*
X167105504Y-86576800D01*
X167105502Y-84984898D01*
X167125186Y-84917860D01*
X167131114Y-84909429D01*
X167174536Y-84852842D01*
X167235044Y-84706764D01*
X167250500Y-84589363D01*
X167250499Y-81410638D01*
X167250499Y-81410637D01*
X167250499Y-81410634D01*
X167236039Y-81300791D01*
X167235973Y-81300251D01*
X167236019Y-81299971D01*
X167235839Y-81297239D01*
X167235704Y-81296413D01*
X167235143Y-81293710D01*
X167235048Y-81293245D01*
X167174537Y-81147161D01*
X167174536Y-81147158D01*
X167078282Y-81021718D01*
X166952842Y-80925464D01*
X166952838Y-80925462D01*
X166806764Y-80864956D01*
X166806762Y-80864955D01*
X166689372Y-80849501D01*
X166689369Y-80849500D01*
X166689363Y-80849500D01*
X166689356Y-80849500D01*
X166689304Y-80849500D01*
X163510632Y-80849500D01*
X163393255Y-80864950D01*
X163393244Y-80864953D01*
X163393226Y-80864959D01*
X163276953Y-80913121D01*
X163207483Y-80920590D01*
X163145004Y-80889315D01*
X163109352Y-80829226D01*
X163105500Y-80798560D01*
X163105500Y-80079500D01*
X163125185Y-80012461D01*
X163177989Y-79966706D01*
X163229500Y-79955500D01*
X164886565Y-79955500D01*
X164886570Y-79955500D01*
X164965233Y-79946688D01*
X165018750Y-79934545D01*
X165078905Y-79915133D01*
X165177650Y-79852326D01*
X165229628Y-79805636D01*
X165285783Y-79741441D01*
X165334898Y-79635220D01*
X165353383Y-79567840D01*
X165365918Y-79483472D01*
X165349808Y-79367560D01*
X165328930Y-79300882D01*
X165285259Y-79209603D01*
X165245357Y-79149886D01*
X165233902Y-79128454D01*
X165221004Y-79097316D01*
X165213952Y-79074070D01*
X165207381Y-79041036D01*
X165205000Y-79016850D01*
X165205000Y-78983156D01*
X165207382Y-78958969D01*
X165213952Y-78925934D01*
X165221009Y-78902669D01*
X165233900Y-78871547D01*
X165245359Y-78850109D01*
X165264076Y-78822097D01*
X165279489Y-78803316D01*
X165303314Y-78779490D01*
X165322088Y-78764081D01*
X165350119Y-78745352D01*
X165371533Y-78733905D01*
X165402679Y-78721004D01*
X165425931Y-78713952D01*
X165432630Y-78712620D01*
X165458970Y-78707382D01*
X165483156Y-78705000D01*
X165516843Y-78705000D01*
X165541032Y-78707382D01*
G37*
%TD.AperFunction*%
%TA.AperFunction,Conductor*%
G36*
X177230619Y-84023951D02*
G01*
X177255167Y-84068720D01*
X177255819Y-84068491D01*
X177286631Y-84155795D01*
X177286635Y-84155804D01*
X177314134Y-84210702D01*
X177314142Y-84210714D01*
X177363466Y-84284459D01*
X177364651Y-84285825D01*
X177441060Y-84351974D01*
X177441062Y-84351975D01*
X177441064Y-84351977D01*
X177460698Y-84364587D01*
X177499785Y-84389691D01*
X177591714Y-84431661D01*
X177591719Y-84431662D01*
X177591722Y-84431664D01*
X177591730Y-84431666D01*
X177591732Y-84431667D01*
X177606710Y-84436066D01*
X177606709Y-84436066D01*
X177606715Y-84436067D01*
X177606721Y-84436069D01*
X177656291Y-84446855D01*
X177691232Y-84451880D01*
X177741837Y-84455500D01*
X179475500Y-84455500D01*
X179542539Y-84475185D01*
X179588294Y-84527989D01*
X179599500Y-84579500D01*
X179599500Y-85257670D01*
X179594475Y-85292614D01*
X179590070Y-85307612D01*
X179552327Y-85366355D01*
X179550958Y-85367542D01*
X179496097Y-85395018D01*
X179488539Y-85396663D01*
X179462168Y-85399500D01*
X178620934Y-85399500D01*
X178541917Y-85420671D01*
X178541840Y-85420694D01*
X178468214Y-85440423D01*
X178468209Y-85440426D01*
X178455490Y-85447769D01*
X178455484Y-85447771D01*
X178331298Y-85519470D01*
X178331280Y-85519482D01*
X178219478Y-85631286D01*
X178219477Y-85631286D01*
X177700287Y-86150475D01*
X177672031Y-86171627D01*
X177658310Y-86179119D01*
X177590050Y-86193971D01*
X177588244Y-86193842D01*
X177530043Y-86174474D01*
X177523528Y-86170287D01*
X177502892Y-86153657D01*
X176991928Y-85642693D01*
X176987590Y-85638355D01*
X176987588Y-85638352D01*
X176868717Y-85519481D01*
X176868716Y-85519480D01*
X176868715Y-85519479D01*
X176833882Y-85499369D01*
X176768985Y-85461901D01*
X176768982Y-85461898D01*
X176731783Y-85440422D01*
X176731778Y-85440420D01*
X176675882Y-85425442D01*
X176675882Y-85425443D01*
X176625801Y-85412024D01*
X176579057Y-85399499D01*
X176579056Y-85399499D01*
X176411443Y-85399499D01*
X176411380Y-85399500D01*
X175779500Y-85399500D01*
X175712461Y-85379815D01*
X175666706Y-85327011D01*
X175655500Y-85275500D01*
X175655500Y-84354627D01*
X175651053Y-84298589D01*
X175644888Y-84259980D01*
X175644887Y-84259972D01*
X175631655Y-84205315D01*
X175621554Y-84174493D01*
X175619074Y-84168430D01*
X175611920Y-84098929D01*
X175643476Y-84036591D01*
X175703725Y-84001210D01*
X175752144Y-83998852D01*
X175762073Y-84000333D01*
X175762071Y-84000333D01*
X176973329Y-84006717D01*
X176973329Y-84006716D01*
X176973332Y-84006717D01*
X177049847Y-83998798D01*
X177102006Y-83987597D01*
X177102016Y-83987594D01*
X177104583Y-83986927D01*
X177104785Y-83987705D01*
X177171386Y-83986895D01*
X177230619Y-84023951D01*
G37*
%TD.AperFunction*%
%TA.AperFunction,Conductor*%
G36*
X184259974Y-77226945D02*
G01*
X184280472Y-77243767D01*
X184289489Y-77251940D01*
X184298058Y-77260509D01*
X184306230Y-77269525D01*
X184370002Y-77347231D01*
X184377251Y-77357005D01*
X184383983Y-77367080D01*
X184390238Y-77377515D01*
X184397728Y-77391527D01*
X184397729Y-77391530D01*
X184417498Y-77428516D01*
X184417499Y-77428517D01*
X184437620Y-77466159D01*
X184442824Y-77477163D01*
X184447467Y-77488373D01*
X184451566Y-77499828D01*
X184480747Y-77596025D01*
X184483703Y-77607826D01*
X184486066Y-77619704D01*
X184487852Y-77631743D01*
X184498604Y-77740903D01*
X184499051Y-77746970D01*
X184499350Y-77753053D01*
X184499500Y-77759141D01*
X184499500Y-84669800D01*
X184494475Y-84704741D01*
X184490564Y-84718058D01*
X184452787Y-84776834D01*
X184389232Y-84805855D01*
X184375611Y-84807813D01*
X184340092Y-84807780D01*
X184315620Y-84804214D01*
X184283260Y-84799500D01*
X184283256Y-84799500D01*
X184260750Y-84799500D01*
X184209120Y-84788240D01*
X184171971Y-84771227D01*
X184156979Y-84766807D01*
X184156959Y-84766802D01*
X184123937Y-84759580D01*
X184107422Y-84755969D01*
X184107419Y-84755968D01*
X184107402Y-84755965D01*
X184072503Y-84750908D01*
X184021913Y-84747235D01*
X184021901Y-84747234D01*
X181978404Y-84745031D01*
X181911386Y-84725274D01*
X181865688Y-84672421D01*
X181854538Y-84620990D01*
X181855471Y-81979455D01*
X181875179Y-81912424D01*
X181927999Y-81866687D01*
X181979471Y-81855500D01*
X183574280Y-81855500D01*
X183574280Y-81855499D01*
X183616921Y-81850924D01*
X183649689Y-81847409D01*
X183649693Y-81847408D01*
X183649695Y-81847408D01*
X183649699Y-81847407D01*
X183649705Y-81847406D01*
X183701091Y-81836251D01*
X183701094Y-81836249D01*
X183701108Y-81836247D01*
X183758356Y-81818658D01*
X183858260Y-81757711D01*
X183911104Y-81712002D01*
X183968453Y-81648867D01*
X184019547Y-81543584D01*
X184039290Y-81476562D01*
X184053778Y-81376418D01*
X184057309Y-77324417D01*
X184057308Y-77324412D01*
X184057310Y-77322691D01*
X184077053Y-77255669D01*
X184129897Y-77209960D01*
X184199064Y-77200077D01*
X184259974Y-77226945D01*
G37*
%TD.AperFunction*%
%TD*%
M02*
