%TF.GenerationSoftware,KiCad,Pcbnew,10.0.0*%
%TF.CreationDate,2026-04-06T22:01:44-07:00*%
%TF.ProjectId,TPS922055 Module,54505339-3232-4303-9535-204d6f64756c,rev?*%
%TF.SameCoordinates,Original*%
%TF.FileFunction,Copper,L3,Inr*%
%TF.FilePolarity,Positive*%
%FSLAX46Y46*%
G04 Gerber Fmt 4.6, Leading zero omitted, Abs format (unit mm)*
G04 Created by KiCad (PCBNEW 10.0.0) date 2026-04-06 22:01:44*
%MOMM*%
%LPD*%
G01*
G04 APERTURE LIST*
%TA.AperFunction,ComponentPad*%
%ADD10R,1.700000X1.700000*%
%TD*%
%TA.AperFunction,ComponentPad*%
%ADD11C,1.700000*%
%TD*%
%TA.AperFunction,HeatsinkPad*%
%ADD12C,0.400000*%
%TD*%
%TA.AperFunction,ViaPad*%
%ADD13C,0.600000*%
%TD*%
%TA.AperFunction,Conductor*%
%ADD14C,0.500000*%
%TD*%
%TA.AperFunction,Conductor*%
%ADD15C,0.250000*%
%TD*%
G04 APERTURE END LIST*
D10*
%TO.N,GND*%
%TO.C,J1*%
X149500000Y-86000000D03*
D11*
%TO.N,VCC*%
X149500000Y-88540000D03*
%TO.N,PWM_ADIM*%
X149500000Y-91080000D03*
%TO.N,PWM_EN*%
X149500000Y-93620000D03*
%TD*%
D12*
%TO.N,GND*%
%TO.C,U1*%
X162000000Y-89925000D03*
X162000000Y-91305000D03*
X162050000Y-88815000D03*
X162050000Y-92415000D03*
X163050000Y-88815000D03*
X163050000Y-92415000D03*
X163100000Y-89915000D03*
X163100000Y-91305000D03*
%TD*%
D10*
%TO.N,LED-*%
%TO.C,J2*%
X183400000Y-86000000D03*
D11*
X183400000Y-88540000D03*
%TO.N,VCC*%
X183400000Y-91080000D03*
%TO.N,/LED_FAULT*%
X183400000Y-93620000D03*
%TD*%
D10*
%TO.N,VCC*%
%TO.C,J3*%
X149395000Y-78595000D03*
D11*
%TO.N,GND*%
X149395000Y-81135000D03*
%TD*%
D13*
%TO.N,VCC*%
X154600000Y-89700000D03*
%TO.N,GND*%
X153700000Y-85100000D03*
X155000000Y-85100000D03*
X156300000Y-85100000D03*
%TO.N,/LED_FAULT*%
X176500000Y-93620000D03*
%TO.N,GND*%
X154200000Y-93200000D03*
X157800000Y-90700000D03*
X181750000Y-95000000D03*
X178250000Y-95000000D03*
X175250000Y-95000000D03*
X172500000Y-95000000D03*
X171250000Y-95000000D03*
X151250000Y-95000000D03*
X153250000Y-95000000D03*
X155250000Y-95000000D03*
X159250000Y-95000000D03*
X158250000Y-95000000D03*
X157250000Y-95000000D03*
X156250000Y-95000000D03*
X177750000Y-85000000D03*
X174500000Y-91750000D03*
X175500000Y-91000000D03*
X175500000Y-92500000D03*
X181250000Y-92500000D03*
X178500000Y-92500000D03*
X178500000Y-90750000D03*
X169800000Y-87700000D03*
X167900000Y-87700000D03*
X157600000Y-83500000D03*
X157400000Y-85100000D03*
X155700000Y-94250000D03*
X164500000Y-93600000D03*
X173000000Y-92200000D03*
X156750000Y-94250000D03*
X163500000Y-94600000D03*
X167000000Y-95000000D03*
X150900000Y-92400000D03*
X154200000Y-95000000D03*
X174000000Y-95000000D03*
X183500000Y-82250000D03*
X162700000Y-93600000D03*
X161800000Y-93600000D03*
X158500000Y-85100000D03*
X177000000Y-90750000D03*
X168900000Y-87700000D03*
X162700000Y-94600000D03*
X160700000Y-86100000D03*
X163600000Y-93600000D03*
X165600000Y-94600000D03*
X154600000Y-87200000D03*
X161700000Y-86100000D03*
X165500000Y-79000000D03*
X161700000Y-87100000D03*
X182250000Y-82250000D03*
X161700000Y-88000000D03*
X179900000Y-92500000D03*
X176750000Y-95000000D03*
X158500000Y-86100000D03*
X166900000Y-87700000D03*
X161800000Y-94600000D03*
X167800000Y-79000000D03*
X159750000Y-94250000D03*
X154600000Y-86400000D03*
X168600000Y-95000000D03*
X159600000Y-86100000D03*
X160900000Y-94600000D03*
X162750000Y-87100000D03*
X170400000Y-79000000D03*
X176500000Y-84900000D03*
X149400000Y-82400000D03*
X157000000Y-90700000D03*
X158100000Y-87200000D03*
X152250000Y-95000000D03*
X156300000Y-87800000D03*
X170000000Y-95000000D03*
X155600000Y-87200000D03*
X155000000Y-81000000D03*
X149000000Y-84200000D03*
X159600000Y-85100000D03*
X179900000Y-90700000D03*
X172200000Y-91200000D03*
X160700000Y-87100000D03*
X161700000Y-85100000D03*
X150200000Y-84200000D03*
X170800000Y-87700000D03*
X157750000Y-94250000D03*
X160700000Y-85100000D03*
X160700000Y-88000000D03*
X180000000Y-95000000D03*
X152000000Y-81900000D03*
X154800000Y-91500000D03*
X177000000Y-92500000D03*
X172200000Y-88400000D03*
X162650000Y-85100000D03*
X154800000Y-90600000D03*
X164500000Y-94600000D03*
X158750000Y-94250000D03*
X162750000Y-86100000D03*
X156900000Y-87200000D03*
X162750000Y-88000000D03*
X153600000Y-90800000D03*
X157000000Y-91900000D03*
%TO.N,VCC*%
X158100000Y-89600000D03*
X182100000Y-79700000D03*
X161750000Y-78000000D03*
X151200000Y-89500000D03*
X158250000Y-81750000D03*
X151200000Y-88700000D03*
X158250000Y-78000000D03*
X175900000Y-79300000D03*
X182100000Y-78000000D03*
X161750000Y-81750000D03*
X160099998Y-79995000D03*
X175900000Y-81100000D03*
X158100000Y-88750000D03*
%TO.N,/LED_FAULT*%
X160800000Y-93000000D03*
%TO.N,GND*%
X157800000Y-91900000D03*
X174700000Y-94000000D03*
%TO.N,VCC*%
X154600000Y-88800000D03*
%TD*%
%TO.N,GND*%
D14*
X157400000Y-85100000D02*
X158500000Y-85100000D01*
X159600000Y-85100000D02*
X158500000Y-85100000D01*
%TO.N,VCC*%
X158100000Y-89600000D02*
X158100000Y-88750000D01*
%TO.N,/LED_FAULT*%
D15*
X160800000Y-93000000D02*
X175080000Y-93000000D01*
X175080000Y-93000000D02*
X175700000Y-93620000D01*
X175700000Y-93620000D02*
X176500000Y-93620000D01*
%TO.N,GND*%
D14*
X157400000Y-85100000D02*
X153700000Y-85100000D01*
%TD*%
%TA.AperFunction,Conductor*%
%TO.N,GND*%
G36*
X171087539Y-80875185D02*
G01*
X171133294Y-80927989D01*
X171144500Y-80979500D01*
X171144500Y-81876008D01*
X171152625Y-81951570D01*
X171163831Y-82003082D01*
X171181502Y-82060463D01*
X171181503Y-82060465D01*
X171210675Y-82108189D01*
X171242537Y-82160314D01*
X171242542Y-82160320D01*
X171242543Y-82160321D01*
X171288279Y-82213104D01*
X171288285Y-82213110D01*
X171288292Y-82213118D01*
X171351475Y-82270411D01*
X171456802Y-82321414D01*
X171523841Y-82341099D01*
X171523842Y-82341099D01*
X171523845Y-82341100D01*
X171553709Y-82345393D01*
X171624000Y-82355500D01*
X177520500Y-82355500D01*
X177587539Y-82375185D01*
X177633294Y-82427989D01*
X177644500Y-82479500D01*
X177644500Y-84318423D01*
X177651962Y-84390873D01*
X177651963Y-84390876D01*
X177662265Y-84440364D01*
X177678279Y-84494949D01*
X177678280Y-84494951D01*
X177678281Y-84494953D01*
X177737523Y-84595877D01*
X177782328Y-84649489D01*
X177857604Y-84717105D01*
X177927903Y-84764077D01*
X177946688Y-84779494D01*
X177970500Y-84803306D01*
X177985921Y-84822096D01*
X178004640Y-84850111D01*
X178016096Y-84871544D01*
X178026319Y-84896223D01*
X178028989Y-84902667D01*
X178036045Y-84925927D01*
X178040855Y-84950105D01*
X178042617Y-84958959D01*
X178045000Y-84983153D01*
X178045000Y-85016839D01*
X178042617Y-85041033D01*
X178036045Y-85074069D01*
X178028988Y-85097330D01*
X178016097Y-85128450D01*
X178004640Y-85149885D01*
X177985920Y-85177902D01*
X177970498Y-85196693D01*
X177946689Y-85220502D01*
X177927901Y-85235922D01*
X177857603Y-85282895D01*
X177857593Y-85282902D01*
X177801501Y-85329357D01*
X177766070Y-85365427D01*
X177766059Y-85365439D01*
X177729588Y-85409060D01*
X177729587Y-85409061D01*
X177678586Y-85514385D01*
X177678585Y-85514388D01*
X177658901Y-85581423D01*
X177658899Y-85581429D01*
X177644500Y-85681584D01*
X177644500Y-90069754D01*
X177653311Y-90148412D01*
X177653313Y-90148424D01*
X177665450Y-90201915D01*
X177665454Y-90201927D01*
X177675700Y-90233682D01*
X177684862Y-90262074D01*
X177684864Y-90262079D01*
X177747666Y-90360822D01*
X177773992Y-90390131D01*
X177794355Y-90412801D01*
X177858553Y-90468962D01*
X177900969Y-90488575D01*
X177964771Y-90518077D01*
X177964773Y-90518077D01*
X177964774Y-90518078D01*
X178032154Y-90536564D01*
X178116519Y-90549100D01*
X178232432Y-90532992D01*
X178292008Y-90514339D01*
X178292007Y-90514338D01*
X178322098Y-90504917D01*
X178322101Y-90504916D01*
X178323250Y-90504556D01*
X178331898Y-90500324D01*
X178382180Y-90479497D01*
X178402675Y-90471008D01*
X178425928Y-90463953D01*
X178458970Y-90457381D01*
X178483153Y-90455000D01*
X178516846Y-90455000D01*
X178541030Y-90457381D01*
X178574069Y-90463953D01*
X178597317Y-90471005D01*
X178617819Y-90479497D01*
X178628454Y-90483902D01*
X178649891Y-90495360D01*
X178674708Y-90511943D01*
X178677901Y-90514076D01*
X178696691Y-90529497D01*
X178720500Y-90553306D01*
X178735921Y-90572096D01*
X178796715Y-90663081D01*
X178802525Y-90681637D01*
X178822929Y-90722405D01*
X178815456Y-90791874D01*
X178807541Y-90807685D01*
X178767357Y-90875414D01*
X178767348Y-90875432D01*
X178766094Y-90878460D01*
X178754641Y-90899884D01*
X178735919Y-90927903D01*
X178720498Y-90946693D01*
X178696693Y-90970498D01*
X178677903Y-90985919D01*
X178649884Y-91004641D01*
X178628445Y-91016100D01*
X178597328Y-91028989D01*
X178574071Y-91036045D01*
X178555070Y-91039825D01*
X178541033Y-91042617D01*
X178516842Y-91045000D01*
X178483153Y-91045000D01*
X178458957Y-91042616D01*
X178425929Y-91036045D01*
X178402674Y-91028991D01*
X178358577Y-91010726D01*
X178356703Y-91009216D01*
X178334564Y-91000731D01*
X178331488Y-90999505D01*
X178293391Y-90983724D01*
X178281580Y-90980424D01*
X178268872Y-90975554D01*
X178268865Y-90975552D01*
X178268859Y-90975550D01*
X178233758Y-90965573D01*
X178208048Y-90958265D01*
X178091051Y-90955628D01*
X178091050Y-90955628D01*
X178091047Y-90955628D01*
X178035213Y-90963656D01*
X178021893Y-90965572D01*
X178021891Y-90965572D01*
X178021887Y-90965573D01*
X177939536Y-90987750D01*
X177839686Y-91048784D01*
X177839678Y-91048790D01*
X177786895Y-91094526D01*
X177786879Y-91094542D01*
X177729591Y-91157719D01*
X177729585Y-91157728D01*
X177678586Y-91263048D01*
X177678585Y-91263051D01*
X177658901Y-91330086D01*
X177658899Y-91330092D01*
X177644500Y-91430247D01*
X177644500Y-91819754D01*
X177653311Y-91898412D01*
X177653313Y-91898424D01*
X177665450Y-91951915D01*
X177684862Y-92012074D01*
X177684864Y-92012079D01*
X177747666Y-92110822D01*
X177773992Y-92140131D01*
X177794355Y-92162801D01*
X177858553Y-92218962D01*
X177886899Y-92232069D01*
X177964771Y-92268077D01*
X177964773Y-92268077D01*
X177964774Y-92268078D01*
X178032154Y-92286564D01*
X178116519Y-92299100D01*
X178232432Y-92282992D01*
X178292008Y-92264339D01*
X178292007Y-92264338D01*
X178322098Y-92254917D01*
X178322101Y-92254916D01*
X178323250Y-92254556D01*
X178331898Y-92250324D01*
X178401127Y-92221649D01*
X178402675Y-92221008D01*
X178425928Y-92213953D01*
X178458970Y-92207381D01*
X178483153Y-92205000D01*
X178516846Y-92205000D01*
X178541030Y-92207381D01*
X178574069Y-92213953D01*
X178597315Y-92221004D01*
X178628459Y-92233904D01*
X178649890Y-92245359D01*
X178693784Y-92274689D01*
X178695478Y-92275809D01*
X178696537Y-92276511D01*
X178698266Y-92277642D01*
X178698361Y-92277705D01*
X178792983Y-92321414D01*
X178860022Y-92341099D01*
X178860024Y-92341099D01*
X178860026Y-92341100D01*
X178889890Y-92345393D01*
X178960181Y-92355500D01*
X179439727Y-92355500D01*
X179439819Y-92355500D01*
X179443032Y-92355485D01*
X179445245Y-92355465D01*
X179548259Y-92339238D01*
X179548263Y-92339236D01*
X179548267Y-92339236D01*
X179605196Y-92321410D01*
X179614937Y-92318360D01*
X179706218Y-92274688D01*
X179750112Y-92245357D01*
X179771538Y-92233904D01*
X179802683Y-92221004D01*
X179825925Y-92213954D01*
X179858969Y-92207381D01*
X179883153Y-92205000D01*
X179916846Y-92205000D01*
X179941030Y-92207381D01*
X179974069Y-92213953D01*
X179997315Y-92221004D01*
X180028459Y-92233904D01*
X180049890Y-92245359D01*
X180093784Y-92274689D01*
X180095478Y-92275809D01*
X180096537Y-92276511D01*
X180098266Y-92277642D01*
X180098361Y-92277705D01*
X180192983Y-92321414D01*
X180260022Y-92341099D01*
X180260024Y-92341099D01*
X180260026Y-92341100D01*
X180289890Y-92345393D01*
X180360181Y-92355500D01*
X180789727Y-92355500D01*
X180789819Y-92355500D01*
X180793032Y-92355485D01*
X180795245Y-92355465D01*
X180898259Y-92339238D01*
X180898263Y-92339236D01*
X180898267Y-92339236D01*
X180955196Y-92321410D01*
X180964937Y-92318360D01*
X181056218Y-92274688D01*
X181100112Y-92245357D01*
X181121538Y-92233904D01*
X181152683Y-92221004D01*
X181175925Y-92213954D01*
X181208969Y-92207381D01*
X181233153Y-92205000D01*
X181266846Y-92205000D01*
X181291030Y-92207381D01*
X181324069Y-92213953D01*
X181347315Y-92221004D01*
X181378459Y-92233904D01*
X181399890Y-92245359D01*
X181443784Y-92274689D01*
X181445478Y-92275809D01*
X181446537Y-92276511D01*
X181448266Y-92277642D01*
X181448361Y-92277705D01*
X181542983Y-92321414D01*
X181610022Y-92341099D01*
X181610024Y-92341099D01*
X181610026Y-92341100D01*
X181639890Y-92345393D01*
X181710181Y-92355500D01*
X182720893Y-92355500D01*
X182787932Y-92375185D01*
X182833687Y-92427989D01*
X182843631Y-92497147D01*
X182814606Y-92560703D01*
X182789999Y-92582458D01*
X182783815Y-92586607D01*
X182770800Y-92593240D01*
X182734649Y-92619506D01*
X182732801Y-92620848D01*
X182732790Y-92620856D01*
X182629798Y-92695685D01*
X182622417Y-92699818D01*
X182479816Y-92842419D01*
X182475686Y-92849794D01*
X182436610Y-92903578D01*
X182436610Y-92903579D01*
X182373240Y-92990799D01*
X182349383Y-93037622D01*
X182287454Y-93159163D01*
X182229059Y-93338881D01*
X182229058Y-93338884D01*
X182229058Y-93338886D01*
X182199500Y-93525507D01*
X182199500Y-93714491D01*
X182214586Y-93809738D01*
X182229059Y-93901118D01*
X182287454Y-94080836D01*
X182346371Y-94196466D01*
X182373240Y-94249199D01*
X182484310Y-94402073D01*
X182617927Y-94535690D01*
X182704229Y-94598393D01*
X182770796Y-94646757D01*
X182770797Y-94646757D01*
X182770801Y-94646760D01*
X182850347Y-94687290D01*
X182932722Y-94729263D01*
X182934320Y-94730199D01*
X182938037Y-94731999D01*
X182940021Y-94732985D01*
X182943775Y-94734043D01*
X183035497Y-94763846D01*
X183118881Y-94790940D01*
X183305514Y-94820500D01*
X183305519Y-94820500D01*
X183494485Y-94820500D01*
X183494486Y-94820500D01*
X183681118Y-94790940D01*
X183860832Y-94732547D01*
X184029199Y-94646760D01*
X184182073Y-94535690D01*
X184275217Y-94442545D01*
X184303457Y-94421404D01*
X184313391Y-94415980D01*
X184381661Y-94401127D01*
X184447126Y-94425541D01*
X184488999Y-94481473D01*
X184489001Y-94481477D01*
X184491682Y-94488665D01*
X184499500Y-94531999D01*
X184499500Y-94740857D01*
X184499350Y-94746945D01*
X184499051Y-94753028D01*
X184498604Y-94759095D01*
X184487852Y-94868255D01*
X184486066Y-94880294D01*
X184483703Y-94892172D01*
X184480747Y-94903973D01*
X184451566Y-95000170D01*
X184447469Y-95011622D01*
X184442828Y-95022828D01*
X184437622Y-95033835D01*
X184390239Y-95122481D01*
X184383983Y-95132918D01*
X184377251Y-95142993D01*
X184370002Y-95152767D01*
X184306230Y-95230473D01*
X184298058Y-95239489D01*
X184289489Y-95248058D01*
X184280473Y-95256230D01*
X184202767Y-95320002D01*
X184192993Y-95327251D01*
X184182918Y-95333983D01*
X184172481Y-95340239D01*
X184083835Y-95387622D01*
X184072828Y-95392828D01*
X184061622Y-95397469D01*
X184050170Y-95401566D01*
X183953973Y-95430747D01*
X183942170Y-95433703D01*
X183930291Y-95436066D01*
X183918254Y-95437852D01*
X183837215Y-95445834D01*
X183837214Y-95445834D01*
X183809089Y-95448604D01*
X183803027Y-95449051D01*
X183796948Y-95449350D01*
X183790856Y-95449500D01*
X149109143Y-95449500D01*
X149103052Y-95449350D01*
X149096972Y-95449051D01*
X149090908Y-95448604D01*
X149043081Y-95443893D01*
X149043081Y-95443892D01*
X148981745Y-95437852D01*
X148969707Y-95436066D01*
X148957828Y-95433703D01*
X148946025Y-95430747D01*
X148849824Y-95401565D01*
X148838366Y-95397465D01*
X148827169Y-95392827D01*
X148816169Y-95387624D01*
X148727518Y-95340239D01*
X148717080Y-95333983D01*
X148707005Y-95327251D01*
X148697231Y-95320002D01*
X148619525Y-95256230D01*
X148610509Y-95248058D01*
X148601940Y-95239489D01*
X148593768Y-95230473D01*
X148529996Y-95152767D01*
X148522752Y-95143001D01*
X148516009Y-95132908D01*
X148509757Y-95122476D01*
X148462374Y-95033829D01*
X148457171Y-95022829D01*
X148452533Y-95011632D01*
X148448434Y-95000175D01*
X148419251Y-94903973D01*
X148416292Y-94892159D01*
X148413931Y-94880285D01*
X148412147Y-94868258D01*
X148412147Y-94868255D01*
X148401392Y-94759058D01*
X148400948Y-94753028D01*
X148400647Y-94746917D01*
X148400500Y-94740857D01*
X148400500Y-94535454D01*
X148405521Y-94500527D01*
X148408707Y-94489674D01*
X148446477Y-94430893D01*
X148510031Y-94401864D01*
X148579186Y-94411802D01*
X148586172Y-94414992D01*
X148622342Y-94440105D01*
X148717927Y-94535690D01*
X148804229Y-94598393D01*
X148870796Y-94646757D01*
X148870797Y-94646757D01*
X148870801Y-94646760D01*
X148950347Y-94687290D01*
X149032722Y-94729263D01*
X149034320Y-94730199D01*
X149038037Y-94731999D01*
X149040021Y-94732985D01*
X149043775Y-94734043D01*
X149135497Y-94763846D01*
X149218881Y-94790940D01*
X149405514Y-94820500D01*
X149405519Y-94820500D01*
X149594485Y-94820500D01*
X149594486Y-94820500D01*
X149781118Y-94790940D01*
X149960832Y-94732547D01*
X150129199Y-94646760D01*
X150282073Y-94535690D01*
X150415690Y-94402073D01*
X150526760Y-94249199D01*
X150612547Y-94080832D01*
X150670940Y-93901118D01*
X150685413Y-93809738D01*
X150700500Y-93714486D01*
X150700500Y-93525513D01*
X150670940Y-93338881D01*
X150612545Y-93159163D01*
X150612544Y-93159162D01*
X150612544Y-93159160D01*
X150582189Y-93099588D01*
X150582186Y-93099583D01*
X150575792Y-93087033D01*
X150553628Y-93043534D01*
X150550616Y-93037622D01*
X160144237Y-93037622D01*
X160174494Y-93189726D01*
X160174495Y-93189732D01*
X160174502Y-93189753D01*
X160223529Y-93308118D01*
X160223534Y-93308128D01*
X160294724Y-93414670D01*
X160294725Y-93414671D01*
X160294730Y-93414677D01*
X160385321Y-93505268D01*
X160385327Y-93505273D01*
X160385328Y-93505274D01*
X160385331Y-93505276D01*
X160491866Y-93576461D01*
X160491872Y-93576464D01*
X160491873Y-93576465D01*
X160605362Y-93623473D01*
X160605947Y-93623724D01*
X160606141Y-93623884D01*
X160609053Y-93625261D01*
X160610252Y-93625499D01*
X160610256Y-93625501D01*
X160610259Y-93625501D01*
X160610260Y-93625501D01*
X160610261Y-93625502D01*
X160707899Y-93644924D01*
X160735927Y-93650500D01*
X160864071Y-93650500D01*
X160864073Y-93650500D01*
X160948615Y-93633682D01*
X160989744Y-93625501D01*
X161108127Y-93576465D01*
X161108132Y-93576461D01*
X161108135Y-93576460D01*
X161138867Y-93555925D01*
X161208216Y-93509587D01*
X161228621Y-93498563D01*
X161259706Y-93485362D01*
X161308170Y-93475500D01*
X174813849Y-93475500D01*
X174848781Y-93480521D01*
X174874025Y-93487934D01*
X174926771Y-93519230D01*
X175319504Y-93911963D01*
X175319505Y-93911964D01*
X175408036Y-94000495D01*
X175516464Y-94063095D01*
X175637399Y-94095500D01*
X175986850Y-94095500D01*
X176021785Y-94100523D01*
X176050869Y-94109063D01*
X176084825Y-94124938D01*
X176085324Y-94125271D01*
X176085326Y-94125273D01*
X176191866Y-94196461D01*
X176191872Y-94196464D01*
X176191873Y-94196465D01*
X176310256Y-94245501D01*
X176310260Y-94245501D01*
X176310261Y-94245502D01*
X176411061Y-94265553D01*
X176435927Y-94270500D01*
X176564071Y-94270500D01*
X176564072Y-94270500D01*
X176617612Y-94259849D01*
X176671153Y-94249199D01*
X176689744Y-94245501D01*
X176808127Y-94196465D01*
X176914669Y-94125276D01*
X177005276Y-94034669D01*
X177076465Y-93928127D01*
X177125501Y-93809744D01*
X177150500Y-93684069D01*
X177150500Y-93555931D01*
X177150500Y-93555928D01*
X177150500Y-93555925D01*
X177125295Y-93429220D01*
X177123724Y-93425947D01*
X177123473Y-93425362D01*
X177076465Y-93311873D01*
X177076464Y-93311872D01*
X177076461Y-93311866D01*
X177005276Y-93205331D01*
X177005273Y-93205327D01*
X177005268Y-93205321D01*
X176914677Y-93114730D01*
X176914671Y-93114725D01*
X176914670Y-93114724D01*
X176808127Y-93043534D01*
X176808128Y-93043534D01*
X176808118Y-93043529D01*
X176689753Y-92994502D01*
X176689733Y-92994495D01*
X176689725Y-92994493D01*
X176564074Y-92969500D01*
X176564071Y-92969500D01*
X176564069Y-92969500D01*
X176435931Y-92969500D01*
X176435929Y-92969500D01*
X176435926Y-92969500D01*
X176310273Y-92994493D01*
X176310265Y-92994495D01*
X176310245Y-92994502D01*
X176191880Y-93043529D01*
X176191870Y-93043534D01*
X176091789Y-93110407D01*
X176071370Y-93121438D01*
X176040301Y-93134633D01*
X175991829Y-93144500D01*
X175966151Y-93144500D01*
X175931215Y-93139477D01*
X175905973Y-93132065D01*
X175853228Y-93100769D01*
X175371965Y-92619506D01*
X175371960Y-92619502D01*
X175335290Y-92598331D01*
X175306859Y-92568513D01*
X175223224Y-92546103D01*
X175223224Y-92546102D01*
X175159637Y-92529065D01*
X175142601Y-92524500D01*
X175142600Y-92524500D01*
X161313150Y-92524500D01*
X161278214Y-92519477D01*
X161249129Y-92510936D01*
X161215176Y-92495062D01*
X161108127Y-92423534D01*
X161108128Y-92423534D01*
X161108118Y-92423529D01*
X160989753Y-92374502D01*
X160989733Y-92374495D01*
X160989725Y-92374493D01*
X160864074Y-92349500D01*
X160864071Y-92349500D01*
X160864069Y-92349500D01*
X160735931Y-92349500D01*
X160735929Y-92349500D01*
X160735926Y-92349500D01*
X160610273Y-92374493D01*
X160610265Y-92374495D01*
X160610245Y-92374502D01*
X160491880Y-92423529D01*
X160491870Y-92423534D01*
X160385328Y-92494724D01*
X160385327Y-92494725D01*
X160385321Y-92494730D01*
X160294730Y-92585321D01*
X160294725Y-92585327D01*
X160223534Y-92691870D01*
X160223529Y-92691880D01*
X160174502Y-92810245D01*
X160174495Y-92810265D01*
X160174493Y-92810273D01*
X160149500Y-92935923D01*
X160149500Y-93019702D01*
X160144237Y-93037622D01*
X150550616Y-93037622D01*
X150526760Y-92990801D01*
X150526757Y-92990797D01*
X150526757Y-92990796D01*
X150486892Y-92935928D01*
X150415690Y-92837927D01*
X150282073Y-92704310D01*
X150129199Y-92593240D01*
X150129198Y-92593239D01*
X150129196Y-92593238D01*
X150113669Y-92585326D01*
X150113669Y-92585327D01*
X149960836Y-92507454D01*
X149886472Y-92483291D01*
X149886471Y-92483290D01*
X149856151Y-92473439D01*
X149799309Y-92435010D01*
X149798459Y-92433993D01*
X149789146Y-92427626D01*
X149761943Y-92363269D01*
X149773852Y-92294422D01*
X149793767Y-92265292D01*
X149795871Y-92263000D01*
X149848907Y-92228912D01*
X149960832Y-92192547D01*
X150129199Y-92106760D01*
X150282073Y-91995690D01*
X150415690Y-91862073D01*
X150526760Y-91709199D01*
X150612547Y-91540832D01*
X150670940Y-91361118D01*
X150700500Y-91174486D01*
X150700500Y-90985513D01*
X150670940Y-90798881D01*
X150612545Y-90619163D01*
X150526759Y-90450800D01*
X150455255Y-90352383D01*
X150431776Y-90286580D01*
X150447601Y-90218526D01*
X150497707Y-90169831D01*
X150555574Y-90155500D01*
X154084191Y-90155500D01*
X154151230Y-90175185D01*
X154156630Y-90178859D01*
X154164777Y-90184723D01*
X154185327Y-90205273D01*
X154185331Y-90205276D01*
X154291866Y-90276461D01*
X154291872Y-90276464D01*
X154291873Y-90276465D01*
X154404651Y-90323179D01*
X154409053Y-90325261D01*
X154410252Y-90325499D01*
X154410256Y-90325501D01*
X154410259Y-90325501D01*
X154410260Y-90325501D01*
X154410261Y-90325502D01*
X154507899Y-90344924D01*
X154535927Y-90350500D01*
X154664071Y-90350500D01*
X154664073Y-90350500D01*
X154748615Y-90333682D01*
X154789744Y-90325501D01*
X154908127Y-90276465D01*
X155014669Y-90205276D01*
X155018030Y-90201915D01*
X155028127Y-90191819D01*
X155089450Y-90158334D01*
X155115808Y-90155500D01*
X157722881Y-90155500D01*
X157743042Y-90161420D01*
X157753450Y-90160752D01*
X157786428Y-90173327D01*
X157786437Y-90173332D01*
X157789057Y-90174931D01*
X157789920Y-90175185D01*
X157791749Y-90176383D01*
X157791866Y-90176461D01*
X157791872Y-90176464D01*
X157791873Y-90176465D01*
X157904651Y-90223179D01*
X157909053Y-90225261D01*
X157910252Y-90225499D01*
X157910256Y-90225501D01*
X157910259Y-90225501D01*
X157910260Y-90225501D01*
X157910261Y-90225502D01*
X158007899Y-90244924D01*
X158035927Y-90250500D01*
X158164071Y-90250500D01*
X158164073Y-90250500D01*
X158200018Y-90243349D01*
X158248615Y-90233682D01*
X158289744Y-90225501D01*
X158408127Y-90176465D01*
X158442849Y-90153263D01*
X158454781Y-90148465D01*
X158461908Y-90147773D01*
X158474689Y-90142344D01*
X158503081Y-90136169D01*
X158560464Y-90118497D01*
X158660314Y-90057463D01*
X158713118Y-90011708D01*
X158770411Y-89948525D01*
X158821414Y-89843198D01*
X158841099Y-89776159D01*
X158855500Y-89676000D01*
X158855500Y-88824000D01*
X158847375Y-88748431D01*
X158836169Y-88696919D01*
X158818495Y-88639532D01*
X158757461Y-88539682D01*
X158711706Y-88486879D01*
X158711703Y-88486876D01*
X158705738Y-88481467D01*
X158680172Y-88448984D01*
X158677008Y-88443184D01*
X158676465Y-88441873D01*
X158676464Y-88441872D01*
X158676461Y-88441866D01*
X158605276Y-88335331D01*
X158605273Y-88335327D01*
X158605268Y-88335321D01*
X158514677Y-88244730D01*
X158514671Y-88244725D01*
X158514670Y-88244724D01*
X158408127Y-88173534D01*
X158408128Y-88173534D01*
X158408118Y-88173529D01*
X158289753Y-88124502D01*
X158289733Y-88124495D01*
X158289725Y-88124493D01*
X158164074Y-88099500D01*
X158164071Y-88099500D01*
X158164069Y-88099500D01*
X158035931Y-88099500D01*
X158035929Y-88099500D01*
X158035926Y-88099500D01*
X157910273Y-88124493D01*
X157910265Y-88124495D01*
X157910245Y-88124502D01*
X157791880Y-88173529D01*
X157791870Y-88173534D01*
X157685328Y-88244724D01*
X157685327Y-88244725D01*
X157685321Y-88244730D01*
X157621871Y-88308181D01*
X157560548Y-88341666D01*
X157534190Y-88344500D01*
X155115809Y-88344500D01*
X155048770Y-88324815D01*
X155043225Y-88321037D01*
X155035161Y-88315215D01*
X155014672Y-88294726D01*
X155014668Y-88294723D01*
X154908734Y-88223940D01*
X154906916Y-88222627D01*
X154886818Y-88196724D01*
X154865804Y-88171579D01*
X154865252Y-88168929D01*
X154864085Y-88167425D01*
X154863448Y-88160264D01*
X154855500Y-88122090D01*
X154855500Y-87944674D01*
X154854703Y-87920911D01*
X154854703Y-87920901D01*
X154853593Y-87904350D01*
X154852990Y-87896620D01*
X154823570Y-87783352D01*
X154795114Y-87719540D01*
X154751283Y-87646371D01*
X154727386Y-87624310D01*
X154665296Y-87566989D01*
X154650533Y-87557313D01*
X154650533Y-87557314D01*
X154612551Y-87532422D01*
X154612550Y-87532421D01*
X154579720Y-87510905D01*
X154554802Y-87500583D01*
X154554789Y-87500578D01*
X154501511Y-87478501D01*
X154501440Y-87478480D01*
X154471542Y-87466095D01*
X154450108Y-87454638D01*
X154422097Y-87435922D01*
X154403306Y-87420500D01*
X154379497Y-87396691D01*
X154364080Y-87377908D01*
X154345355Y-87349883D01*
X154333902Y-87328456D01*
X154321005Y-87297318D01*
X154313950Y-87274058D01*
X154307383Y-87241043D01*
X154305000Y-87216852D01*
X154305000Y-87183155D01*
X154307382Y-87158965D01*
X154313953Y-87125929D01*
X154321006Y-87102674D01*
X154335468Y-87067760D01*
X154339233Y-87059848D01*
X154340320Y-87057408D01*
X154340326Y-87057401D01*
X154384114Y-86959227D01*
X154402600Y-86891847D01*
X154415136Y-86807485D01*
X154399029Y-86691572D01*
X154378153Y-86624894D01*
X154347505Y-86560832D01*
X154344802Y-86554771D01*
X154321004Y-86497316D01*
X154313952Y-86474070D01*
X154307381Y-86441036D01*
X154305000Y-86416850D01*
X154305000Y-86383151D01*
X154307381Y-86358968D01*
X154313954Y-86325925D01*
X154321004Y-86302682D01*
X154333903Y-86271539D01*
X154345360Y-86250107D01*
X154364076Y-86222096D01*
X154379486Y-86203319D01*
X154419248Y-86163559D01*
X154428046Y-86154442D01*
X154434078Y-86147964D01*
X154497279Y-86053383D01*
X154526304Y-85989827D01*
X154552174Y-85908548D01*
X154554811Y-85791551D01*
X154544867Y-85722393D01*
X154522689Y-85640036D01*
X154461655Y-85540186D01*
X154439299Y-85514386D01*
X154415912Y-85487395D01*
X154415906Y-85487389D01*
X154415900Y-85487382D01*
X154352717Y-85430089D01*
X154352713Y-85430087D01*
X154352710Y-85430085D01*
X154247390Y-85379086D01*
X154247387Y-85379085D01*
X154180352Y-85359401D01*
X154180346Y-85359399D01*
X154090297Y-85346452D01*
X154080192Y-85345000D01*
X154080191Y-85345000D01*
X153974769Y-85345000D01*
X153974767Y-85345000D01*
X153962501Y-85346208D01*
X153905422Y-85351829D01*
X153905409Y-85351831D01*
X153857963Y-85361269D01*
X153857961Y-85361269D01*
X153857959Y-85361270D01*
X153791279Y-85381497D01*
X153791273Y-85381499D01*
X153788370Y-85382380D01*
X153788314Y-85382195D01*
X153775228Y-85385815D01*
X153741035Y-85392617D01*
X153716842Y-85395000D01*
X153683153Y-85395000D01*
X153658963Y-85392617D01*
X153625929Y-85386046D01*
X153602674Y-85378991D01*
X153571541Y-85366095D01*
X153550111Y-85354640D01*
X153522096Y-85335921D01*
X153503306Y-85320500D01*
X153479497Y-85296691D01*
X153464080Y-85277908D01*
X153445355Y-85249883D01*
X153433902Y-85228456D01*
X153421005Y-85197318D01*
X153413950Y-85174058D01*
X153407383Y-85141043D01*
X153405000Y-85116852D01*
X153405000Y-85083151D01*
X153407381Y-85058968D01*
X153413954Y-85025925D01*
X153421004Y-85002682D01*
X153433903Y-84971539D01*
X153445358Y-84950110D01*
X153464080Y-84922089D01*
X153479492Y-84903311D01*
X153503311Y-84879492D01*
X153522089Y-84864080D01*
X153550110Y-84845358D01*
X153571539Y-84833903D01*
X153602682Y-84821004D01*
X153625927Y-84813953D01*
X153658967Y-84807381D01*
X153683153Y-84805000D01*
X153716846Y-84805000D01*
X153741037Y-84807383D01*
X153775218Y-84814182D01*
X153788299Y-84817802D01*
X153788356Y-84817616D01*
X153842044Y-84833902D01*
X153857959Y-84838730D01*
X153905411Y-84848169D01*
X153974767Y-84855000D01*
X154725231Y-84855000D01*
X154725233Y-84855000D01*
X154794589Y-84848169D01*
X154842041Y-84838730D01*
X154842051Y-84838727D01*
X154911652Y-84817613D01*
X154911710Y-84817804D01*
X154924785Y-84814180D01*
X154929877Y-84813167D01*
X154958970Y-84807382D01*
X154983156Y-84805000D01*
X155016846Y-84805000D01*
X155041037Y-84807383D01*
X155075218Y-84814182D01*
X155088299Y-84817802D01*
X155088356Y-84817616D01*
X155142044Y-84833902D01*
X155157959Y-84838730D01*
X155205411Y-84848169D01*
X155274767Y-84855000D01*
X156025231Y-84855000D01*
X156025233Y-84855000D01*
X156094589Y-84848169D01*
X156142041Y-84838730D01*
X156142051Y-84838727D01*
X156211652Y-84817613D01*
X156211710Y-84817804D01*
X156224785Y-84814180D01*
X156229877Y-84813167D01*
X156258970Y-84807382D01*
X156283156Y-84805000D01*
X156316846Y-84805000D01*
X156341037Y-84807383D01*
X156375218Y-84814182D01*
X156388299Y-84817802D01*
X156388356Y-84817616D01*
X156442044Y-84833902D01*
X156457959Y-84838730D01*
X156505411Y-84848169D01*
X156574767Y-84855000D01*
X157125231Y-84855000D01*
X157125233Y-84855000D01*
X157194589Y-84848169D01*
X157242041Y-84838730D01*
X157242051Y-84838727D01*
X157311652Y-84817613D01*
X157311710Y-84817804D01*
X157324785Y-84814180D01*
X157329877Y-84813167D01*
X157358970Y-84807382D01*
X157383156Y-84805000D01*
X157416846Y-84805000D01*
X157441037Y-84807383D01*
X157475218Y-84814182D01*
X157488299Y-84817802D01*
X157488356Y-84817616D01*
X157542044Y-84833902D01*
X157557959Y-84838730D01*
X157605411Y-84848169D01*
X157674767Y-84855000D01*
X157875991Y-84855000D01*
X157876000Y-84855000D01*
X157951570Y-84846875D01*
X158003081Y-84835669D01*
X158060464Y-84817997D01*
X158160314Y-84756963D01*
X158213118Y-84711208D01*
X158270411Y-84648025D01*
X158321414Y-84542698D01*
X158341099Y-84475659D01*
X158355500Y-84375500D01*
X158355500Y-84223989D01*
X158352728Y-84179682D01*
X158352727Y-84179672D01*
X158348876Y-84149013D01*
X158345586Y-84129243D01*
X158344219Y-84121025D01*
X158305831Y-84022096D01*
X158301887Y-84011931D01*
X158301885Y-84011928D01*
X158301884Y-84011924D01*
X158266232Y-83951835D01*
X158266230Y-83951832D01*
X158266227Y-83951827D01*
X158214224Y-83884231D01*
X158214222Y-83884229D01*
X158119627Y-83815339D01*
X158119623Y-83815336D01*
X158057139Y-83784059D01*
X157976846Y-83755309D01*
X157965374Y-83754640D01*
X157860018Y-83748496D01*
X157860016Y-83748496D01*
X157860015Y-83748496D01*
X157790548Y-83755964D01*
X157692491Y-83780992D01*
X157689476Y-83781996D01*
X157674522Y-83785955D01*
X157662651Y-83788316D01*
X157641030Y-83792617D01*
X157616840Y-83795000D01*
X157583153Y-83795000D01*
X157558963Y-83792617D01*
X157525929Y-83786046D01*
X157502674Y-83778991D01*
X157471541Y-83766095D01*
X157450111Y-83754640D01*
X157422096Y-83735921D01*
X157403306Y-83720500D01*
X157379497Y-83696691D01*
X157364080Y-83677908D01*
X157345355Y-83649883D01*
X157333902Y-83628456D01*
X157321005Y-83597318D01*
X157313950Y-83574058D01*
X157307383Y-83541043D01*
X157305000Y-83516852D01*
X157305000Y-83483151D01*
X157307381Y-83458968D01*
X157313954Y-83425925D01*
X157321004Y-83402682D01*
X157333903Y-83371539D01*
X157345358Y-83350110D01*
X157364080Y-83322089D01*
X157379492Y-83303311D01*
X157403311Y-83279492D01*
X157422089Y-83264080D01*
X157450110Y-83245358D01*
X157471539Y-83233903D01*
X157502682Y-83221004D01*
X157525927Y-83213953D01*
X157558967Y-83207381D01*
X157583153Y-83205000D01*
X157616843Y-83205000D01*
X157641031Y-83207382D01*
X157659643Y-83211083D01*
X157674683Y-83214075D01*
X157690699Y-83218392D01*
X157692500Y-83219009D01*
X157692509Y-83219013D01*
X157734501Y-83233406D01*
X157749403Y-83237494D01*
X157764304Y-83241582D01*
X157772648Y-83243516D01*
X157791952Y-83247992D01*
X157908949Y-83250629D01*
X157978107Y-83240685D01*
X158060464Y-83218507D01*
X158160314Y-83157473D01*
X158213118Y-83111718D01*
X158270411Y-83048535D01*
X158321414Y-82943208D01*
X158321417Y-82943197D01*
X158323262Y-82938419D01*
X158324625Y-82938945D01*
X158358796Y-82885782D01*
X158422353Y-82856761D01*
X158439993Y-82855500D01*
X163375991Y-82855500D01*
X163376000Y-82855500D01*
X163451570Y-82847375D01*
X163503081Y-82836169D01*
X163560464Y-82818497D01*
X163660314Y-82757463D01*
X163713118Y-82711708D01*
X163770411Y-82648525D01*
X163821414Y-82543198D01*
X163841099Y-82476159D01*
X163855500Y-82376000D01*
X163855500Y-80979500D01*
X163875185Y-80912461D01*
X163927989Y-80866706D01*
X163979500Y-80855500D01*
X171020500Y-80855500D01*
X171087539Y-80875185D01*
G37*
%TD.AperFunction*%
%TA.AperFunction,Conductor*%
G36*
X179941030Y-90407381D02*
G01*
X179974069Y-90413953D01*
X179997317Y-90421005D01*
X180028454Y-90433902D01*
X180049891Y-90445360D01*
X180067882Y-90457382D01*
X180077901Y-90464076D01*
X180096691Y-90479497D01*
X180120500Y-90503306D01*
X180135921Y-90522096D01*
X180154640Y-90550111D01*
X180166096Y-90571544D01*
X180167358Y-90574590D01*
X180178989Y-90602667D01*
X180186046Y-90625928D01*
X180192617Y-90658959D01*
X180195000Y-90683153D01*
X180195000Y-90716839D01*
X180192617Y-90741033D01*
X180186045Y-90774069D01*
X180178988Y-90797330D01*
X180166097Y-90828450D01*
X180154640Y-90849885D01*
X180135920Y-90877902D01*
X180120498Y-90896693D01*
X180096693Y-90920498D01*
X180077903Y-90935919D01*
X180049884Y-90954641D01*
X180028445Y-90966100D01*
X179997328Y-90978989D01*
X179974071Y-90986045D01*
X179955070Y-90989825D01*
X179941033Y-90992617D01*
X179916842Y-90995000D01*
X179883153Y-90995000D01*
X179858963Y-90992617D01*
X179825929Y-90986046D01*
X179802674Y-90978991D01*
X179771541Y-90966095D01*
X179750111Y-90954640D01*
X179722096Y-90935921D01*
X179703306Y-90920500D01*
X179679497Y-90896691D01*
X179664076Y-90877901D01*
X179619125Y-90810627D01*
X179603334Y-90786995D01*
X179599439Y-90780775D01*
X179592104Y-90768252D01*
X179586830Y-90747093D01*
X179577070Y-90727593D01*
X179578547Y-90713858D01*
X179575207Y-90700456D01*
X179582209Y-90679805D01*
X179584542Y-90658124D01*
X179592460Y-90642306D01*
X179606191Y-90619164D01*
X179632642Y-90574585D01*
X179633900Y-90571546D01*
X179645356Y-90550113D01*
X179664080Y-90522089D01*
X179679492Y-90503311D01*
X179703311Y-90479492D01*
X179722089Y-90464080D01*
X179750110Y-90445358D01*
X179771539Y-90433903D01*
X179802682Y-90421004D01*
X179825927Y-90413953D01*
X179858967Y-90407381D01*
X179883153Y-90405000D01*
X179916846Y-90405000D01*
X179941030Y-90407381D01*
G37*
%TD.AperFunction*%
%TA.AperFunction,Conductor*%
G36*
X149041030Y-83907381D02*
G01*
X149074069Y-83913953D01*
X149097317Y-83921005D01*
X149128447Y-83933899D01*
X149128454Y-83933902D01*
X149149891Y-83945360D01*
X149159576Y-83951832D01*
X149177901Y-83964076D01*
X149196693Y-83979499D01*
X149221866Y-84004673D01*
X149271651Y-84054458D01*
X149279822Y-84056856D01*
X149292740Y-84066389D01*
X149308592Y-84079756D01*
X149314839Y-84087299D01*
X149320293Y-84090602D01*
X149320333Y-84090628D01*
X149324110Y-84092912D01*
X149324178Y-84092954D01*
X149325439Y-84093717D01*
X149325439Y-84093718D01*
X149384101Y-84129243D01*
X149461833Y-84164354D01*
X149577736Y-84180529D01*
X149647581Y-84178665D01*
X149731964Y-84166176D01*
X149838212Y-84117119D01*
X149889354Y-84082288D01*
X149889353Y-84082287D01*
X149911325Y-84067324D01*
X149912739Y-84064561D01*
X149917964Y-84059366D01*
X149923970Y-84053738D01*
X149941794Y-84041013D01*
X150004770Y-83978034D01*
X150006210Y-83976686D01*
X150007564Y-83976002D01*
X150022092Y-83964079D01*
X150050113Y-83945355D01*
X150071539Y-83933903D01*
X150102682Y-83921004D01*
X150125927Y-83913953D01*
X150158967Y-83907381D01*
X150183153Y-83905000D01*
X150216846Y-83905000D01*
X150241030Y-83907381D01*
X150274069Y-83913953D01*
X150297317Y-83921005D01*
X150328447Y-83933899D01*
X150328454Y-83933902D01*
X150349891Y-83945360D01*
X150359576Y-83951832D01*
X150377901Y-83964076D01*
X150396691Y-83979497D01*
X150420500Y-84003306D01*
X150435921Y-84022096D01*
X150454640Y-84050111D01*
X150466096Y-84071544D01*
X150475281Y-84093717D01*
X150478989Y-84102667D01*
X150486046Y-84125928D01*
X150492617Y-84158959D01*
X150495000Y-84183153D01*
X150495000Y-84216841D01*
X150492616Y-84241041D01*
X150490298Y-84252690D01*
X150490295Y-84252706D01*
X150486042Y-84274080D01*
X150478987Y-84297333D01*
X150466101Y-84328443D01*
X150454643Y-84349880D01*
X150435922Y-84377899D01*
X150420501Y-84396690D01*
X150338297Y-84478895D01*
X150325801Y-84494194D01*
X150322178Y-84497721D01*
X150322177Y-84497722D01*
X150280306Y-84553654D01*
X150237749Y-84627578D01*
X150237748Y-84627582D01*
X150210303Y-84741338D01*
X150210303Y-84741343D01*
X150205319Y-84811033D01*
X150209483Y-84896223D01*
X150209484Y-84896226D01*
X150247895Y-85006762D01*
X150281382Y-85068088D01*
X150320266Y-85120030D01*
X150344684Y-85185495D01*
X150345000Y-85194342D01*
X150345000Y-86721000D01*
X150325315Y-86788039D01*
X150272511Y-86833794D01*
X150221000Y-86845000D01*
X148651487Y-86845000D01*
X148633609Y-86843704D01*
X148602944Y-86839236D01*
X148602930Y-86839233D01*
X148602930Y-86839234D01*
X148599859Y-86838786D01*
X148599853Y-86838785D01*
X148593627Y-86837878D01*
X148593626Y-86837878D01*
X148569465Y-86834358D01*
X148559104Y-86837770D01*
X148554906Y-86837835D01*
X148524330Y-86837793D01*
X148457317Y-86818016D01*
X148411635Y-86765149D01*
X148400500Y-86713793D01*
X148400500Y-84189620D01*
X148420185Y-84122581D01*
X148472989Y-84076826D01*
X148508573Y-84069175D01*
X148508244Y-84066805D01*
X148544200Y-84061807D01*
X148632940Y-84049474D01*
X148699618Y-84028596D01*
X148790899Y-83984924D01*
X148850116Y-83945354D01*
X148871538Y-83933904D01*
X148902681Y-83921005D01*
X148925925Y-83913954D01*
X148958969Y-83907381D01*
X148983153Y-83905000D01*
X149016846Y-83905000D01*
X149041030Y-83907381D01*
G37*
%TD.AperFunction*%
%TA.AperFunction,Conductor*%
G36*
X149471146Y-80291526D02*
G01*
X149583228Y-80309277D01*
X149620692Y-80327037D01*
X149700718Y-80346250D01*
X149728064Y-80356339D01*
X149829179Y-80407859D01*
X149845770Y-80418025D01*
X149937590Y-80484737D01*
X149952385Y-80497374D01*
X150032624Y-80577613D01*
X150045261Y-80592408D01*
X150111971Y-80684226D01*
X150122138Y-80700817D01*
X150173658Y-80801931D01*
X150181104Y-80819906D01*
X150216179Y-80927851D01*
X150220721Y-80946772D01*
X150229920Y-81004850D01*
X150229920Y-81004851D01*
X150235652Y-81041043D01*
X150238473Y-81058850D01*
X150240000Y-81078248D01*
X150240000Y-81191748D01*
X150238473Y-81211147D01*
X150220719Y-81323233D01*
X150216177Y-81342152D01*
X150181109Y-81450081D01*
X150173662Y-81468059D01*
X150122135Y-81569184D01*
X150111970Y-81585772D01*
X150045267Y-81677583D01*
X150032631Y-81692378D01*
X150012318Y-81712692D01*
X150012315Y-81712696D01*
X149952384Y-81772625D01*
X149937591Y-81785259D01*
X149872172Y-81832789D01*
X149872169Y-81832792D01*
X149799986Y-81902818D01*
X149757488Y-81957729D01*
X149757481Y-81957738D01*
X149714009Y-82030375D01*
X149714008Y-82030380D01*
X149684538Y-82143623D01*
X149684537Y-82143628D01*
X149684536Y-82143631D01*
X149684536Y-82143634D01*
X149678309Y-82213224D01*
X149678309Y-82213228D01*
X149683724Y-82314256D01*
X149683724Y-82314258D01*
X149688440Y-82337968D01*
X149691493Y-82353315D01*
X149691494Y-82353322D01*
X149692618Y-82358975D01*
X149695000Y-82383159D01*
X149695000Y-82416839D01*
X149692617Y-82441033D01*
X149686045Y-82474069D01*
X149678988Y-82497330D01*
X149666097Y-82528450D01*
X149654640Y-82549885D01*
X149635920Y-82577902D01*
X149620498Y-82596693D01*
X149596693Y-82620498D01*
X149577903Y-82635919D01*
X149549884Y-82654641D01*
X149528445Y-82666100D01*
X149497328Y-82678989D01*
X149474071Y-82686045D01*
X149455070Y-82689825D01*
X149441033Y-82692617D01*
X149416842Y-82695000D01*
X149383153Y-82695000D01*
X149358963Y-82692617D01*
X149325929Y-82686046D01*
X149302674Y-82678991D01*
X149271541Y-82666095D01*
X149250111Y-82654640D01*
X149222096Y-82635921D01*
X149203306Y-82620500D01*
X149179497Y-82596691D01*
X149164080Y-82577908D01*
X149145355Y-82549883D01*
X149133902Y-82528456D01*
X149121005Y-82497318D01*
X149113950Y-82474058D01*
X149107383Y-82441043D01*
X149105000Y-82416852D01*
X149105000Y-82383151D01*
X149107383Y-82358959D01*
X149108859Y-82351541D01*
X149115011Y-82320611D01*
X149120483Y-82220202D01*
X149117305Y-82183970D01*
X149115294Y-82156969D01*
X149114534Y-82153120D01*
X149114440Y-82152074D01*
X149114508Y-82152069D01*
X149114445Y-82151343D01*
X149110014Y-82130180D01*
X149109748Y-82128866D01*
X149108097Y-82120500D01*
X149098754Y-82073149D01*
X149098752Y-82073146D01*
X149097075Y-82068372D01*
X149097033Y-82068169D01*
X149076803Y-82030380D01*
X149063923Y-82006320D01*
X149063904Y-82006286D01*
X149063359Y-82005267D01*
X149044648Y-81969381D01*
X149044210Y-81968800D01*
X149043944Y-81969000D01*
X149041801Y-81964996D01*
X149023331Y-81941043D01*
X149022508Y-81939975D01*
X149021662Y-81938865D01*
X149002692Y-81913681D01*
X148966816Y-81878019D01*
X148930944Y-81842359D01*
X148930784Y-81842240D01*
X148930497Y-81842026D01*
X148930447Y-81841989D01*
X148930401Y-81841955D01*
X148927153Y-81839567D01*
X148927152Y-81839566D01*
X148927051Y-81839492D01*
X148838334Y-81775036D01*
X148838332Y-81775034D01*
X148831997Y-81770432D01*
X148817962Y-81758307D01*
X148810699Y-81752904D01*
X148772157Y-81731070D01*
X148771529Y-81730653D01*
X148756837Y-81722096D01*
X148749908Y-81718060D01*
X148749894Y-81718053D01*
X148749864Y-81718037D01*
X148747199Y-81716715D01*
X148744124Y-81715190D01*
X148734072Y-81709496D01*
X148725561Y-81705985D01*
X148721724Y-81704082D01*
X148721712Y-81704077D01*
X148707210Y-81696887D01*
X148704020Y-81695743D01*
X148689365Y-81691055D01*
X148677707Y-81686247D01*
X148608548Y-81665643D01*
X148521704Y-81663685D01*
X148455127Y-81642495D01*
X148410574Y-81588674D01*
X148400500Y-81539717D01*
X148400500Y-80732131D01*
X148420185Y-80665092D01*
X148472989Y-80619337D01*
X148521808Y-80609007D01*
X148521775Y-80608317D01*
X148525498Y-80608134D01*
X148525499Y-80608135D01*
X148610693Y-80603969D01*
X148721235Y-80565554D01*
X148779132Y-80533939D01*
X148779131Y-80533938D01*
X148780889Y-80532979D01*
X148782060Y-80532339D01*
X148782061Y-80532340D01*
X148782413Y-80532148D01*
X148782420Y-80532142D01*
X148786286Y-80530031D01*
X148786289Y-80530030D01*
X148786308Y-80530019D01*
X148790028Y-80527988D01*
X148794099Y-80527102D01*
X148795050Y-80526412D01*
X148811814Y-80514231D01*
X148811819Y-80514227D01*
X148821887Y-80506911D01*
X148821888Y-80506913D01*
X148887540Y-80459213D01*
X148887539Y-80459212D01*
X148944235Y-80418020D01*
X148960814Y-80407861D01*
X149061933Y-80356339D01*
X149079903Y-80348894D01*
X149187850Y-80313819D01*
X149206768Y-80309277D01*
X149245035Y-80303216D01*
X149318855Y-80291526D01*
X149338251Y-80290000D01*
X149451749Y-80290000D01*
X149471146Y-80291526D01*
G37*
%TD.AperFunction*%
%TA.AperFunction,Conductor*%
G36*
X182291030Y-81957381D02*
G01*
X182324069Y-81963953D01*
X182347317Y-81971005D01*
X182378454Y-81983902D01*
X182399892Y-81995361D01*
X182427901Y-82014076D01*
X182446691Y-82029497D01*
X182474941Y-82057747D01*
X182485857Y-82070231D01*
X182503221Y-82092999D01*
X182503241Y-82093024D01*
X182523453Y-82116350D01*
X182523464Y-82116361D01*
X182523466Y-82116364D01*
X182542889Y-82137050D01*
X182560593Y-82149466D01*
X182604175Y-82204076D01*
X182611315Y-82273579D01*
X182579745Y-82335910D01*
X182577766Y-82337968D01*
X182573529Y-82342272D01*
X182543927Y-82367012D01*
X182489050Y-82428103D01*
X182487058Y-82430128D01*
X182486991Y-82430164D01*
X182486364Y-82430827D01*
X182446693Y-82470498D01*
X182427903Y-82485919D01*
X182399884Y-82504641D01*
X182378445Y-82516100D01*
X182347328Y-82528989D01*
X182324071Y-82536045D01*
X182305538Y-82539732D01*
X182291033Y-82542617D01*
X182266842Y-82545000D01*
X182233153Y-82545000D01*
X182208963Y-82542617D01*
X182175929Y-82536046D01*
X182152674Y-82528991D01*
X182121541Y-82516095D01*
X182100111Y-82504640D01*
X182072096Y-82485921D01*
X182053306Y-82470500D01*
X182029497Y-82446691D01*
X182014080Y-82427908D01*
X181995355Y-82399883D01*
X181983902Y-82378456D01*
X181971005Y-82347318D01*
X181963950Y-82324058D01*
X181957383Y-82291043D01*
X181955000Y-82266852D01*
X181955000Y-82233151D01*
X181957381Y-82208968D01*
X181963954Y-82175925D01*
X181971004Y-82152682D01*
X181983903Y-82121539D01*
X181995358Y-82100110D01*
X182014080Y-82072089D01*
X182029492Y-82053311D01*
X182053311Y-82029492D01*
X182072089Y-82014080D01*
X182100110Y-81995358D01*
X182121539Y-81983903D01*
X182152682Y-81971004D01*
X182175927Y-81963953D01*
X182208967Y-81957381D01*
X182233153Y-81955000D01*
X182266846Y-81955000D01*
X182291030Y-81957381D01*
G37*
%TD.AperFunction*%
%TA.AperFunction,Conductor*%
G36*
X183541030Y-81957381D02*
G01*
X183574069Y-81963953D01*
X183597317Y-81971005D01*
X183628454Y-81983902D01*
X183649892Y-81995361D01*
X183677901Y-82014076D01*
X183696691Y-82029497D01*
X183720500Y-82053306D01*
X183735921Y-82072096D01*
X183754640Y-82100111D01*
X183766096Y-82121543D01*
X183778747Y-82152084D01*
X183778989Y-82152667D01*
X183786045Y-82175927D01*
X183791645Y-82204076D01*
X183792617Y-82208959D01*
X183795000Y-82233153D01*
X183795000Y-82266839D01*
X183792617Y-82291030D01*
X183789512Y-82306640D01*
X183789511Y-82306645D01*
X183786043Y-82324076D01*
X183778988Y-82347330D01*
X183774168Y-82358969D01*
X183766101Y-82378445D01*
X183754642Y-82399882D01*
X183735919Y-82427903D01*
X183720498Y-82446693D01*
X183696693Y-82470498D01*
X183677903Y-82485919D01*
X183649884Y-82504641D01*
X183628445Y-82516100D01*
X183597328Y-82528989D01*
X183574071Y-82536045D01*
X183555538Y-82539732D01*
X183541033Y-82542617D01*
X183516842Y-82545000D01*
X183483153Y-82545000D01*
X183458963Y-82542617D01*
X183425929Y-82536046D01*
X183402674Y-82528991D01*
X183371541Y-82516095D01*
X183350111Y-82504640D01*
X183322096Y-82485921D01*
X183303306Y-82470500D01*
X183275060Y-82442254D01*
X183264139Y-82429764D01*
X183263604Y-82429063D01*
X183246776Y-82406995D01*
X183246774Y-82406992D01*
X183226543Y-82383643D01*
X183207101Y-82362938D01*
X183189413Y-82350534D01*
X183145827Y-82295926D01*
X183138684Y-82226422D01*
X183170251Y-82164090D01*
X183172233Y-82162029D01*
X183176458Y-82157736D01*
X183206069Y-82132990D01*
X183260974Y-82071864D01*
X183262946Y-82069862D01*
X183263012Y-82069824D01*
X183263621Y-82069182D01*
X183303311Y-82029492D01*
X183322089Y-82014080D01*
X183350110Y-81995358D01*
X183371539Y-81983903D01*
X183402682Y-81971004D01*
X183425927Y-81963953D01*
X183458967Y-81957381D01*
X183483153Y-81955000D01*
X183516846Y-81955000D01*
X183541030Y-81957381D01*
G37*
%TD.AperFunction*%
%TA.AperFunction,Conductor*%
G36*
X152041030Y-81607381D02*
G01*
X152074069Y-81613953D01*
X152097317Y-81621005D01*
X152128454Y-81633902D01*
X152149891Y-81645360D01*
X152176299Y-81663006D01*
X152177901Y-81664076D01*
X152196691Y-81679497D01*
X152220500Y-81703306D01*
X152235921Y-81722096D01*
X152254640Y-81750111D01*
X152266096Y-81771543D01*
X152266544Y-81772625D01*
X152278989Y-81802667D01*
X152286045Y-81825927D01*
X152289314Y-81842359D01*
X152292617Y-81858959D01*
X152295000Y-81883153D01*
X152295000Y-81916840D01*
X152292617Y-81941033D01*
X152287097Y-81968782D01*
X152287097Y-81968784D01*
X152286045Y-81974072D01*
X152278989Y-81997331D01*
X152266100Y-82028447D01*
X152254641Y-82049884D01*
X152235919Y-82077903D01*
X152220498Y-82096693D01*
X152196693Y-82120498D01*
X152177903Y-82135919D01*
X152149884Y-82154641D01*
X152128445Y-82166100D01*
X152097328Y-82178989D01*
X152074071Y-82186045D01*
X152055070Y-82189825D01*
X152041033Y-82192617D01*
X152016842Y-82195000D01*
X151983153Y-82195000D01*
X151958963Y-82192617D01*
X151925929Y-82186046D01*
X151902674Y-82178991D01*
X151871541Y-82166095D01*
X151850111Y-82154640D01*
X151822096Y-82135921D01*
X151803306Y-82120500D01*
X151779497Y-82096691D01*
X151764080Y-82077908D01*
X151745355Y-82049883D01*
X151733902Y-82028456D01*
X151721005Y-81997318D01*
X151713950Y-81974058D01*
X151707383Y-81941043D01*
X151705000Y-81916852D01*
X151705000Y-81883151D01*
X151707381Y-81858968D01*
X151713954Y-81825925D01*
X151721004Y-81802682D01*
X151733903Y-81771539D01*
X151745358Y-81750110D01*
X151764080Y-81722089D01*
X151779492Y-81703311D01*
X151803311Y-81679492D01*
X151822089Y-81664080D01*
X151850110Y-81645358D01*
X151871539Y-81633903D01*
X151902682Y-81621004D01*
X151925927Y-81613953D01*
X151958967Y-81607381D01*
X151983153Y-81605000D01*
X152016846Y-81605000D01*
X152041030Y-81607381D01*
G37*
%TD.AperFunction*%
%TA.AperFunction,Conductor*%
G36*
X155041030Y-80707381D02*
G01*
X155074069Y-80713953D01*
X155097317Y-80721005D01*
X155124178Y-80732131D01*
X155128454Y-80733902D01*
X155149892Y-80745361D01*
X155177901Y-80764076D01*
X155196691Y-80779497D01*
X155220500Y-80803306D01*
X155235921Y-80822096D01*
X155254640Y-80850111D01*
X155266098Y-80871547D01*
X155278989Y-80902667D01*
X155286045Y-80925927D01*
X155290192Y-80946772D01*
X155292617Y-80958959D01*
X155295000Y-80983153D01*
X155295000Y-81016839D01*
X155292617Y-81041031D01*
X155287154Y-81068492D01*
X155286045Y-81074069D01*
X155278988Y-81097330D01*
X155266097Y-81128450D01*
X155254640Y-81149885D01*
X155235920Y-81177902D01*
X155220498Y-81196693D01*
X155196693Y-81220498D01*
X155177903Y-81235919D01*
X155149884Y-81254641D01*
X155128445Y-81266100D01*
X155097328Y-81278989D01*
X155074071Y-81286045D01*
X155055070Y-81289825D01*
X155041033Y-81292617D01*
X155016842Y-81295000D01*
X154983153Y-81295000D01*
X154958963Y-81292617D01*
X154925929Y-81286046D01*
X154902674Y-81278991D01*
X154871541Y-81266095D01*
X154850111Y-81254640D01*
X154822096Y-81235921D01*
X154803306Y-81220500D01*
X154779497Y-81196691D01*
X154764080Y-81177908D01*
X154745355Y-81149883D01*
X154733902Y-81128456D01*
X154721005Y-81097318D01*
X154713950Y-81074058D01*
X154707383Y-81041043D01*
X154705000Y-81016852D01*
X154705000Y-80983151D01*
X154707381Y-80958968D01*
X154713954Y-80925925D01*
X154721004Y-80902682D01*
X154733903Y-80871539D01*
X154745358Y-80850110D01*
X154764080Y-80822089D01*
X154779492Y-80803311D01*
X154803311Y-80779492D01*
X154822089Y-80764080D01*
X154850110Y-80745358D01*
X154871539Y-80733903D01*
X154902682Y-80721004D01*
X154925927Y-80713953D01*
X154958967Y-80707381D01*
X154983153Y-80705000D01*
X155016846Y-80705000D01*
X155041030Y-80707381D01*
G37*
%TD.AperFunction*%
%TA.AperFunction,Conductor*%
G36*
X165541030Y-78707381D02*
G01*
X165574069Y-78713953D01*
X165597317Y-78721005D01*
X165628454Y-78733902D01*
X165649892Y-78745361D01*
X165677901Y-78764076D01*
X165696691Y-78779497D01*
X165720500Y-78803306D01*
X165735921Y-78822096D01*
X165754640Y-78850111D01*
X165766098Y-78871547D01*
X165778989Y-78902667D01*
X165786046Y-78925928D01*
X165792617Y-78958959D01*
X165795000Y-78983153D01*
X165795000Y-79016839D01*
X165792617Y-79041033D01*
X165786044Y-79074074D01*
X165778988Y-79097334D01*
X165766101Y-79128445D01*
X165754642Y-79149882D01*
X165735919Y-79177903D01*
X165720498Y-79196693D01*
X165696693Y-79220498D01*
X165677903Y-79235919D01*
X165649884Y-79254641D01*
X165628445Y-79266100D01*
X165597328Y-79278989D01*
X165574071Y-79286045D01*
X165555070Y-79289825D01*
X165541033Y-79292617D01*
X165516842Y-79295000D01*
X165483153Y-79295000D01*
X165458963Y-79292617D01*
X165425929Y-79286046D01*
X165402674Y-79278991D01*
X165371541Y-79266095D01*
X165350111Y-79254640D01*
X165322096Y-79235921D01*
X165303306Y-79220500D01*
X165279497Y-79196691D01*
X165264080Y-79177908D01*
X165245355Y-79149883D01*
X165233902Y-79128456D01*
X165221005Y-79097318D01*
X165213950Y-79074058D01*
X165207383Y-79041043D01*
X165205000Y-79016852D01*
X165205000Y-78983151D01*
X165207381Y-78958968D01*
X165213954Y-78925925D01*
X165221004Y-78902682D01*
X165233903Y-78871539D01*
X165245358Y-78850110D01*
X165264080Y-78822089D01*
X165279492Y-78803311D01*
X165303311Y-78779492D01*
X165322089Y-78764080D01*
X165350110Y-78745358D01*
X165371539Y-78733903D01*
X165402682Y-78721004D01*
X165425927Y-78713953D01*
X165458967Y-78707381D01*
X165483153Y-78705000D01*
X165516846Y-78705000D01*
X165541030Y-78707381D01*
G37*
%TD.AperFunction*%
%TA.AperFunction,Conductor*%
G36*
X167841030Y-78707381D02*
G01*
X167874069Y-78713953D01*
X167897317Y-78721005D01*
X167928454Y-78733902D01*
X167949892Y-78745361D01*
X167977901Y-78764076D01*
X167996691Y-78779497D01*
X168020500Y-78803306D01*
X168035921Y-78822096D01*
X168054640Y-78850111D01*
X168066098Y-78871547D01*
X168078989Y-78902667D01*
X168086046Y-78925928D01*
X168092617Y-78958959D01*
X168095000Y-78983153D01*
X168095000Y-79016839D01*
X168092617Y-79041033D01*
X168086044Y-79074074D01*
X168078988Y-79097334D01*
X168066101Y-79128445D01*
X168054642Y-79149882D01*
X168035919Y-79177903D01*
X168020498Y-79196693D01*
X167996693Y-79220498D01*
X167977903Y-79235919D01*
X167949884Y-79254641D01*
X167928445Y-79266100D01*
X167897328Y-79278989D01*
X167874071Y-79286045D01*
X167855070Y-79289825D01*
X167841033Y-79292617D01*
X167816842Y-79295000D01*
X167783153Y-79295000D01*
X167758963Y-79292617D01*
X167725929Y-79286046D01*
X167702674Y-79278991D01*
X167671541Y-79266095D01*
X167650111Y-79254640D01*
X167622096Y-79235921D01*
X167603306Y-79220500D01*
X167579497Y-79196691D01*
X167564080Y-79177908D01*
X167545355Y-79149883D01*
X167533902Y-79128456D01*
X167521005Y-79097318D01*
X167513950Y-79074058D01*
X167507383Y-79041043D01*
X167505000Y-79016852D01*
X167505000Y-78983151D01*
X167507381Y-78958968D01*
X167513954Y-78925925D01*
X167521004Y-78902682D01*
X167533903Y-78871539D01*
X167545358Y-78850110D01*
X167564080Y-78822089D01*
X167579492Y-78803311D01*
X167603311Y-78779492D01*
X167622089Y-78764080D01*
X167650110Y-78745358D01*
X167671539Y-78733903D01*
X167702682Y-78721004D01*
X167725927Y-78713953D01*
X167758967Y-78707381D01*
X167783153Y-78705000D01*
X167816846Y-78705000D01*
X167841030Y-78707381D01*
G37*
%TD.AperFunction*%
%TA.AperFunction,Conductor*%
G36*
X170441030Y-78707381D02*
G01*
X170474069Y-78713953D01*
X170497317Y-78721005D01*
X170528454Y-78733902D01*
X170549892Y-78745361D01*
X170577901Y-78764076D01*
X170596691Y-78779497D01*
X170620500Y-78803306D01*
X170635921Y-78822096D01*
X170654640Y-78850111D01*
X170666098Y-78871547D01*
X170678989Y-78902667D01*
X170686046Y-78925928D01*
X170692617Y-78958959D01*
X170695000Y-78983153D01*
X170695000Y-79016839D01*
X170692617Y-79041033D01*
X170686045Y-79074069D01*
X170678988Y-79097330D01*
X170666097Y-79128450D01*
X170654640Y-79149885D01*
X170635920Y-79177902D01*
X170620498Y-79196693D01*
X170596693Y-79220498D01*
X170577903Y-79235919D01*
X170549884Y-79254641D01*
X170528445Y-79266100D01*
X170497328Y-79278989D01*
X170474071Y-79286045D01*
X170455070Y-79289825D01*
X170441033Y-79292617D01*
X170416842Y-79295000D01*
X170383153Y-79295000D01*
X170358963Y-79292617D01*
X170325929Y-79286046D01*
X170302674Y-79278991D01*
X170271541Y-79266095D01*
X170250111Y-79254640D01*
X170222096Y-79235921D01*
X170203306Y-79220500D01*
X170179497Y-79196691D01*
X170164080Y-79177908D01*
X170145355Y-79149883D01*
X170133902Y-79128456D01*
X170121005Y-79097318D01*
X170113950Y-79074058D01*
X170107383Y-79041043D01*
X170105000Y-79016852D01*
X170105000Y-78983151D01*
X170107381Y-78958968D01*
X170113954Y-78925925D01*
X170121004Y-78902682D01*
X170133903Y-78871539D01*
X170145358Y-78850110D01*
X170164080Y-78822089D01*
X170179492Y-78803311D01*
X170203311Y-78779492D01*
X170222089Y-78764080D01*
X170250110Y-78745358D01*
X170271539Y-78733903D01*
X170302682Y-78721004D01*
X170325927Y-78713953D01*
X170358967Y-78707381D01*
X170383153Y-78705000D01*
X170416846Y-78705000D01*
X170441030Y-78707381D01*
G37*
%TD.AperFunction*%
%TD*%
%TA.AperFunction,Conductor*%
%TO.N,VCC*%
G36*
X183806061Y-77051097D02*
G01*
X183924317Y-77062744D01*
X183948145Y-77067483D01*
X184056005Y-77100202D01*
X184078454Y-77109501D01*
X184177850Y-77162629D01*
X184198061Y-77176134D01*
X184285180Y-77247631D01*
X184302368Y-77264819D01*
X184373865Y-77351938D01*
X184387370Y-77372149D01*
X184440495Y-77471538D01*
X184449798Y-77493997D01*
X184482514Y-77601848D01*
X184487256Y-77625688D01*
X184498903Y-77743937D01*
X184499500Y-77756092D01*
X184499500Y-84687630D01*
X184479815Y-84754669D01*
X184427011Y-84800424D01*
X184357853Y-84810368D01*
X184357623Y-84810335D01*
X184351393Y-84809427D01*
X184283260Y-84799500D01*
X182516740Y-84799500D01*
X182516739Y-84799500D01*
X182448608Y-84809426D01*
X182343514Y-84860803D01*
X182260803Y-84943514D01*
X182209426Y-85048608D01*
X182199500Y-85116739D01*
X182199500Y-86883260D01*
X182209426Y-86951391D01*
X182260803Y-87056485D01*
X182343514Y-87139196D01*
X182343515Y-87139196D01*
X182343517Y-87139198D01*
X182448607Y-87190573D01*
X182477097Y-87194724D01*
X182516739Y-87200500D01*
X182868090Y-87200500D01*
X182935129Y-87220185D01*
X182980884Y-87272989D01*
X182990828Y-87342147D01*
X182961803Y-87405703D01*
X182924385Y-87434985D01*
X182770800Y-87513240D01*
X182761572Y-87519945D01*
X182617927Y-87624310D01*
X182617925Y-87624312D01*
X182617924Y-87624312D01*
X182484312Y-87757924D01*
X182484312Y-87757925D01*
X182484310Y-87757927D01*
X182470841Y-87776466D01*
X182373240Y-87910800D01*
X182287454Y-88079163D01*
X182229059Y-88258881D01*
X182199500Y-88445513D01*
X182199500Y-88634486D01*
X182229059Y-88821118D01*
X182287454Y-89000836D01*
X182364994Y-89153015D01*
X182373240Y-89169199D01*
X182484310Y-89322073D01*
X182617927Y-89455690D01*
X182770801Y-89566760D01*
X182790869Y-89576985D01*
X182939163Y-89652545D01*
X182939165Y-89652545D01*
X182939168Y-89652547D01*
X183035497Y-89683846D01*
X183118881Y-89710940D01*
X183305514Y-89740500D01*
X183305519Y-89740500D01*
X183494486Y-89740500D01*
X183681118Y-89710940D01*
X183707047Y-89702515D01*
X183860832Y-89652547D01*
X184029199Y-89566760D01*
X184182073Y-89455690D01*
X184287819Y-89349944D01*
X184349142Y-89316459D01*
X184418834Y-89321443D01*
X184474767Y-89363315D01*
X184499184Y-89428779D01*
X184499500Y-89437625D01*
X184499500Y-91876000D01*
X184479815Y-91943039D01*
X184427011Y-91988794D01*
X184375500Y-92000000D01*
X181710181Y-92000000D01*
X181643142Y-91980315D01*
X181641290Y-91979102D01*
X181558133Y-91923538D01*
X181558124Y-91923533D01*
X181439744Y-91874499D01*
X181439738Y-91874497D01*
X181314071Y-91849500D01*
X181314069Y-91849500D01*
X181185931Y-91849500D01*
X181185929Y-91849500D01*
X181060261Y-91874497D01*
X181060255Y-91874499D01*
X180941875Y-91923533D01*
X180941866Y-91923538D01*
X180858710Y-91979102D01*
X180792032Y-91999980D01*
X180789819Y-92000000D01*
X180360181Y-92000000D01*
X180293142Y-91980315D01*
X180291290Y-91979102D01*
X180208133Y-91923538D01*
X180208124Y-91923533D01*
X180089744Y-91874499D01*
X180089738Y-91874497D01*
X179964071Y-91849500D01*
X179964069Y-91849500D01*
X179835931Y-91849500D01*
X179835929Y-91849500D01*
X179710261Y-91874497D01*
X179710255Y-91874499D01*
X179591875Y-91923533D01*
X179591866Y-91923538D01*
X179508710Y-91979102D01*
X179442032Y-91999980D01*
X179439819Y-92000000D01*
X178960181Y-92000000D01*
X178893142Y-91980315D01*
X178891290Y-91979102D01*
X178808133Y-91923538D01*
X178808124Y-91923533D01*
X178689744Y-91874499D01*
X178689738Y-91874497D01*
X178564071Y-91849500D01*
X178564069Y-91849500D01*
X178435931Y-91849500D01*
X178435929Y-91849500D01*
X178310261Y-91874497D01*
X178310255Y-91874499D01*
X178191875Y-91923533D01*
X178186498Y-91926408D01*
X178185787Y-91925079D01*
X178126211Y-91943732D01*
X178058831Y-91925246D01*
X178012142Y-91873266D01*
X178000000Y-91819752D01*
X178000000Y-91430247D01*
X178019685Y-91363208D01*
X178072489Y-91317453D01*
X178141647Y-91307509D01*
X178186006Y-91324510D01*
X178186498Y-91323592D01*
X178191872Y-91326464D01*
X178191873Y-91326465D01*
X178310256Y-91375501D01*
X178310260Y-91375501D01*
X178310261Y-91375502D01*
X178435928Y-91400500D01*
X178435931Y-91400500D01*
X178564071Y-91400500D01*
X178648615Y-91383682D01*
X178689744Y-91375501D01*
X178808127Y-91326465D01*
X178914669Y-91255276D01*
X179005276Y-91164669D01*
X179076465Y-91058127D01*
X179076466Y-91058124D01*
X179076468Y-91058121D01*
X179095794Y-91011463D01*
X179139634Y-90957059D01*
X179205928Y-90934994D01*
X179273628Y-90952273D01*
X179320642Y-91002769D01*
X179320665Y-91002757D01*
X179320710Y-91002842D01*
X179321239Y-91003410D01*
X179322559Y-91006301D01*
X179323538Y-91008133D01*
X179394723Y-91114668D01*
X179394726Y-91114672D01*
X179485327Y-91205273D01*
X179485331Y-91205276D01*
X179591866Y-91276461D01*
X179591872Y-91276464D01*
X179591873Y-91276465D01*
X179710256Y-91325501D01*
X179710260Y-91325501D01*
X179710261Y-91325502D01*
X179835928Y-91350500D01*
X179835931Y-91350500D01*
X179964071Y-91350500D01*
X180048615Y-91333682D01*
X180089744Y-91325501D01*
X180208127Y-91276465D01*
X180314669Y-91205276D01*
X180405276Y-91114669D01*
X180476465Y-91008127D01*
X180525501Y-90889744D01*
X180550500Y-90764069D01*
X180550500Y-90635931D01*
X180550500Y-90635928D01*
X180525502Y-90510261D01*
X180525501Y-90510260D01*
X180525501Y-90510256D01*
X180476465Y-90391873D01*
X180476464Y-90391872D01*
X180476461Y-90391866D01*
X180405276Y-90285331D01*
X180405273Y-90285327D01*
X180314672Y-90194726D01*
X180314668Y-90194723D01*
X180208133Y-90123538D01*
X180208124Y-90123533D01*
X180089744Y-90074499D01*
X180089738Y-90074497D01*
X179964071Y-90049500D01*
X179964069Y-90049500D01*
X179835931Y-90049500D01*
X179835929Y-90049500D01*
X179710261Y-90074497D01*
X179710255Y-90074499D01*
X179591875Y-90123533D01*
X179591866Y-90123538D01*
X179485331Y-90194723D01*
X179485327Y-90194726D01*
X179394726Y-90285327D01*
X179394723Y-90285331D01*
X179323538Y-90391866D01*
X179323532Y-90391878D01*
X179304204Y-90438539D01*
X179260362Y-90492941D01*
X179194068Y-90515005D01*
X179126369Y-90497725D01*
X179079358Y-90447230D01*
X179079335Y-90447243D01*
X179079288Y-90447155D01*
X179078759Y-90446587D01*
X179077437Y-90443692D01*
X179076461Y-90441866D01*
X179005276Y-90335331D01*
X179005273Y-90335327D01*
X178914672Y-90244726D01*
X178914668Y-90244723D01*
X178808133Y-90173538D01*
X178808124Y-90173533D01*
X178689744Y-90124499D01*
X178689738Y-90124497D01*
X178564071Y-90099500D01*
X178564069Y-90099500D01*
X178435931Y-90099500D01*
X178435929Y-90099500D01*
X178310261Y-90124497D01*
X178310255Y-90124499D01*
X178191875Y-90173533D01*
X178186498Y-90176408D01*
X178185787Y-90175079D01*
X178126211Y-90193732D01*
X178058831Y-90175246D01*
X178012142Y-90123266D01*
X178000000Y-90069752D01*
X178000000Y-85681584D01*
X178019685Y-85614545D01*
X178055109Y-85578482D01*
X178142715Y-85519945D01*
X178164669Y-85505276D01*
X178255276Y-85414669D01*
X178326465Y-85308127D01*
X178375501Y-85189744D01*
X178400500Y-85064069D01*
X178400500Y-84935931D01*
X178400500Y-84935928D01*
X178375502Y-84810261D01*
X178375501Y-84810260D01*
X178375501Y-84810256D01*
X178326465Y-84691873D01*
X178326464Y-84691872D01*
X178326461Y-84691866D01*
X178255276Y-84585331D01*
X178255273Y-84585327D01*
X178164672Y-84494726D01*
X178164668Y-84494723D01*
X178055109Y-84421518D01*
X178010304Y-84367906D01*
X178000000Y-84318416D01*
X178000000Y-82314071D01*
X181599499Y-82314071D01*
X181624497Y-82439738D01*
X181624499Y-82439744D01*
X181673533Y-82558124D01*
X181673538Y-82558133D01*
X181744723Y-82664668D01*
X181744726Y-82664672D01*
X181835327Y-82755273D01*
X181835331Y-82755276D01*
X181941866Y-82826461D01*
X181941872Y-82826464D01*
X181941873Y-82826465D01*
X182060256Y-82875501D01*
X182060260Y-82875501D01*
X182060261Y-82875502D01*
X182185928Y-82900500D01*
X182185931Y-82900500D01*
X182314071Y-82900500D01*
X182398615Y-82883682D01*
X182439744Y-82875501D01*
X182558127Y-82826465D01*
X182664669Y-82755276D01*
X182755276Y-82664669D01*
X182771898Y-82639793D01*
X182825510Y-82594988D01*
X182894835Y-82586281D01*
X182957863Y-82616435D01*
X182978102Y-82639793D01*
X182994723Y-82664668D01*
X182994726Y-82664672D01*
X183085327Y-82755273D01*
X183085331Y-82755276D01*
X183191866Y-82826461D01*
X183191872Y-82826464D01*
X183191873Y-82826465D01*
X183310256Y-82875501D01*
X183310260Y-82875501D01*
X183310261Y-82875502D01*
X183435928Y-82900500D01*
X183435931Y-82900500D01*
X183564071Y-82900500D01*
X183648615Y-82883682D01*
X183689744Y-82875501D01*
X183808127Y-82826465D01*
X183914669Y-82755276D01*
X184005276Y-82664669D01*
X184076465Y-82558127D01*
X184125501Y-82439744D01*
X184138181Y-82376000D01*
X184150500Y-82314071D01*
X184150500Y-82185928D01*
X184125502Y-82060261D01*
X184125501Y-82060260D01*
X184125501Y-82060256D01*
X184076465Y-81941873D01*
X184076464Y-81941872D01*
X184076461Y-81941866D01*
X184005276Y-81835331D01*
X184005273Y-81835327D01*
X183914672Y-81744726D01*
X183914668Y-81744723D01*
X183808133Y-81673538D01*
X183808124Y-81673533D01*
X183689744Y-81624499D01*
X183689738Y-81624497D01*
X183564071Y-81599500D01*
X183564069Y-81599500D01*
X183435931Y-81599500D01*
X183435929Y-81599500D01*
X183310261Y-81624497D01*
X183310255Y-81624499D01*
X183191875Y-81673533D01*
X183191866Y-81673538D01*
X183085331Y-81744723D01*
X183085327Y-81744726D01*
X182994726Y-81835327D01*
X182994721Y-81835334D01*
X182978101Y-81860207D01*
X182924488Y-81905012D01*
X182855163Y-81913718D01*
X182792136Y-81883562D01*
X182771899Y-81860207D01*
X182755278Y-81835334D01*
X182755273Y-81835327D01*
X182664672Y-81744726D01*
X182664668Y-81744723D01*
X182558133Y-81673538D01*
X182558124Y-81673533D01*
X182439744Y-81624499D01*
X182439738Y-81624497D01*
X182314071Y-81599500D01*
X182314069Y-81599500D01*
X182185931Y-81599500D01*
X182185929Y-81599500D01*
X182060261Y-81624497D01*
X182060255Y-81624499D01*
X181941875Y-81673533D01*
X181941866Y-81673538D01*
X181835331Y-81744723D01*
X181835327Y-81744726D01*
X181744726Y-81835327D01*
X181744723Y-81835331D01*
X181673538Y-81941866D01*
X181673533Y-81941875D01*
X181624499Y-82060255D01*
X181624497Y-82060261D01*
X181599500Y-82185928D01*
X181599500Y-82185931D01*
X181599500Y-82314069D01*
X181599500Y-82314071D01*
X181599499Y-82314071D01*
X178000000Y-82314071D01*
X178000000Y-82000000D01*
X171624000Y-82000000D01*
X171556961Y-81980315D01*
X171511206Y-81927511D01*
X171500000Y-81876000D01*
X171500000Y-80500000D01*
X163500000Y-80500000D01*
X163500000Y-82376000D01*
X163480315Y-82443039D01*
X163427511Y-82488794D01*
X163376000Y-82500000D01*
X158000000Y-82500000D01*
X158000000Y-82776010D01*
X157980315Y-82843049D01*
X157927511Y-82888804D01*
X157858353Y-82898748D01*
X157828549Y-82890572D01*
X157789744Y-82874499D01*
X157789738Y-82874497D01*
X157664071Y-82849500D01*
X157664069Y-82849500D01*
X157535931Y-82849500D01*
X157535929Y-82849500D01*
X157410261Y-82874497D01*
X157410255Y-82874499D01*
X157291875Y-82923533D01*
X157291866Y-82923538D01*
X157185331Y-82994723D01*
X157185327Y-82994726D01*
X157094726Y-83085327D01*
X157094723Y-83085331D01*
X157023538Y-83191866D01*
X157023533Y-83191875D01*
X156974499Y-83310255D01*
X156974497Y-83310261D01*
X156949500Y-83435928D01*
X156949500Y-83435931D01*
X156949500Y-83564069D01*
X156949500Y-83564071D01*
X156949499Y-83564071D01*
X156974497Y-83689738D01*
X156974499Y-83689744D01*
X157023533Y-83808124D01*
X157023538Y-83808133D01*
X157094723Y-83914668D01*
X157094726Y-83914672D01*
X157185327Y-84005273D01*
X157185331Y-84005276D01*
X157291866Y-84076461D01*
X157291872Y-84076464D01*
X157291873Y-84076465D01*
X157410256Y-84125501D01*
X157410260Y-84125501D01*
X157410261Y-84125502D01*
X157535928Y-84150500D01*
X157535931Y-84150500D01*
X157664071Y-84150500D01*
X157750869Y-84133234D01*
X157789744Y-84125501D01*
X157828547Y-84109427D01*
X157898016Y-84101959D01*
X157960496Y-84133234D01*
X157996148Y-84193323D01*
X158000000Y-84223989D01*
X158000000Y-84375500D01*
X157980315Y-84442539D01*
X157927511Y-84488294D01*
X157876000Y-84499500D01*
X157674767Y-84499500D01*
X157627315Y-84490061D01*
X157589748Y-84474500D01*
X157589738Y-84474497D01*
X157464071Y-84449500D01*
X157464069Y-84449500D01*
X157335931Y-84449500D01*
X157335929Y-84449500D01*
X157210261Y-84474497D01*
X157210251Y-84474500D01*
X157172685Y-84490061D01*
X157125233Y-84499500D01*
X156574767Y-84499500D01*
X156527315Y-84490061D01*
X156489748Y-84474500D01*
X156489738Y-84474497D01*
X156364071Y-84449500D01*
X156364069Y-84449500D01*
X156235931Y-84449500D01*
X156235929Y-84449500D01*
X156110261Y-84474497D01*
X156110251Y-84474500D01*
X156072685Y-84490061D01*
X156025233Y-84499500D01*
X155274767Y-84499500D01*
X155227315Y-84490061D01*
X155189748Y-84474500D01*
X155189738Y-84474497D01*
X155064071Y-84449500D01*
X155064069Y-84449500D01*
X154935931Y-84449500D01*
X154935929Y-84449500D01*
X154810261Y-84474497D01*
X154810251Y-84474500D01*
X154772685Y-84490061D01*
X154725233Y-84499500D01*
X153974767Y-84499500D01*
X153927315Y-84490061D01*
X153889748Y-84474500D01*
X153889738Y-84474497D01*
X153764071Y-84449500D01*
X153764069Y-84449500D01*
X153635931Y-84449500D01*
X153635929Y-84449500D01*
X153510261Y-84474497D01*
X153510255Y-84474499D01*
X153391875Y-84523533D01*
X153391866Y-84523538D01*
X153285331Y-84594723D01*
X153285327Y-84594726D01*
X153194726Y-84685327D01*
X153194723Y-84685331D01*
X153123538Y-84791866D01*
X153123533Y-84791875D01*
X153074499Y-84910255D01*
X153074497Y-84910261D01*
X153049500Y-85035928D01*
X153049500Y-85035931D01*
X153049500Y-85164069D01*
X153049500Y-85164071D01*
X153049499Y-85164071D01*
X153074497Y-85289738D01*
X153074499Y-85289744D01*
X153123533Y-85408124D01*
X153123538Y-85408133D01*
X153194723Y-85514668D01*
X153194726Y-85514672D01*
X153285327Y-85605273D01*
X153285331Y-85605276D01*
X153391866Y-85676461D01*
X153391872Y-85676464D01*
X153391873Y-85676465D01*
X153510256Y-85725501D01*
X153510260Y-85725501D01*
X153510261Y-85725502D01*
X153635928Y-85750500D01*
X153635931Y-85750500D01*
X153764071Y-85750500D01*
X153848615Y-85733682D01*
X153889744Y-85725501D01*
X153915458Y-85714850D01*
X153927315Y-85709939D01*
X153974767Y-85700500D01*
X154080192Y-85700500D01*
X154147231Y-85720185D01*
X154192986Y-85772989D01*
X154202930Y-85842147D01*
X154173905Y-85905703D01*
X154167873Y-85912181D01*
X154094726Y-85985327D01*
X154094723Y-85985331D01*
X154023538Y-86091866D01*
X154023533Y-86091875D01*
X153974499Y-86210255D01*
X153974497Y-86210261D01*
X153949500Y-86335928D01*
X153949500Y-86335931D01*
X153949500Y-86464069D01*
X153949500Y-86464071D01*
X153949499Y-86464071D01*
X153974497Y-86589738D01*
X153974499Y-86589744D01*
X154023534Y-86708127D01*
X154038892Y-86731112D01*
X154059768Y-86797790D01*
X154041282Y-86865170D01*
X154038892Y-86868888D01*
X154023534Y-86891872D01*
X153974499Y-87010255D01*
X153974497Y-87010261D01*
X153949500Y-87135928D01*
X153949500Y-87135931D01*
X153949500Y-87264069D01*
X153949500Y-87264071D01*
X153949499Y-87264071D01*
X153974497Y-87389738D01*
X153974499Y-87389744D01*
X154023533Y-87508124D01*
X154023538Y-87508133D01*
X154094723Y-87614668D01*
X154094726Y-87614672D01*
X154185327Y-87705273D01*
X154185331Y-87705276D01*
X154291866Y-87776461D01*
X154291872Y-87776464D01*
X154291873Y-87776465D01*
X154410256Y-87825501D01*
X154410266Y-87825503D01*
X154411995Y-87826028D01*
X154412795Y-87826552D01*
X154415884Y-87827832D01*
X154415641Y-87828417D01*
X154470434Y-87864326D01*
X154498890Y-87928138D01*
X154500000Y-87944689D01*
X154500000Y-88700001D01*
X154500000Y-88700002D01*
X158376000Y-88700000D01*
X158443039Y-88719685D01*
X158488794Y-88772488D01*
X158500000Y-88824000D01*
X158500000Y-89676000D01*
X158480315Y-89743039D01*
X158427511Y-89788794D01*
X158376000Y-89800000D01*
X148524500Y-89800000D01*
X148457461Y-89780315D01*
X148411706Y-89727511D01*
X148400500Y-89676000D01*
X148400500Y-87312369D01*
X148420185Y-87245330D01*
X148472989Y-87199575D01*
X148542147Y-87189631D01*
X148542379Y-87189665D01*
X148548605Y-87190572D01*
X148548607Y-87190573D01*
X148616740Y-87200500D01*
X148616741Y-87200500D01*
X150383261Y-87200500D01*
X150405971Y-87197191D01*
X150451393Y-87190573D01*
X150556483Y-87139198D01*
X150639198Y-87056483D01*
X150690573Y-86951393D01*
X150700500Y-86883260D01*
X150700500Y-85116740D01*
X150690573Y-85048607D01*
X150639198Y-84943517D01*
X150639196Y-84943515D01*
X150639196Y-84943514D01*
X150593398Y-84897716D01*
X150559913Y-84836393D01*
X150564897Y-84766701D01*
X150606769Y-84710768D01*
X150612170Y-84706945D01*
X150614669Y-84705276D01*
X150705276Y-84614669D01*
X150776465Y-84508127D01*
X150825501Y-84389744D01*
X150838671Y-84323535D01*
X150850500Y-84264071D01*
X150850500Y-84135928D01*
X150825502Y-84010261D01*
X150825501Y-84010260D01*
X150825501Y-84010256D01*
X150776465Y-83891873D01*
X150776464Y-83891872D01*
X150776461Y-83891866D01*
X150705276Y-83785331D01*
X150705273Y-83785327D01*
X150614672Y-83694726D01*
X150614668Y-83694723D01*
X150508133Y-83623538D01*
X150508124Y-83623533D01*
X150389744Y-83574499D01*
X150389738Y-83574497D01*
X150264071Y-83549500D01*
X150264069Y-83549500D01*
X150135931Y-83549500D01*
X150135929Y-83549500D01*
X150010261Y-83574497D01*
X150010255Y-83574499D01*
X149891875Y-83623533D01*
X149891866Y-83623538D01*
X149785331Y-83694723D01*
X149785327Y-83694726D01*
X149690416Y-83789638D01*
X149689239Y-83788461D01*
X149638097Y-83823292D01*
X149568252Y-83825156D01*
X149509590Y-83789631D01*
X149509584Y-83789638D01*
X149509556Y-83789610D01*
X149508487Y-83788963D01*
X149505749Y-83785803D01*
X149414672Y-83694726D01*
X149414668Y-83694723D01*
X149308133Y-83623538D01*
X149308124Y-83623533D01*
X149189744Y-83574499D01*
X149189738Y-83574497D01*
X149064071Y-83549500D01*
X149064069Y-83549500D01*
X148935931Y-83549500D01*
X148935929Y-83549500D01*
X148810261Y-83574497D01*
X148810255Y-83574499D01*
X148691875Y-83623533D01*
X148691866Y-83623538D01*
X148593391Y-83689338D01*
X148526713Y-83710216D01*
X148459333Y-83691731D01*
X148412643Y-83639753D01*
X148400500Y-83586236D01*
X148400500Y-82137625D01*
X148420185Y-82070586D01*
X148472989Y-82024831D01*
X148542147Y-82014887D01*
X148566608Y-82024976D01*
X148570981Y-82025250D01*
X148579979Y-82030491D01*
X148598513Y-82038136D01*
X148605776Y-82043539D01*
X148612927Y-82050690D01*
X148718195Y-82127172D01*
X148718738Y-82127576D01*
X148739354Y-82154944D01*
X148760276Y-82182077D01*
X148760339Y-82182803D01*
X148760777Y-82183384D01*
X148762963Y-82212722D01*
X148766342Y-82251256D01*
X148749500Y-82335926D01*
X148749500Y-82335929D01*
X148749500Y-82335931D01*
X148749500Y-82464069D01*
X148749500Y-82464071D01*
X148749499Y-82464071D01*
X148774497Y-82589738D01*
X148774499Y-82589744D01*
X148823533Y-82708124D01*
X148823538Y-82708133D01*
X148894723Y-82814668D01*
X148894726Y-82814672D01*
X148985327Y-82905273D01*
X148985331Y-82905276D01*
X149091866Y-82976461D01*
X149091872Y-82976464D01*
X149091873Y-82976465D01*
X149210256Y-83025501D01*
X149210260Y-83025501D01*
X149210261Y-83025502D01*
X149335928Y-83050500D01*
X149335931Y-83050500D01*
X149464071Y-83050500D01*
X149548615Y-83033682D01*
X149589744Y-83025501D01*
X149708127Y-82976465D01*
X149814669Y-82905276D01*
X149905276Y-82814669D01*
X149976465Y-82708127D01*
X150025501Y-82589744D01*
X150048034Y-82476466D01*
X150050500Y-82464071D01*
X150050500Y-82335929D01*
X150040162Y-82283961D01*
X150032394Y-82244908D01*
X150038621Y-82175318D01*
X150081124Y-82120401D01*
X150177073Y-82050690D01*
X150263692Y-81964071D01*
X151349499Y-81964071D01*
X151374497Y-82089738D01*
X151374499Y-82089744D01*
X151423533Y-82208124D01*
X151423538Y-82208133D01*
X151494723Y-82314668D01*
X151494726Y-82314672D01*
X151585327Y-82405273D01*
X151585331Y-82405276D01*
X151691866Y-82476461D01*
X151691872Y-82476464D01*
X151691873Y-82476465D01*
X151810256Y-82525501D01*
X151810260Y-82525501D01*
X151810261Y-82525502D01*
X151935928Y-82550500D01*
X151935931Y-82550500D01*
X152064071Y-82550500D01*
X152148615Y-82533682D01*
X152189744Y-82525501D01*
X152308127Y-82476465D01*
X152414669Y-82405276D01*
X152505276Y-82314669D01*
X152576465Y-82208127D01*
X152625501Y-82089744D01*
X152635767Y-82038136D01*
X152650500Y-81964071D01*
X152650500Y-81835928D01*
X152625502Y-81710261D01*
X152625501Y-81710260D01*
X152625501Y-81710256D01*
X152576465Y-81591873D01*
X152576464Y-81591872D01*
X152576461Y-81591866D01*
X152505276Y-81485331D01*
X152505273Y-81485327D01*
X152414672Y-81394726D01*
X152414668Y-81394723D01*
X152308133Y-81323538D01*
X152308124Y-81323533D01*
X152189744Y-81274499D01*
X152189738Y-81274497D01*
X152064071Y-81249500D01*
X152064069Y-81249500D01*
X151935931Y-81249500D01*
X151935929Y-81249500D01*
X151810261Y-81274497D01*
X151810255Y-81274499D01*
X151691875Y-81323533D01*
X151691866Y-81323538D01*
X151585331Y-81394723D01*
X151585327Y-81394726D01*
X151494726Y-81485327D01*
X151494723Y-81485331D01*
X151423538Y-81591866D01*
X151423533Y-81591875D01*
X151374499Y-81710255D01*
X151374497Y-81710261D01*
X151349500Y-81835928D01*
X151349500Y-81835931D01*
X151349500Y-81964069D01*
X151349500Y-81964071D01*
X151349499Y-81964071D01*
X150263692Y-81964071D01*
X150310690Y-81917073D01*
X150421760Y-81764199D01*
X150507547Y-81595832D01*
X150565940Y-81416118D01*
X150566169Y-81414672D01*
X150595500Y-81229486D01*
X150595500Y-81064071D01*
X154349499Y-81064071D01*
X154374497Y-81189738D01*
X154374499Y-81189744D01*
X154423533Y-81308124D01*
X154423538Y-81308133D01*
X154494723Y-81414668D01*
X154494726Y-81414672D01*
X154585327Y-81505273D01*
X154585331Y-81505276D01*
X154691866Y-81576461D01*
X154691872Y-81576464D01*
X154691873Y-81576465D01*
X154810256Y-81625501D01*
X154810260Y-81625501D01*
X154810261Y-81625502D01*
X154935928Y-81650500D01*
X154935931Y-81650500D01*
X155064071Y-81650500D01*
X155148615Y-81633682D01*
X155189744Y-81625501D01*
X155308127Y-81576465D01*
X155414669Y-81505276D01*
X155505276Y-81414669D01*
X155576465Y-81308127D01*
X155625501Y-81189744D01*
X155650500Y-81064069D01*
X155650500Y-80935931D01*
X155650500Y-80935928D01*
X155625502Y-80810261D01*
X155625501Y-80810260D01*
X155625501Y-80810256D01*
X155576465Y-80691873D01*
X155576464Y-80691872D01*
X155576461Y-80691866D01*
X155505276Y-80585331D01*
X155505273Y-80585327D01*
X155414672Y-80494726D01*
X155414668Y-80494723D01*
X155308133Y-80423538D01*
X155308124Y-80423533D01*
X155189744Y-80374499D01*
X155189738Y-80374497D01*
X155064071Y-80349500D01*
X155064069Y-80349500D01*
X154935931Y-80349500D01*
X154935929Y-80349500D01*
X154810261Y-80374497D01*
X154810255Y-80374499D01*
X154691875Y-80423533D01*
X154691866Y-80423538D01*
X154585331Y-80494723D01*
X154585327Y-80494726D01*
X154494726Y-80585327D01*
X154494723Y-80585331D01*
X154423538Y-80691866D01*
X154423533Y-80691875D01*
X154374499Y-80810255D01*
X154374497Y-80810261D01*
X154349500Y-80935928D01*
X154349500Y-80935931D01*
X154349500Y-81064069D01*
X154349500Y-81064071D01*
X154349499Y-81064071D01*
X150595500Y-81064071D01*
X150595500Y-81040513D01*
X150581043Y-80949237D01*
X150565940Y-80853881D01*
X150513300Y-80691875D01*
X150507547Y-80674168D01*
X150507545Y-80674165D01*
X150507545Y-80674163D01*
X150421759Y-80505800D01*
X150417545Y-80500000D01*
X150310690Y-80352927D01*
X150177073Y-80219310D01*
X150024199Y-80108240D01*
X149855836Y-80022454D01*
X149676118Y-79964059D01*
X149489486Y-79934500D01*
X149489481Y-79934500D01*
X149300519Y-79934500D01*
X149300514Y-79934500D01*
X149113881Y-79964059D01*
X148934163Y-80022454D01*
X148765800Y-80108240D01*
X148678579Y-80171610D01*
X148612927Y-80219310D01*
X148612925Y-80219312D01*
X148612924Y-80219312D01*
X148612181Y-80220056D01*
X148611829Y-80220248D01*
X148609223Y-80222474D01*
X148608755Y-80221926D01*
X148550858Y-80253541D01*
X148481166Y-80248557D01*
X148425233Y-80206685D01*
X148400816Y-80141221D01*
X148400500Y-80132375D01*
X148400500Y-79064071D01*
X164849499Y-79064071D01*
X164874497Y-79189738D01*
X164874499Y-79189744D01*
X164923533Y-79308124D01*
X164923538Y-79308133D01*
X164994723Y-79414668D01*
X164994726Y-79414672D01*
X165085327Y-79505273D01*
X165085331Y-79505276D01*
X165191866Y-79576461D01*
X165191872Y-79576464D01*
X165191873Y-79576465D01*
X165310256Y-79625501D01*
X165310260Y-79625501D01*
X165310261Y-79625502D01*
X165435928Y-79650500D01*
X165435931Y-79650500D01*
X165564071Y-79650500D01*
X165648615Y-79633682D01*
X165689744Y-79625501D01*
X165808127Y-79576465D01*
X165914669Y-79505276D01*
X166005276Y-79414669D01*
X166076465Y-79308127D01*
X166125501Y-79189744D01*
X166150500Y-79064071D01*
X167149499Y-79064071D01*
X167174497Y-79189738D01*
X167174499Y-79189744D01*
X167223533Y-79308124D01*
X167223538Y-79308133D01*
X167294723Y-79414668D01*
X167294726Y-79414672D01*
X167385327Y-79505273D01*
X167385331Y-79505276D01*
X167491866Y-79576461D01*
X167491872Y-79576464D01*
X167491873Y-79576465D01*
X167610256Y-79625501D01*
X167610260Y-79625501D01*
X167610261Y-79625502D01*
X167735928Y-79650500D01*
X167735931Y-79650500D01*
X167864071Y-79650500D01*
X167948615Y-79633682D01*
X167989744Y-79625501D01*
X168108127Y-79576465D01*
X168214669Y-79505276D01*
X168305276Y-79414669D01*
X168376465Y-79308127D01*
X168425501Y-79189744D01*
X168450500Y-79064071D01*
X169749499Y-79064071D01*
X169774497Y-79189738D01*
X169774499Y-79189744D01*
X169823533Y-79308124D01*
X169823538Y-79308133D01*
X169894723Y-79414668D01*
X169894726Y-79414672D01*
X169985327Y-79505273D01*
X169985331Y-79505276D01*
X170091866Y-79576461D01*
X170091872Y-79576464D01*
X170091873Y-79576465D01*
X170210256Y-79625501D01*
X170210260Y-79625501D01*
X170210261Y-79625502D01*
X170335928Y-79650500D01*
X170335931Y-79650500D01*
X170464071Y-79650500D01*
X170548615Y-79633682D01*
X170589744Y-79625501D01*
X170708127Y-79576465D01*
X170814669Y-79505276D01*
X170905276Y-79414669D01*
X170976465Y-79308127D01*
X171025501Y-79189744D01*
X171050500Y-79064069D01*
X171050500Y-78935931D01*
X171050500Y-78935928D01*
X171025502Y-78810261D01*
X171025501Y-78810260D01*
X171025501Y-78810256D01*
X170976465Y-78691873D01*
X170976464Y-78691872D01*
X170976461Y-78691866D01*
X170905276Y-78585331D01*
X170905273Y-78585327D01*
X170814672Y-78494726D01*
X170814668Y-78494723D01*
X170708133Y-78423538D01*
X170708124Y-78423533D01*
X170589744Y-78374499D01*
X170589738Y-78374497D01*
X170464071Y-78349500D01*
X170464069Y-78349500D01*
X170335931Y-78349500D01*
X170335929Y-78349500D01*
X170210261Y-78374497D01*
X170210255Y-78374499D01*
X170091875Y-78423533D01*
X170091866Y-78423538D01*
X169985331Y-78494723D01*
X169985327Y-78494726D01*
X169894726Y-78585327D01*
X169894723Y-78585331D01*
X169823538Y-78691866D01*
X169823533Y-78691875D01*
X169774499Y-78810255D01*
X169774497Y-78810261D01*
X169749500Y-78935928D01*
X169749500Y-78935931D01*
X169749500Y-79064069D01*
X169749500Y-79064071D01*
X169749499Y-79064071D01*
X168450500Y-79064071D01*
X168450500Y-79064069D01*
X168450500Y-78935931D01*
X168450500Y-78935928D01*
X168425502Y-78810261D01*
X168425501Y-78810260D01*
X168425501Y-78810256D01*
X168376465Y-78691873D01*
X168376464Y-78691872D01*
X168376461Y-78691866D01*
X168305276Y-78585331D01*
X168305273Y-78585327D01*
X168214672Y-78494726D01*
X168214668Y-78494723D01*
X168108133Y-78423538D01*
X168108124Y-78423533D01*
X167989744Y-78374499D01*
X167989738Y-78374497D01*
X167864071Y-78349500D01*
X167864069Y-78349500D01*
X167735931Y-78349500D01*
X167735929Y-78349500D01*
X167610261Y-78374497D01*
X167610255Y-78374499D01*
X167491875Y-78423533D01*
X167491866Y-78423538D01*
X167385331Y-78494723D01*
X167385327Y-78494726D01*
X167294726Y-78585327D01*
X167294723Y-78585331D01*
X167223538Y-78691866D01*
X167223533Y-78691875D01*
X167174499Y-78810255D01*
X167174497Y-78810261D01*
X167149500Y-78935928D01*
X167149500Y-78935931D01*
X167149500Y-79064069D01*
X167149500Y-79064071D01*
X167149499Y-79064071D01*
X166150500Y-79064071D01*
X166150500Y-79064069D01*
X166150500Y-78935931D01*
X166150500Y-78935928D01*
X166125502Y-78810261D01*
X166125501Y-78810260D01*
X166125501Y-78810256D01*
X166076465Y-78691873D01*
X166076464Y-78691872D01*
X166076461Y-78691866D01*
X166005276Y-78585331D01*
X166005273Y-78585327D01*
X165914672Y-78494726D01*
X165914668Y-78494723D01*
X165808133Y-78423538D01*
X165808124Y-78423533D01*
X165689744Y-78374499D01*
X165689738Y-78374497D01*
X165564071Y-78349500D01*
X165564069Y-78349500D01*
X165435931Y-78349500D01*
X165435929Y-78349500D01*
X165310261Y-78374497D01*
X165310255Y-78374499D01*
X165191875Y-78423533D01*
X165191866Y-78423538D01*
X165085331Y-78494723D01*
X165085327Y-78494726D01*
X164994726Y-78585327D01*
X164994723Y-78585331D01*
X164923538Y-78691866D01*
X164923533Y-78691875D01*
X164874499Y-78810255D01*
X164874497Y-78810261D01*
X164849500Y-78935928D01*
X164849500Y-78935931D01*
X164849500Y-79064069D01*
X164849500Y-79064071D01*
X164849499Y-79064071D01*
X148400500Y-79064071D01*
X148400500Y-77756092D01*
X148401097Y-77743938D01*
X148401097Y-77743937D01*
X148412744Y-77625680D01*
X148417483Y-77601856D01*
X148450203Y-77493990D01*
X148459499Y-77471549D01*
X148512632Y-77372143D01*
X148526134Y-77351938D01*
X148597634Y-77264815D01*
X148614815Y-77247634D01*
X148701939Y-77176132D01*
X148722143Y-77162632D01*
X148821549Y-77109499D01*
X148843990Y-77100203D01*
X148951856Y-77067483D01*
X148975682Y-77062744D01*
X149075730Y-77052890D01*
X149093940Y-77051097D01*
X149106093Y-77050500D01*
X149147594Y-77050500D01*
X183752406Y-77050500D01*
X183793907Y-77050500D01*
X183806061Y-77051097D01*
G37*
%TD.AperFunction*%
%TD*%
M02*
